<?xml version="1.0" encoding="iso-8859-1"?>
<!-- Generator: Adobe Illustrator 19.0.0, SVG Export Plug-In . SVG Version: 6.00 Build 0)  -->
<svg version="1.1" id="Capa_1" xmlns="http://www.w3.org/2000/svg" xmlns:xlink="http://www.w3.org/1999/xlink" x="0px" y="0px"
	 viewBox="0 0 512.005 512.005" style="enable-background:new 0 0 512.005 512.005;" xml:space="preserve">
<g>
	<g>
		<g>
			<path d="M225.717,237.955c-0.035,2.533,0.954,4.973,2.743,6.766l6.216,6.217l26.15,26.149l6.217,6.217
				c1.807,1.768,4.238,2.754,6.766,2.743c1.265,0,2.514-0.281,3.657-0.823V184.926l-48.823,46.446
				C226.81,233.075,225.752,235.453,225.717,237.955z"/>
			<polygon points="215.02,283.578 228.186,296.744 241.443,283.578 228.186,270.321 			"/>
			<polygon points="295.752,267.029 310.106,251.852 310.106,153.841 295.752,167.555 			"/>
			<path d="M234.86,329.201l-6.674-6.583l-6.583,6.583c-6.97,6.993-17.144,9.731-26.682,7.181c-9.538-2.55-16.988-10-19.539-19.538
				s0.188-19.712,7.181-26.682l6.583-6.583l-6.583-6.674c-3.623-3.546-9.402-3.586-13.074-0.091
				c-3.008,3.133-4.959,7.13-5.578,11.429c-3.517,25.442-18.696,47.789-41.051,60.434l-29.531,13.714
				c-14.884,8.542-28.566,19.027-40.686,31.177c-16.61,16.639-30.11,36.115-39.862,57.509L0.804,477.498
				c-1.565,3.538-0.803,7.674,1.92,10.423l21.119,21.12c2.749,2.722,6.884,3.484,10.423,1.92l26.423-11.977
				c21.393-9.752,40.869-23.253,57.508-39.863c12.336-12.319,22.947-26.251,31.544-41.417l12.983-28.16
				c12.617-22.654,35.122-38.085,60.8-41.691c4.299-0.619,8.295-2.57,11.429-5.577C238.447,338.603,238.407,332.823,234.86,329.201
				L234.86,329.201z M52.46,472.195l-13.074,13.074c-3.57,3.536-9.322,3.536-12.891,0c-1.712-1.708-2.674-4.027-2.674-6.446
				s0.962-4.738,2.674-6.446l13.075-13.074c2.298-2.326,5.666-3.243,8.826-2.403c3.16,0.84,5.628,3.308,6.468,6.468
				C55.704,466.529,54.786,469.897,52.46,472.195z"/>
			<path d="M208.621,316.309l6.674-6.583l-13.258-13.257l-6.583,6.583c-1.751,1.781-2.735,4.177-2.742,6.674
				c0.008,2.471,0.994,4.837,2.742,6.583C199.119,319.875,204.956,319.875,208.621,316.309z"/>
			<path d="M509.237,29.315l-17.371-17.371v48.914l17.554-18.469C512.936,38.711,512.855,32.894,509.237,29.315z"/>
			<path d="M459.135,12.126v83.017l14.446-15.086V0.241c-1.554,0.342-2.999,1.065-4.205,2.103L459.135,12.126z"/>
			<polygon points="426.495,129.521 440.849,114.435 440.849,29.498 426.495,43.212 			"/>
			<polygon points="328.391,232.652 342.837,217.475 342.837,122.755 328.391,136.469 			"/>
			<polygon points="393.763,163.898 408.209,148.812 408.209,60.584 393.763,74.298 			"/>
			<polygon points="361.123,198.275 375.478,183.189 375.478,91.669 361.123,105.384 			"/>
		</g>
	</g>
</g>
<g>
</g>
<g>
</g>
<g>
</g>
<g>
</g>
<g>
</g>
<g>
</g>
<g>
</g>
<g>
</g>
<g>
</g>
<g>
</g>
<g>
</g>
<g>
</g>
<g>
</g>
<g>
</g>
<g>
</g>
</svg>
