<?xml version="1.0" encoding="iso-8859-1"?>
<!-- Generator: Adobe Illustrator 19.0.0, SVG Export Plug-In . SVG Version: 6.00 Build 0)  -->
<svg version="1.1" id="Capa_1" xmlns="http://www.w3.org/2000/svg" xmlns:xlink="http://www.w3.org/1999/xlink" x="0px" y="0px"
	 viewBox="0 0 512 512" style="enable-background:new 0 0 512 512;" xml:space="preserve">
<g>
	<g>
		<g>
			<path d="M205.623,351.048c1.645-0.183,3.291-0.274,4.937-0.457c2.011-0.091,3.931-0.183,5.85-0.274
				c0.824,0,1.646-0.091,2.469-0.091l102.766-198.766l0.274-0.549l5.851-12.434c0.135-1.503-0.217-3.01-1.005-4.297
				c-1.279-2.165-3.611-3.487-6.125-3.474c-2.652,0.009-5.096,1.44-6.401,3.749L197.212,351.871
				c0.913-0.091,1.737-0.183,2.559-0.274C201.784,351.413,203.703,351.139,205.623,351.048z"/>
			<path d="M4.389,432.419h499.749l-211.291-54.583c-19.133-6.225-39.126-9.403-59.246-9.417h-9.143
				c-13.054-0.037-26.076,1.28-38.857,3.931c-12.721,2.656-25.153,6.545-37.12,11.611L4.846,432.145
				C4.663,432.236,4.571,432.328,4.389,432.419z"/>
			<path d="M390.766,332.305c6.88,16.969,2.877,36.411-10.149,49.28l118.492,30.629l-83.841-202.789
				c-8.781-21.191-8.317-45.086,1.281-65.92l26.605-57.6c6.086-13.447,0.479-29.301-12.708-35.931l-7.955-4.114
				c-6.636-3.29-14.321-3.751-21.303-1.28c-6.928,2.391-12.577,7.511-15.635,14.171l-40.594,86.126
				c-0.402,1.615-0.984,3.179-1.737,4.663l-4.938,9.6c-0.07,0.073-0.104,0.174-0.091,0.274c-5.151,11.253-5.546,24.108-1.097,35.657
				L390.766,332.305z"/>
			<path d="M11.52,334.042c2.377,3.84,5.029,7.497,7.863,11.429c4.722,6.035,8.827,12.528,12.251,19.383
				c5.271,11.858,6.586,25.097,3.749,37.76l37.486-12.526c-0.192-8.697,1.59-17.325,5.212-25.234
				c3.519-6.899,7.683-13.45,12.434-19.566c2.742-3.84,5.394-7.406,7.771-11.246c1.801-3.008,3.419-6.123,4.846-9.326
				c3.565-7.863,13.897-35.566-1.828-56.046h-0.001c-13.257-17.28-36.937-19.109-46.446-19.109
				c-17.593-1.091-34.714,5.953-46.446,19.109c-12.525,16.366-9.051,39.68-1.737,56.137C8.111,327.976,9.728,331.06,11.52,334.042z"
				/>
			<rect y="450.705" width="512" height="18.286"/>
		</g>
	</g>
</g>
<g>
</g>
<g>
</g>
<g>
</g>
<g>
</g>
<g>
</g>
<g>
</g>
<g>
</g>
<g>
</g>
<g>
</g>
<g>
</g>
<g>
</g>
<g>
</g>
<g>
</g>
<g>
</g>
<g>
</g>
</svg>
