<?xml version="1.0" encoding="iso-8859-1"?>
<!-- Generator: Adobe Illustrator 19.0.0, SVG Export Plug-In . SVG Version: 6.00 Build 0)  -->
<svg version="1.1" id="Capa_1" xmlns="http://www.w3.org/2000/svg" xmlns:xlink="http://www.w3.org/1999/xlink" x="0px" y="0px"
	 viewBox="0 0 498.851 498.851" style="enable-background:new 0 0 498.851 498.851;" xml:space="preserve">
<g>
	<g>
		<g>
			<path d="M489.902,178.66l-76.575,47.125h-0.092L388.05,200.6l69.002-50.098l-10.033-13.817l-71.188,51.695l-26.645-26.645
				l60.5-60.5l-12.067-12.067l-60.5,60.5l-26.645-26.645l51.695-71.188l-13.817-10.033l-50.098,69.002l-25.185-25.185v-0.092
				l47.125-76.575l-14.533-8.95l-48.392,78.633c-0.827,1.346-1.265,2.895-1.267,4.475v78.625c0,2.263,0.899,4.434,2.5,6.033
				l72.583,72.584c1.6,1.601,3.77,2.5,6.033,2.5h78.625c1.58-0.002,3.129-0.44,4.475-1.267l78.633-48.392L489.902,178.66z
				 M283.487,168.621l-10.419-10.419v-48.45l18.495,18.495L283.487,168.621z M297.989,183.122l8.076-40.374l18.987,18.987
				l-24.225,24.225L297.989,183.122z M312.893,198.027l24.225-24.225l18.986,18.987l-40.374,8.076L312.893,198.027z
				 M340.652,225.785l-10.419-10.419l40.373-8.077l18.495,18.495H340.652z"/>
			<path d="M2.51,484.21c-3.348,3.35-3.347,8.781,0.004,12.129c3.35,3.348,8.781,3.347,12.129-0.004l248-247.992L250.51,236.21
				L2.51,484.21z"/>
			<path d="M250.502,199.935c-1.611,1.608-2.517,3.79-2.517,6.067c0,2.276,0.905,4.459,2.517,6.067l6.042,6.042l24.2,24.2
				l6.042,6.042c3.398,3.233,8.735,3.233,12.133,0l12.109-12.108l-48.417-48.417L250.502,199.935z"/>
		</g>
	</g>
</g>
<g>
</g>
<g>
</g>
<g>
</g>
<g>
</g>
<g>
</g>
<g>
</g>
<g>
</g>
<g>
</g>
<g>
</g>
<g>
</g>
<g>
</g>
<g>
</g>
<g>
</g>
<g>
</g>
<g>
</g>
</svg>
