<?xml version="1.0" encoding="iso-8859-1"?>
<!-- Generator: Adobe Illustrator 19.0.0, SVG Export Plug-In . SVG Version: 6.00 Build 0)  -->
<svg version="1.1" id="Capa_1" xmlns="http://www.w3.org/2000/svg" xmlns:xlink="http://www.w3.org/1999/xlink" x="0px" y="0px"
	 viewBox="0 0 511.912 511.912" style="enable-background:new 0 0 511.912 511.912;" xml:space="preserve">
<g>
	<g>
		<g>
			<path d="M5.382,402.593c-7.193,7.238-7.173,18.931,0.043,26.145c7.216,7.214,18.909,7.229,26.145,0.034l202.138-202.138
				l-26.183-26.183L5.382,402.593z"/>
			<path d="M347.266,135.375c0-2.423-0.964-4.747-2.679-6.46l-39.33-39.339c-3.613-3.455-9.306-3.455-12.92,0l-78.455,78.438
				c-3.562,3.577-3.562,9.36,0,12.937l39.223,39.214l0.107,0.107c1.714,1.715,4.04,2.679,6.464,2.679
				c2.425,0,4.75-0.964,6.465-2.679l78.446-78.438C346.302,140.122,347.266,137.798,347.266,135.375z"/>
			<path d="M350.998,109.343c7.202-7.24,7.202-18.939,0-26.179c-7.239-7.214-18.949-7.214-26.188,0l-0.054,0.054l26.183,26.183
				L350.998,109.343z"/>
			<path d="M322.327,368.095c31.691-4.176,67.001-23.286,96.599-52.877c23.506-22.692,40.718-51.099,49.95-82.44
				c-42.136-18.783-81.725-42.826-117.82-71.556l-67.11,67.11v0C296.049,247.392,328.588,305.344,322.327,368.095z"/>
			<path d="M486.024,239.572c-10.323,33.609-28.953,64.073-54.168,88.574c-34.001,33.993-75.484,55.315-112.565,58.55
				c-0.977,4.275-2.136,8.554-3.538,12.831c33.128,21.125,95.095,1.993,142.29-45.202c32.825-32.825,52.973-73.07,53.869-106.809
				C503.22,245.276,494.556,242.671,486.024,239.572z"/>
		</g>
	</g>
</g>
<g>
</g>
<g>
</g>
<g>
</g>
<g>
</g>
<g>
</g>
<g>
</g>
<g>
</g>
<g>
</g>
<g>
</g>
<g>
</g>
<g>
</g>
<g>
</g>
<g>
</g>
<g>
</g>
<g>
</g>
</svg>
