<?xml version="1.0" encoding="iso-8859-1"?>
<!-- Generator: Adobe Illustrator 19.0.0, SVG Export Plug-In . SVG Version: 6.00 Build 0)  -->
<svg version="1.1" id="Capa_1" xmlns="http://www.w3.org/2000/svg" xmlns:xlink="http://www.w3.org/1999/xlink" x="0px" y="0px"
	 viewBox="0 0 512 512" style="enable-background:new 0 0 512 512;" xml:space="preserve">
<g>
	<g>
		<g>
			<path d="M165.943,332.926c-1.784,1.722-2.777,4.104-2.743,6.583c-0.052,2.482,0.944,4.872,2.743,6.583
				c3.664,3.566,9.502,3.566,13.166,0l19.657-19.566l-13.257-13.257L165.943,332.926z"/>
			<path d="M87.589,476.56c-1.739,1.691-4.066,2.642-6.491,2.651c-2.398-0.011-4.697-0.963-6.4-2.651
				c-1.753-1.705-2.743-4.046-2.743-6.491s0.989-4.787,2.743-6.491l26.057-26.057l-26.149-26.331l-26.149,26.149
				c-1.716,1.737-4.05,2.723-6.491,2.743c-3.693-0.023-7.012-2.255-8.428-5.665s-0.653-7.337,1.937-9.969l26.149-26.149
				l-13.074-13.166L2.743,430.846C0.987,432.587,0,434.957,0,437.429s0.987,4.842,2.743,6.583l65.28,65.28
				c3.664,3.565,9.501,3.565,13.166,0l45.714-45.714l-13.166-13.074L87.589,476.56z"/>
			<path d="M211.566,287.303l-13.074,13.074l13.166,13.166l13.074-13.074c1.769-1.732,2.759-4.107,2.743-6.583
				c-0.021-5.142-4.184-9.304-9.326-9.326C215.673,284.544,213.297,285.534,211.566,287.303z"/>
			
				<rect x="64.267" y="387.579" transform="matrix(-0.7071 -0.7071 0.7071 -0.7071 -95.3132 763.606)" width="92.449" height="27.929"/>
			<path d="M100.571,346.092l65.371,65.371l130.743-130.651l-65.463-65.463L100.571,346.092z M237.714,313.36L192,359.074
				c-10.781,10.781-28.259,10.781-39.04,0c-10.781-10.781-10.781-28.259,0-39.04l45.714-45.714c10.926-10.423,28.114-10.423,39.04,0
				C248.442,285.123,248.442,302.558,237.714,313.36z"/>
			<polygon points="368.366,0.034 329.051,39.257 472.777,182.983 512,143.76 			"/>
			<polygon points="300.251,128.034 384,211.783 455.314,191.394 320.64,56.72 			"/>
			<path d="M237.714,195.966l13.074,13.166l26.24-26.149c3.56-3.56,9.332-3.56,12.891,0c3.56,3.56,3.56,9.332,0,12.891
				l-26.149,26.149l26.24,26.24l26.149-26.149c2.303-2.303,5.659-3.202,8.805-2.359s5.603,3.3,6.446,6.446
				c0.843,3.146-0.056,6.502-2.359,8.805l-26.149,26.24l13.166,13.074l52.389-52.297l-78.446-78.446L237.714,195.966z"/>
		</g>
	</g>
</g>
<g>
</g>
<g>
</g>
<g>
</g>
<g>
</g>
<g>
</g>
<g>
</g>
<g>
</g>
<g>
</g>
<g>
</g>
<g>
</g>
<g>
</g>
<g>
</g>
<g>
</g>
<g>
</g>
<g>
</g>
</svg>
