<?xml version="1.0" encoding="iso-8859-1"?>
<!-- Generator: Adobe Illustrator 19.0.0, SVG Export Plug-In . SVG Version: 6.00 Build 0)  -->
<svg version="1.1" id="Capa_1" xmlns="http://www.w3.org/2000/svg" xmlns:xlink="http://www.w3.org/1999/xlink" x="0px" y="0px"
	 viewBox="0 0 509.819 509.819" style="enable-background:new 0 0 509.819 509.819;" xml:space="preserve">
<g>
	<g>
		<g>
			<path d="M264.391,38.59V9.482c0-5.237-4.245-9.482-9.482-9.482s-9.482,4.245-9.482,9.482V38.59
				C251.718,37.705,258.101,37.705,264.391,38.59z"/>
			<circle cx="254.91" cy="113.778" r="18.963"/>
			<path d="M254.91,170.667c31.419,0,56.889-25.47,56.889-56.889c-0.025-31.409-25.48-56.864-56.889-56.889
				c-31.419,0-56.889,25.47-56.889,56.889S223.491,170.667,254.91,170.667z M254.91,75.852c20.946,0,37.926,16.98,37.926,37.926
				c0.003,10.059-3.992,19.708-11.105,26.821c-7.113,7.113-16.761,11.108-26.821,11.105c-20.946,0-37.926-16.98-37.926-37.926
				S233.964,75.852,254.91,75.852z"/>
			<path d="M319.004,210.584l-10.335-29.203v-0.095l-3.793-10.619c-4.487,3.986-9.456,7.395-14.791,10.145
				c-0.39,0.257-0.803,0.479-1.233,0.664v0l0,0l0.039,0.107l46.515,128.082l0.853,2.276l0.095,0.095l0.759,2.086l2.181,6.163
				l0.758,2.086l0.095,0.095l68.172,187.354l7.206-25.884l-95.573-270.696L319.004,210.584z"/>
			<path d="M300.61,322.37c-4.033-11.319-14.722-18.9-26.738-18.963h-37.926c-12.016,0.063-22.705,7.644-26.738,18.963h-24.557
				l-6.922,18.963h31.479c4.033,11.319,14.722,18.9,26.738,18.963h37.926c12.016-0.063,22.705-7.644,26.738-18.963h27.97
				l-6.827-18.963H300.61z M273.873,341.333h-37.926c-5.236,0-9.482-4.245-9.482-9.481c0-5.237,4.245-9.482,9.482-9.482h37.926
				c5.237,0,9.482,4.245,9.482,9.482C283.354,337.088,279.109,341.333,273.873,341.333z"/>
			<polygon points="425.576,322.37 425.576,312.889 406.613,312.889 406.613,322.37 377.979,322.37 384.711,341.333 
				406.613,341.333 406.613,350.815 425.576,350.815 425.576,341.333 463.502,341.333 463.502,322.37 			"/>
			<polygon points="103.206,350.815 103.206,341.333 125.013,341.333 131.745,322.37 103.206,322.37 103.206,312.889 
				84.243,312.889 84.243,322.37 46.317,322.37 46.317,341.333 84.243,341.333 84.243,350.815 			"/>
			<path d="M220.871,181.476L220.871,181.476c-0.459-0.225-0.907-0.47-1.358-0.711c-0.923-0.493-1.834-1.007-2.719-1.564
				c-4.281-2.484-8.313-5.373-12.042-8.628l-3.793,10.619l-15.644,44.373l-1.043,2.939L94.199,483.84l7.206,25.695l8.533-23.419
				L220.871,181.476L220.871,181.476z"/>
		</g>
	</g>
</g>
<g>
</g>
<g>
</g>
<g>
</g>
<g>
</g>
<g>
</g>
<g>
</g>
<g>
</g>
<g>
</g>
<g>
</g>
<g>
</g>
<g>
</g>
<g>
</g>
<g>
</g>
<g>
</g>
<g>
</g>
</svg>
