<?xml version="1.0" encoding="iso-8859-1"?>
<!-- Generator: Adobe Illustrator 19.0.0, SVG Export Plug-In . SVG Version: 6.00 Build 0)  -->
<svg version="1.1" id="Capa_1" xmlns="http://www.w3.org/2000/svg" xmlns:xlink="http://www.w3.org/1999/xlink" x="0px" y="0px"
	 viewBox="0 0 512 512" style="enable-background:new 0 0 512 512;" xml:space="preserve">
<g>
	<g>
		<g>
			<path d="M109.714,246.857H0v27.429C0.009,299.529,20.471,319.991,45.714,320h64V246.857z"/>
			<path d="M90.24,501.76c-2.84,2.917-5.023,6.409-6.4,10.24h135.589v-18.286H109.714C102.413,493.71,95.409,496.603,90.24,501.76z"
				/>
			<path d="M128,228.571v51.109l60.251-60.251h-51.109C132.1,219.444,128.015,223.528,128,228.571z"/>
			<path d="M402.286,493.714H292.571V512H428.16C424.253,501.06,413.903,493.745,402.286,493.714z"/>
			<path d="M282.606,219.429l-88.686,88.777c-3.606,3.535-9.377,3.535-12.983,0c-3.565-3.593-3.565-9.39,0-12.983l75.886-75.794
				h-42.789L128,305.463v32.823c0.015,5.043,4.1,9.128,9.143,9.143h292.571c45.417-0.068,82.217-36.869,82.286-82.286v-45.714
				H282.606z M438.857,256h-128c-5.049,0-9.143-4.093-9.143-9.143c0-5.049,4.093-9.143,9.143-9.143h128
				c5.049,0,9.143,4.093,9.143,9.143C448,251.907,443.907,256,438.857,256z M484.571,256h-9.143c-5.049,0-9.143-4.093-9.143-9.143
				c0-5.049,4.093-9.143,9.143-9.143h9.143c5.049,0,9.143,4.093,9.143,9.143C493.714,251.907,489.621,256,484.571,256z"/>
			<path d="M256,466.286c-10.087,0.029-18.256,8.199-18.286,18.286V512h36.571v-27.429C274.256,474.485,266.087,466.315,256,466.286
				z"/>
			<path d="M301.714,420.571c0.018-21.03,9.117-41.028,24.96-54.857H185.326c15.858,13.819,24.96,33.823,24.96,54.857
				c0,21.034-9.102,41.039-24.96,54.857h35.383C224.819,459.293,239.349,448,256,448s31.181,11.293,35.291,27.429h35.383
				C310.831,461.599,301.733,441.601,301.714,420.571z"/>
			<polygon points="215.68,109.714 252.251,73.143 223.177,73.143 186.606,109.714 			"/>
			<polygon points="270.537,109.714 307.109,73.143 278.034,73.143 241.463,109.714 			"/>
			<polygon points="338.286,109.714 338.286,73.143 332.891,73.143 296.32,109.714 			"/>
			<path d="M356.571,64v100.114l72.96,0.457l0.183-105.417c0.02-3.272-1.463-6.373-4.023-8.411L356.389,0l0.091,63.543
				C356.52,63.693,356.55,63.846,356.571,64z"/>
			<polygon points="51.109,109.714 87.68,73.143 58.606,73.143 22.034,109.714 			"/>
			<path d="M32.823,73.143H9.143C4.1,73.158,0.015,77.242,0,82.286v18.286c0.014,1.483,0.425,2.935,1.189,4.206L32.823,73.143z"/>
			<polygon points="105.966,109.714 142.537,73.143 113.463,73.143 76.891,109.714 			"/>
			<polygon points="160.823,109.714 197.394,73.143 168.32,73.143 131.749,109.714 			"/>
		</g>
	</g>
</g>
<g>
</g>
<g>
</g>
<g>
</g>
<g>
</g>
<g>
</g>
<g>
</g>
<g>
</g>
<g>
</g>
<g>
</g>
<g>
</g>
<g>
</g>
<g>
</g>
<g>
</g>
<g>
</g>
<g>
</g>
</svg>
