<?xml version="1.0" encoding="iso-8859-1"?>
<!-- Generator: Adobe Illustrator 19.0.0, SVG Export Plug-In . SVG Version: 6.00 Build 0)  -->
<svg version="1.1" id="Capa_1" xmlns="http://www.w3.org/2000/svg" xmlns:xlink="http://www.w3.org/1999/xlink" x="0px" y="0px"
	 viewBox="0 0 505.727 505.727" style="enable-background:new 0 0 505.727 505.727;" xml:space="preserve">
<g transform="translate(0 -1)">
	<g>
		<g>
			<path d="M37.811,457.552c-3.495,3.351-9.01,3.351-12.504,0l-12.605-12.605L0,457.649l12.601,12.605
				c5.026,5.032,11.846,7.86,18.958,7.86c7.112,0,13.932-2.827,18.958-7.86L181.632,339.14l-12.702-12.702L37.811,457.552z"/>
			<path d="M365.906,230.501l-18.805,18.814l3.097,3.096c5.258,5.035,13.549,5.035,18.807,0h0.004
				c2.496-2.493,3.899-5.876,3.899-9.404c0-3.528-1.403-6.911-3.899-9.404L365.906,230.501z"/>
			<path d="M447.796,60.276l-18.91-18.908l-0.001-0.002l-6.201-6.2c-3.514-3.497-9.193-3.497-12.706,0l-12.459,12.459l62.931,62.928
				l12.457-12.456c3.504-3.512,3.504-9.198,0-12.71L447.796,60.276z"/>
			<polygon points="471.495,58.563 505.727,4.758 503.275,2.306 449.497,36.574 453.458,40.536 			"/>
			<polygon points="372.445,198.555 391.066,179.925 415.175,155.825 447.745,123.255 384.814,60.324 214.74,230.407 
				277.671,293.338 			"/>
			<path d="M202.037,243.107l-37.673,37.673c-1.685,1.684-2.632,3.969-2.632,6.351s0.947,4.667,2.632,6.351l50.228,50.228
				c3.548,3.404,9.149,3.404,12.697,0l37.676-37.675L202.037,243.107z"/>
			<path d="M428.934,167.473l-18.809,18.809l3.103,3.103c5.267,5.018,13.545,5.018,18.811,0c5.184-5.197,5.184-13.61,0-18.807
				L428.934,167.473z"/>
			<path d="M269.39,327.018l-28.887,28.887l77.353,149.516l5.833-6c7.701-7.671,9.977-19.247,5.754-29.263L269.39,327.018z"/>
			<path d="M460.452,135.956l-18.816,18.816l3.105,3.105c5.196,5.195,13.619,5.194,18.814-0.002
				c5.195-5.196,5.194-13.619-0.002-18.814L460.452,135.956z"/>
			<path d="M397.423,198.984l-18.814,18.814l3.101,3.105c5.198,5.181,13.61,5.173,18.8-0.016c5.189-5.19,5.197-13.601,0.016-18.8
				L397.423,198.984z"/>
			<path d="M301.164,356.213l51.608,12.901c7.304,1.848,15.049,0.516,21.315-3.667l9.513-6.369l-94.414-31.355L301.164,356.213z"/>
		</g>
	</g>
</g>
<g>
</g>
<g>
</g>
<g>
</g>
<g>
</g>
<g>
</g>
<g>
</g>
<g>
</g>
<g>
</g>
<g>
</g>
<g>
</g>
<g>
</g>
<g>
</g>
<g>
</g>
<g>
</g>
<g>
</g>
</svg>
