<?xml version="1.0" encoding="iso-8859-1"?>
<!-- Generator: Adobe Illustrator 19.0.0, SVG Export Plug-In . SVG Version: 6.00 Build 0)  -->
<svg version="1.1" id="Capa_1" xmlns="http://www.w3.org/2000/svg" xmlns:xlink="http://www.w3.org/1999/xlink" x="0px" y="0px"
	 viewBox="0 0 512 512" style="enable-background:new 0 0 512 512;" xml:space="preserve">
<g>
	<g>
		<g>
			<path d="M351.726,201.326c0.091-0.183,0.183-0.183,0.274-0.274c0.52-0.59,1.139-1.085,1.829-1.463
				c0.314-0.245,0.651-0.459,1.006-0.64c0.717-0.351,1.491-0.568,2.286-0.64c0.326-0.105,0.664-0.166,1.006-0.183
				c0.767-0.034,1.534,0.028,2.286,0.183c0.457,0.091,0.823,0.183,1.28,0.274c0.183,0.091,0.457,0.091,0.64,0.183
				c11.743,5.044,25.04,5.053,36.789,0.025c11.75-5.028,20.924-14.654,25.382-26.631l-20.846,11.977
				c-5.77,3.327-12.626,4.223-19.057,2.491c-6.431-1.732-11.91-5.95-15.228-11.725l-9.143-15.909
				c-6.841-11.977-2.763-27.23,9.143-34.195l23.589-13.531c-16.037-4.34-33.171,0.22-44.929,11.959
				c-11.758,11.739-16.346,28.865-12.031,44.91c0.091,0.274,0,0.457,0.091,0.731c0.124,0.663,0.155,1.34,0.091,2.011
				c0.03,0.525-0.032,1.051-0.183,1.554c-0.112,0.599-0.296,1.182-0.549,1.737c-0.238,0.536-0.513,1.056-0.823,1.554
				c-0.183,0.183-0.274,0.457-0.457,0.64l-59.337,70.492h38.4L351.726,201.326z"/>
			<path d="M36.571,64c0.015-5.043,4.1-9.128,9.143-9.143h420.571c5.043,0.015,9.128,4.1,9.143,9.143v182.857h18.286V45.714
				c-0.015-5.043-4.1-9.128-9.143-9.143H27.429c-5.043,0.015-9.128,4.1-9.143,9.143v201.143h18.286V64z"/>
			<path d="M219.429,338.286c0.015,5.043,4.1,9.128,9.143,9.143h54.857c5.043-0.015,9.128-4.1,9.143-9.143v-73.143h-73.143V338.286z
				"/>
			<path d="M457.143,9.143C457.128,4.1,453.043,0.015,448,0h-18.286c-5.043,0.015-9.128,4.1-9.143,9.143v9.143h36.571V9.143z"/>
			<path d="M292.571,9.143c-0.015-5.043-4.1-9.128-9.143-9.143h-54.857c-5.043,0.015-9.128,4.1-9.143,9.143v9.143h73.143V9.143z"/>
			<path d="M91.429,9.143C91.414,4.1,87.329,0.015,82.286,0H64c-5.043,0.015-9.128,4.1-9.143,9.143v9.143h36.571V9.143z"/>
			<path d="M429.714,411.429H448c5.043-0.015,9.128-4.1,9.143-9.143v-36.571h-36.571v36.571
				C420.586,407.329,424.671,411.414,429.714,411.429z"/>
			<rect x="54.857" y="265.143" width="36.571" height="45.714"/>
			<path d="M54.857,402.286c0.015,5.043,4.1,9.128,9.143,9.143h18.286c5.043-0.015,9.128-4.1,9.143-9.143v-36.571H54.857V402.286z"
				/>
			<path d="M502.857,265.143h-27.429v137.143c-0.044,15.13-12.299,27.384-27.429,27.429h-18.286
				c-15.13-0.044-27.384-12.299-27.429-27.429V265.143h-91.429v73.143c-0.044,15.13-12.299,27.384-27.429,27.429h-54.857
				c-15.13-0.044-27.384-12.299-27.429-27.429v-73.143h-91.429v137.143c-0.044,15.13-12.299,27.384-27.429,27.429H64
				c-15.13-0.044-27.384-12.299-27.429-27.429V265.143H9.143c-5.043,0.015-9.128,4.1-9.143,9.143v228.571
				c0.015,5.043,4.1,9.128,9.143,9.143h493.714c5.043-0.015,9.128-4.1,9.143-9.143V274.286
				C511.985,269.242,507.9,265.158,502.857,265.143z"/>
			<rect x="420.571" y="329.143" width="36.571" height="18.286"/>
			<rect x="420.571" y="265.143" width="36.571" height="45.714"/>
			<path d="M121.616,194.909c-0.051-0.152-0.101-0.305-0.144-0.458c-0.053-0.19-0.094-0.383-0.134-0.576
				c-0.061-0.296-0.108-0.594-0.14-0.892c-0.017-0.156-0.037-0.312-0.046-0.468c-0.012-0.214-0.01-0.427-0.007-0.64
				c0.002-0.118,0.005-0.236,0.011-0.354c0.012-0.227,0.029-0.453,0.058-0.678c0.009-0.072,0.024-0.144,0.035-0.216
				c0.071-0.467,0.178-0.928,0.32-1.379c0.02-0.063,0.036-0.127,0.057-0.19c0.072-0.211,0.156-0.418,0.242-0.624
				c0.051-0.12,0.105-0.24,0.162-0.359c0.088-0.187,0.178-0.373,0.279-0.554c0.102-0.182,0.215-0.355,0.328-0.528
				c0.141-0.217,0.293-0.427,0.453-0.632c0.122-0.156,0.245-0.311,0.376-0.457c0.107-0.12,0.219-0.236,0.333-0.351
				c0.149-0.15,0.304-0.294,0.462-0.432c0.106-0.093,0.21-0.188,0.321-0.277c0.556-0.443,1.161-0.82,1.804-1.123
				c0.103-0.048,0.207-0.089,0.311-0.133c0.233-0.099,0.47-0.19,0.712-0.27c0.114-0.038,0.228-0.075,0.342-0.108
				c0.271-0.078,0.547-0.143,0.827-0.196c0.078-0.015,0.155-0.036,0.233-0.049c0.34-0.055,0.686-0.087,1.035-0.104
				c0.13-0.006,0.259-0.004,0.389-0.004c0.231-0.001,0.46,0.006,0.688,0.022c0.147,0.01,0.294,0.02,0.44,0.037
				c0.253,0.03,0.503,0.074,0.751,0.125c0.186,0.038,0.371,0.083,0.554,0.133c0.224,0.06,0.446,0.125,0.664,0.202
				c0.142,0.05,0.282,0.107,0.422,0.164c0.201,0.082,0.398,0.172,0.592,0.268c0.12,0.059,0.241,0.116,0.358,0.18
				c0.298,0.164,0.589,0.34,0.868,0.537c0.055,0.038,0.105,0.084,0.159,0.124c0.234,0.174,0.461,0.358,0.679,0.554
				c0.088,0.079,0.172,0.162,0.257,0.245c0.182,0.177,0.357,0.363,0.525,0.557c0.076,0.087,0.153,0.172,0.225,0.262
				c0.228,0.283,0.445,0.576,0.64,0.889l37.303,59.703h21.577l-54.857-87.68c-8.182-12.609-24.891-16.453-37.76-8.686
				c-6.16,3.855-10.535,9.999-12.164,17.081c-1.629,7.082-0.378,14.52,3.478,20.679l36.571,58.606h21.577l-31.269-50.011
				c-0.191-0.306-0.354-0.624-0.506-0.946c-0.061-0.129-0.113-0.26-0.167-0.391C121.759,195.311,121.684,195.111,121.616,194.909z"
				/>
			<rect x="54.857" y="329.143" width="36.571" height="18.286"/>
		</g>
	</g>
</g>
<g>
</g>
<g>
</g>
<g>
</g>
<g>
</g>
<g>
</g>
<g>
</g>
<g>
</g>
<g>
</g>
<g>
</g>
<g>
</g>
<g>
</g>
<g>
</g>
<g>
</g>
<g>
</g>
<g>
</g>
</svg>
