<?xml version="1.0" encoding="iso-8859-1"?>
<!-- Generator: Adobe Illustrator 19.0.0, SVG Export Plug-In . SVG Version: 6.00 Build 0)  -->
<svg version="1.1" id="Capa_1" xmlns="http://www.w3.org/2000/svg" xmlns:xlink="http://www.w3.org/1999/xlink" x="0px" y="0px"
	 viewBox="0 0 512 512" style="enable-background:new 0 0 512 512;" xml:space="preserve">
<g>
	<g>
		<g>
			<path d="M509.257,121.051c-1.749-1.822-4.156-2.867-6.682-2.902c-2.526-0.034-4.96,0.945-6.758,2.719l-124.891,124.8
				c-1.708,1.712-4.027,2.674-6.446,2.674c-2.419,0-4.738-0.962-6.446-2.674l-32.823-32.823c-3.535-3.57-3.535-9.321,0-12.891
				l124.8-124.8c2.384-2.385,3.316-5.86,2.443-9.117s-3.417-5.802-6.674-6.674c-3.257-0.873-6.733,0.058-9.117,2.443l-124.8,124.8
				c-1.72,1.72-4.059,2.676-6.491,2.651c-2.405,0.024-4.716-0.934-6.4-2.651l-32.914-32.823c-3.565-3.593-3.565-9.389,0-12.983
				L390.948,16c2.641-2.702,3.411-6.721,1.956-10.208c-1.455-3.487-4.852-5.767-8.631-5.792c-2.499,0-4.898,0.985-6.674,2.743
				L252.983,127.269c-10.905,11.036-10.946,28.777-0.091,39.863l32.64,32.549c0.091,0.091,0.183,0.091,0.274,0.183l26.331,26.331
				c0.091,0.091,0.091,0.183,0.183,0.366l32.549,32.549c11.104,10.809,28.808,10.768,39.863-0.091L509.257,134.4
				C512.914,130.702,512.914,124.75,509.257,121.051z"/>
			<path d="M121.234,377.417c-1.72,1.72-4.059,2.676-6.491,2.651h-25.6c-14.847,0.067-29.069,5.98-39.589,16.457l-46.811,46.72
				c-3.657,3.734-3.657,9.706,0,13.44l52.571,52.571c3.734,3.657,9.706,3.657,13.44,0l46.72-46.811
				c10.579-10.451,16.51-24.718,16.457-39.589v-25.6c-0.024-2.432,0.931-4.772,2.651-6.491l158.08-158.08l-13.349-13.349
				L121.234,377.417z M113.006,422.949c-0.002,9.817-3.918,19.228-10.88,26.149l-33.554,33.554c-1.716,1.737-4.05,2.723-6.491,2.743
				c-2.445-0.002-4.786-0.991-6.491-2.743l-26.24-26.24c-1.746-1.71-2.733-4.048-2.743-6.491c0.027-2.44,1.012-4.771,2.743-6.491
				l33.554-33.554c6.921-6.962,16.332-10.878,26.149-10.88h14.811c5.043,0.015,9.128,4.099,9.143,9.143V422.949z"/>
		</g>
	</g>
</g>
<g>
</g>
<g>
</g>
<g>
</g>
<g>
</g>
<g>
</g>
<g>
</g>
<g>
</g>
<g>
</g>
<g>
</g>
<g>
</g>
<g>
</g>
<g>
</g>
<g>
</g>
<g>
</g>
<g>
</g>
</svg>
