<?xml version="1.0" encoding="iso-8859-1"?>
<!-- Generator: Adobe Illustrator 19.0.0, SVG Export Plug-In . SVG Version: 6.00 Build 0)  -->
<svg version="1.1" id="Capa_1" xmlns="http://www.w3.org/2000/svg" xmlns:xlink="http://www.w3.org/1999/xlink" x="0px" y="0px"
	 viewBox="0 0 508.148 508.148" style="enable-background:new 0 0 508.148 508.148;" xml:space="preserve">
<g>
	<g>
		<g>
			<path d="M287.937,155.735c-3.864,3.808-6.504,8.683-7.58,14l-2.071,10.554c-1.793,8.883-6.188,17.032-12.625,23.411L0,467.378
				l19.589,19.446l312.69-310.364l-32.614-32.372L287.937,155.735z"/>
			<path d="M443.036,66.529c1.711-1.71,2.671-4.03,2.67-6.448c-0.002-2.419-0.965-4.737-2.679-6.445l-19.536-19.384
				c-3.681-3.536-9.497-3.536-13.179,0l-6.487,6.438l32.622,32.378L443.036,66.529z"/>
			<path d="M473.067,135.188L358.205,21.324l-78.161,77.58l25.958,25.748c0.045,0.044,0.105,0.055,0.15,0.1
				c0.041,0.042,0.052,0.098,0.093,0.141l45.465,45.101l0.04,0.026l0.025,0.037l25.975,25.767c0.319,0.316,2.714,2.745,5.884,6.614
				C421.654,193.765,454.18,169.307,473.067,135.188z"/>
			<path d="M505.446,167.315l-18.886-18.739c-20.438,34.351-53.428,59.413-92.002,69.89c5.704,9.464,8.624,20.345,8.424,31.393
				c44.409-5.362,83.343-32.215,104.134-71.821C508.963,174.483,508.287,170.141,505.446,167.315z"/>
		</g>
	</g>
</g>
<g>
</g>
<g>
</g>
<g>
</g>
<g>
</g>
<g>
</g>
<g>
</g>
<g>
</g>
<g>
</g>
<g>
</g>
<g>
</g>
<g>
</g>
<g>
</g>
<g>
</g>
<g>
</g>
<g>
</g>
</svg>
