<?xml version="1.0" encoding="iso-8859-1"?>
<!-- Generator: Adobe Illustrator 19.0.0, SVG Export Plug-In . SVG Version: 6.00 Build 0)  -->
<svg version="1.1" id="Capa_1" xmlns="http://www.w3.org/2000/svg" xmlns:xlink="http://www.w3.org/1999/xlink" x="0px" y="0px"
	 viewBox="0 0 508.275 508.275" style="enable-background:new 0 0 508.275 508.275;" xml:space="preserve">
<g>
	<g>
		<g>
			<path d="M378.628,0L248.983,129.646c-10.697,10.78-10.697,28.169,0,38.949l19.383,19.474l13.074-12.983
				c2.299-2.321,5.665-3.234,8.821-2.393c3.157,0.841,5.623,3.306,6.463,6.463s-0.073,6.522-2.394,8.821l-12.982,12.983
				l25.966,25.966l51.84-51.84c4.656-4.635,6.48-11.404,4.784-17.751c-1.696-6.347-6.653-11.304-13-13
				c-6.347-1.695-13.116,0.129-17.751,4.785l-12.891,12.983c-3.593,3.539-9.368,3.518-12.934-0.049
				c-3.566-3.566-3.588-9.341-0.049-12.934l12.983-12.983c14.315-14.315,37.525-14.315,51.84,0c14.315,14.315,14.315,37.525,0,51.84
				l-51.931,51.931l19.474,19.383c10.815,10.698,28.225,10.698,39.039,0l129.556-129.646L378.628,0z"/>
			<path d="M119.337,375.955c-1.708,1.682-4.004,2.633-6.401,2.651H87.612c-14.581-0.037-28.571,5.757-38.857,16.091l-46.08,45.989
				c-3.566,3.629-3.566,9.446,0,13.074l51.84,51.84c3.629,3.566,9.446,3.566,13.075,0l45.988-46.08
				c10.335-10.286,16.128-24.276,16.091-38.857v-25.326c0.019-2.397,0.97-4.692,2.651-6.4l155.612-155.611l-12.982-12.983
				L119.337,375.955z M111.291,420.663c0.004,9.701-3.843,19.008-10.696,25.874l-33.097,33.097c-3.57,3.535-9.321,3.535-12.891,0
				L28.64,453.669c-1.712-1.708-2.674-4.027-2.674-6.446s0.962-4.738,2.674-6.446l33.097-33.097
				c6.867-6.853,16.173-10.701,25.875-10.697h14.536c5.043,0.015,9.128,4.099,9.143,9.143V420.663z"/>
		</g>
	</g>
</g>
<g>
</g>
<g>
</g>
<g>
</g>
<g>
</g>
<g>
</g>
<g>
</g>
<g>
</g>
<g>
</g>
<g>
</g>
<g>
</g>
<g>
</g>
<g>
</g>
<g>
</g>
<g>
</g>
<g>
</g>
</svg>
