<?xml version="1.0" encoding="iso-8859-1"?>
<!-- Generator: Adobe Illustrator 19.0.0, SVG Export Plug-In . SVG Version: 6.00 Build 0)  -->
<svg version="1.1" id="Capa_1" xmlns="http://www.w3.org/2000/svg" xmlns:xlink="http://www.w3.org/1999/xlink" x="0px" y="0px"
	 viewBox="0 0 512.014 512.014" style="enable-background:new 0 0 512.014 512.014;" xml:space="preserve">
<g>
	<g>
		<g>
			<polygon points="54.948,443.835 68.166,457.055 290.557,234.672 277.334,221.449 			"/>
			<path d="M61.7,476.449l-26.151-26.143l-0.018-0.027L15.941,430.69c-3.655-3.63-9.557-3.618-13.198,0.025
				c-3.641,3.643-3.648,9.546-0.016,13.198l65.366,65.366c1.753,1.752,4.13,2.736,6.609,2.734c2.479-0.002,4.855-0.989,6.605-2.743
				c3.643-3.652,3.643-9.563,0-13.214L61.7,476.449z"/>
			<path d="M373.736,151.418c-1.719-6.416-6.731-11.428-13.147-13.147c-6.416-1.719-13.263,0.115-17.96,4.812l-58.83,58.83
				l26.152,26.295l58.974-58.83C373.62,164.681,375.455,157.835,373.736,151.418z"/>
			<path d="M511.959,83.61c-1.696-45.431-38.132-81.871-83.563-83.571C407.374-0.628,387,7.371,372.048,22.164l-86.494,86.486
				c7.187,14.138,15.872,27.463,25.905,39.746l18.241-18.241c11.916-11.841,30.331-14.125,44.779-5.555l46.739-46.731
				c3.57-3.57,9.358-3.57,12.929,0s3.57,9.358,0,12.929l-46.739,46.732c8.57,14.447,6.285,32.862-5.555,44.777l-18.243,18.243
				c12.283,10.034,25.61,18.718,39.751,25.901l86.492-86.492C504.704,125.046,512.709,104.643,511.959,83.61z"/>
		</g>
	</g>
</g>
<g>
</g>
<g>
</g>
<g>
</g>
<g>
</g>
<g>
</g>
<g>
</g>
<g>
</g>
<g>
</g>
<g>
</g>
<g>
</g>
<g>
</g>
<g>
</g>
<g>
</g>
<g>
</g>
<g>
</g>
</svg>
