<?xml version="1.0" encoding="iso-8859-1"?>
<!-- Generator: Adobe Illustrator 19.0.0, SVG Export Plug-In . SVG Version: 6.00 Build 0)  -->
<svg version="1.1" id="Capa_1" xmlns="http://www.w3.org/2000/svg" xmlns:xlink="http://www.w3.org/1999/xlink" x="0px" y="0px"
	 viewBox="0 0 512 512" style="enable-background:new 0 0 512 512;" xml:space="preserve">
<g>
	<g>
		<g>
			<path d="M153.303,214.446l9.25,15.83c4.929,8.721,2.044,19.781-6.518,24.982l-15.902,9.196c-4.19,2.447-9.182,3.126-13.873,1.889
				c-4.692-1.238-8.698-4.291-11.136-8.487l-32.188-55.312c-4.884-8.391-6.226-18.381-3.732-27.764s8.621-17.387,17.027-22.245
				l31.571-18.411l-9.205-15.777c-20.329-34.866-65.03-46.72-99.964-26.509l-15.866,9.214l170.267,292.829V211.839l-3.848-6.616
				L153.303,214.446z"/>
			<path d="M267.14,244.181c-1.715-1.715-2.678-4.041-2.676-6.467v-9.143h-18.286v9.143c0.001,2.425-0.961,4.752-2.676,6.467
				c-1.715,1.715-4.041,2.678-6.467,2.676h-9.143v18.286h9.143c2.425-0.001,4.752,0.961,6.467,2.676
				c1.715,1.715,2.678,4.041,2.676,6.466v9.143h18.286v-9.143c-0.001-2.425,0.961-4.752,2.676-6.466
				c1.715-1.715,4.041-2.678,6.466-2.676h9.143v-18.286h-9.143C271.182,246.859,268.855,245.896,267.14,244.181z"/>
			<path d="M337.607,105.239v216.392l46.411,99.466c21.877,47.247,76.262,69.906,125.214,52.17L337.607,105.239z"/>
			<path d="M255.321,0c-35.328,0.043-63.957,28.672-64,64v384c0,35.346,28.654,64,64,64c35.346,0,64-28.654,64-64V64
				C319.279,28.672,290.65,0.043,255.321,0z M301.036,274.286c0.001,2.425-0.961,4.752-2.676,6.467
				c-1.715,1.715-4.041,2.678-6.466,2.676h-9.143v9.143c0.001,2.425-0.961,4.752-2.676,6.467c-1.715,1.715-4.041,2.678-6.467,2.676
				h-36.571c-2.425,0.001-4.752-0.961-6.467-2.676c-1.715-1.715-2.678-4.041-2.676-6.467v-9.143h-9.143
				c-2.425,0.001-4.752-0.961-6.467-2.676c-1.715-1.715-2.678-4.041-2.676-6.467v-36.571c-0.001-2.425,0.961-4.752,2.676-6.467
				c1.715-1.715,4.041-2.678,6.467-2.676h9.143v-9.143c-0.001-2.425,0.961-4.752,2.676-6.467c1.715-1.715,4.041-2.678,6.467-2.676
				h36.571c2.425-0.001,4.752,0.961,6.467,2.676c1.715,1.715,2.678,4.041,2.676,6.467v9.143h9.143
				c2.425-0.001,4.752,0.961,6.466,2.676c1.715,1.715,2.678,4.041,2.676,6.467V274.286z"/>
		</g>
	</g>
</g>
<g>
</g>
<g>
</g>
<g>
</g>
<g>
</g>
<g>
</g>
<g>
</g>
<g>
</g>
<g>
</g>
<g>
</g>
<g>
</g>
<g>
</g>
<g>
</g>
<g>
</g>
<g>
</g>
<g>
</g>
</svg>
