<?xml version="1.0" encoding="iso-8859-1"?>
<!-- Generator: Adobe Illustrator 19.0.0, SVG Export Plug-In . SVG Version: 6.00 Build 0)  -->
<svg version="1.1" id="Capa_1" xmlns="http://www.w3.org/2000/svg" xmlns:xlink="http://www.w3.org/1999/xlink" x="0px" y="0px"
	 viewBox="0 0 509.074 509.074" style="enable-background:new 0 0 509.074 509.074;" xml:space="preserve">
<g>
	<g>
		<g>
			<path d="M9.871,447.658c-13.48,14.402-13.108,36.899,0.839,50.848c14.132,13.517,36.287,13.883,50.857,0.839
				c47.995-85.884,96.313-116.768,119.969-127.393l-44.263-44.268C126.647,351.346,95.759,399.658,9.871,447.658z"/>
			
				<rect x="186.377" y="295.418" transform="matrix(-0.7071 -0.7071 0.7071 -0.7071 134.0214 664.6332)" width="36.567" height="18.284"/>
			
				<rect x="142.225" y="321.28" transform="matrix(-0.7071 -0.7071 0.7071 -0.7071 71.5857 690.4946)" width="73.148" height="18.283"/>
			<path d="M508.991,10.632c0.37-2.742-0.511-5.506-2.401-7.527s-4.588-3.087-7.349-2.901L362.75,0.247
				c-0.567-0.026-1.13-0.045-1.692-0.045c-7.398-0.081-14.52,2.808-19.772,8.018L191.826,162.23
				c-3.458,3.429-5.411,8.092-5.43,12.962c-0.018,4.87,1.899,9.547,5.331,13.003l32.325,32.324l35.344-35.342
				c3.391-3.389,7.61-5.833,12.237-7.089l38.522-10.429c0.452-0.125,0.913-0.215,1.379-0.268c8.282-0.919,16.532,1.977,22.423,7.869
				c5.891,5.893,8.784,14.144,7.863,22.425c-0.051,0.467-0.137,0.93-0.259,1.384l-10.433,38.527
				c-1.254,4.622-3.695,8.836-7.08,12.223l-35.345,35.348l32.323,32.321c7.236,6.911,18.626,6.911,25.862,0l154.21-149.652
				c5.467-5.517,8.336-13.094,7.893-20.848L508.991,10.632z"/>
			<path d="M313.478,232.819l10.219-37.741c0.122-2.571-0.848-5.075-2.67-6.893c-1.798-1.849-4.314-2.821-6.888-2.661
				l-37.737,10.214c-1.541,0.421-2.946,1.236-4.076,2.366l-35.344,35.339l38.795,38.795l35.343-35.348
				C312.248,235.762,313.06,234.358,313.478,232.819z"/>
			<polygon points="204.661,265.774 243.451,304.56 243.455,304.56 243.464,304.569 262.848,285.167 224.052,246.374 			"/>
		</g>
	</g>
</g>
<g>
</g>
<g>
</g>
<g>
</g>
<g>
</g>
<g>
</g>
<g>
</g>
<g>
</g>
<g>
</g>
<g>
</g>
<g>
</g>
<g>
</g>
<g>
</g>
<g>
</g>
<g>
</g>
<g>
</g>
</svg>
