<?xml version="1.0" encoding="iso-8859-1"?>
<!-- Generator: Adobe Illustrator 19.0.0, SVG Export Plug-In . SVG Version: 6.00 Build 0)  -->
<svg version="1.1" id="Capa_1" xmlns="http://www.w3.org/2000/svg" xmlns:xlink="http://www.w3.org/1999/xlink" x="0px" y="0px"
	 viewBox="0 0 511.942 511.942" style="enable-background:new 0 0 511.942 511.942;" xml:space="preserve">
<g>
	<g>
		<g>
			<polygon points="199.549,286.237 186.45,299.331 212.564,325.45 225.661,312.353 212.605,299.295 			"/>
			<path d="M9.96,449.826c-13.599,14.52-13.228,37.21,0.839,51.277c14.067,14.067,36.757,14.438,51.277,0.839
				c48.366-86.553,97.036-117.598,120.808-128.25l-44.674-44.679C127.554,352.79,96.518,401.46,9.96,449.826z"/>
			<polygon points="147.42,312.362 199.549,364.495 212.607,351.433 160.549,299.29 			"/>
			<path d="M482.563,133.37L336.157,279.772c-7.172,7.136-18.761,7.141-25.938,0.009l-19.527-19.536
				c-3.442-3.44-5.376-8.108-5.375-12.974c0.001-4.867,1.936-9.533,5.379-12.972L463.134,61.862l16.272-29.286l-29.379,16.196
				L277.59,221.209c-7.172,7.136-18.761,7.141-25.938,0.009l-19.527-19.535c-3.442-3.44-5.376-8.108-5.375-12.974
				c0.001-4.867,1.936-9.533,5.379-12.972L378.541,29.326L394.817,0.04l-29.384,16.196L212.518,169.147
				c-10.79,10.813-10.79,28.321,0,39.134l19.512,19.511l0.011,0.007l52.058,52.054l0.011,0.016l19.512,19.511
				c10.813,10.786,28.316,10.786,39.13,0l152.92-152.929l16.272-29.286L482.563,133.37z"/>
			<polygon points="206.014,266.754 245.054,305.888 245.067,305.897 264.694,286.31 225.575,247.193 			"/>
		</g>
	</g>
</g>
<g>
</g>
<g>
</g>
<g>
</g>
<g>
</g>
<g>
</g>
<g>
</g>
<g>
</g>
<g>
</g>
<g>
</g>
<g>
</g>
<g>
</g>
<g>
</g>
<g>
</g>
<g>
</g>
<g>
</g>
</svg>
