<?xml version="1.0" encoding="iso-8859-1"?>
<!-- Generator: Adobe Illustrator 19.0.0, SVG Export Plug-In . SVG Version: 6.00 Build 0)  -->
<svg version="1.1" id="Capa_1" xmlns="http://www.w3.org/2000/svg" xmlns:xlink="http://www.w3.org/1999/xlink" x="0px" y="0px"
	 viewBox="0 0 512 512" style="enable-background:new 0 0 512 512;" xml:space="preserve">
<g>
	<g>
		<g>
			<path d="M5.348,480.868c-7.131,7.137-7.131,18.702,0,25.839c7.237,6.889,18.606,6.889,25.844,0l258.445-258.453l-25.84-25.839
				L5.348,480.868z"/>
			<path d="M275.913,171.535l-12.11,12.11c-3.536,3.581-3.536,9.339,0,12.92l6.447,6.447l0.013,0.008l38.768,38.768l0.009,0.013
				l6.451,6.451c3.631,3.411,9.288,3.411,12.92,0l12.108-12.109C312.105,222.805,289.25,199.95,275.913,171.535z"/>
			<path d="M509.326,183.645L328.411,2.725c-3.608-3.464-9.307-3.464-12.915,0c-3.561,3.566-3.563,9.342-0.004,12.911
				l180.919,180.928c3.572,3.554,9.343,3.554,12.915,0l0,0C512.891,192.996,512.891,187.213,509.326,183.645z"/>
			<path d="M315.491,196.564L315.491,196.564c43.911,43.77,114.088,46.441,161.2,6.137L309.359,35.361
				C269.053,82.473,271.723,152.65,315.491,196.564z"/>
		</g>
	</g>
</g>
<g>
</g>
<g>
</g>
<g>
</g>
<g>
</g>
<g>
</g>
<g>
</g>
<g>
</g>
<g>
</g>
<g>
</g>
<g>
</g>
<g>
</g>
<g>
</g>
<g>
</g>
<g>
</g>
<g>
</g>
</svg>
