<?xml version="1.0" encoding="iso-8859-1"?>
<!-- Generator: Adobe Illustrator 19.0.0, SVG Export Plug-In . SVG Version: 6.00 Build 0)  -->
<svg version="1.1" id="Capa_1" xmlns="http://www.w3.org/2000/svg" xmlns:xlink="http://www.w3.org/1999/xlink" x="0px" y="0px"
	 viewBox="0 0 512 512" style="enable-background:new 0 0 512 512;" xml:space="preserve">
<g>
	<g>
		<g>
			<path d="M107.063,207.131c-8.781,8.776-13.714,20.682-13.714,33.097c0,12.415,4.933,24.321,13.714,33.097l65.92,65.829
				l26.331,26.423l39.497,39.497c18.314,18.194,47.88,18.194,66.194,0l19.84-19.931L126.995,187.291L107.063,207.131z"/>
			<path d="M140.16,332.206L8.229,464.137c-10.972,10.987-10.972,28.784,0,39.771c11.136,10.606,28.636,10.606,39.771,0
				l131.931-131.931L160,352.137L140.16,332.206z M36.572,487.543c-0.443,1.114-1.13,2.113-2.011,2.926
				c-1.674,1.732-3.991,2.693-6.4,2.651c-2.432,0.025-4.772-0.931-6.491-2.651c-0.852-0.837-1.535-1.83-2.011-2.926
				c-0.449-1.134-0.666-2.346-0.64-3.566c-0.024-2.405,0.934-4.716,2.651-6.4c0.812-0.881,1.812-1.569,2.926-2.011
				c1.67-0.722,3.521-0.913,5.303-0.549c0.64,0.183,1.189,0.366,1.737,0.549c0.546,0.219,1.067,0.495,1.554,0.823
				c0.516,0.323,0.979,0.724,1.371,1.189c1.743,1.674,2.732,3.983,2.743,6.4C37.299,485.202,37.05,486.415,36.572,487.543z"/>
			<path d="M462.812,207.131l-46.08,46.171c-10.856,10.856-28.458,10.856-39.314,0c-10.856-10.856-10.856-28.458,0-39.314
				l33.006-32.914c3.696-3.714,3.689-9.719-0.016-13.424s-9.71-3.712-13.424-0.016l-6.583,6.583
				c-7.023,7.023-17.259,9.766-26.852,7.195s-17.087-10.064-19.657-19.657c-2.57-9.593,0.172-19.829,7.195-26.852l52.846-52.846
				L324.755,2.88c-3.734-3.657-9.706-3.657-13.44,0l-105.509,105.6l197.851,197.851L489.6,220.48l-13.349-13.349
				C472.518,203.474,466.545,203.474,462.812,207.131z"/>
			<path d="M509.257,187.383L416.823,95.04l-52.846,52.846c-2.428,2.395-3.385,5.908-2.51,9.204c0.875,3.296,3.45,5.871,6.746,6.746
				c3.296,0.875,6.809-0.083,9.204-2.51l6.583-6.583c7.007-7.023,17.227-9.774,26.813-7.218
				c9.585,2.556,17.078,10.032,19.657,19.611s-0.149,19.807-7.155,26.829L390.4,226.971c-1.798,1.755-2.812,4.162-2.812,6.674
				c0,2.513,1.014,4.919,2.812,6.674c3.733,3.658,9.707,3.658,13.44,0l46.08-46.08c5.208-5.224,12.281-8.16,19.657-8.16
				c7.376,0,14.449,2.936,19.657,8.16l13.257,13.257l6.766-6.674C512.914,197.089,512.914,191.116,509.257,187.383z"/>
			
				<rect x="112.193" y="241.164" transform="matrix(-0.7071 -0.7071 0.7071 -0.7071 246.6329 622.1129)" width="279.934" height="37.626"/>
			
				<rect x="145.108" y="217.559" transform="matrix(-0.7071 -0.7071 0.7071 -0.7071 326.095 589.1985)" width="279.934" height="19.007"/>
		</g>
	</g>
</g>
<g>
</g>
<g>
</g>
<g>
</g>
<g>
</g>
<g>
</g>
<g>
</g>
<g>
</g>
<g>
</g>
<g>
</g>
<g>
</g>
<g>
</g>
<g>
</g>
<g>
</g>
<g>
</g>
<g>
</g>
</svg>
