<?xml version="1.0" encoding="iso-8859-1"?>
<!-- Generator: Adobe Illustrator 19.0.0, SVG Export Plug-In . SVG Version: 6.00 Build 0)  -->
<svg version="1.1" id="Capa_1" xmlns="http://www.w3.org/2000/svg" xmlns:xlink="http://www.w3.org/1999/xlink" x="0px" y="0px"
	 viewBox="0 0 512 512" style="enable-background:new 0 0 512 512;" xml:space="preserve">
<g>
	<g>
		<g>
			<path d="M402.286,91.429h27.429V0H320v91.429h27.429c5.049,0,9.143,4.093,9.143,9.143c0,5.049-4.093,9.143-9.143,9.143H320V128
				h9.143c5.049,0,9.143,4.093,9.143,9.143c0,5.049-4.093,9.143-9.143,9.143H320v18.286h9.143c5.049,0,9.143,4.093,9.143,9.143
				s-4.093,9.143-9.143,9.143H320v18.286h27.429c5.049,0,9.143,4.093,9.143,9.143c0,5.049-4.093,9.143-9.143,9.143H320v18.286h9.143
				c5.049,0,9.143,4.093,9.143,9.143c0,5.049-4.093,9.143-9.143,9.143H320v18.286h9.143c5.049,0,9.143,4.093,9.143,9.143
				s-4.093,9.143-9.143,9.143H320v18.286h27.429c5.049,0,9.143,4.093,9.143,9.143c0,5.049-4.093,9.143-9.143,9.143H320v18.286h9.143
				c5.049,0,9.143,4.093,9.143,9.143c0,5.049-4.093,9.143-9.143,9.143H320v23.643l109.714,109.714v-60.214h-27.429
				c-5.049,0-9.143-4.093-9.143-9.143s4.093-9.143,9.143-9.143h27.429v-18.286h-9.143c-5.049,0-9.143-4.093-9.143-9.143
				s4.093-9.143,9.143-9.143h9.143v-18.286h-9.143c-5.049,0-9.143-4.093-9.143-9.143c0-5.049,4.093-9.143,9.143-9.143h9.143v-18.286
				h-27.429c-5.049,0-9.143-4.093-9.143-9.143c0-5.049,4.093-9.143,9.143-9.143h27.429v-18.286h-9.143
				c-5.049,0-9.143-4.093-9.143-9.143s4.093-9.143,9.143-9.143h9.143V256h-9.143c-5.049,0-9.143-4.093-9.143-9.143
				c0-5.049,4.093-9.143,9.143-9.143h9.143v-18.286h-27.429c-5.049,0-9.143-4.093-9.143-9.143c0-5.049,4.093-9.143,9.143-9.143
				h27.429v-18.286h-9.143c-5.049,0-9.143-4.093-9.143-9.143s4.093-9.143,9.143-9.143h9.143v-18.286h-9.143
				c-5.049,0-9.143-4.093-9.143-9.143c0-5.049,4.093-9.143,9.143-9.143h9.143v-18.286h-27.429c-5.049,0-9.143-4.093-9.143-9.143
				C393.143,95.522,397.236,91.429,402.286,91.429z M374.857,73.143c-15.148,0-27.429-12.28-27.429-27.429
				s12.28-27.429,27.429-27.429c15.148,0,27.429,12.28,27.429,27.429C402.269,60.856,389.999,73.126,374.857,73.143z"/>
			<circle cx="374.857" cy="45.714" r="9.143"/>
			<path d="M82.286,402.286V512h334.5L307.071,402.286H82.286z M256,484.571H109.714c-5.049,0-9.143-4.093-9.143-9.143
				s4.093-9.143,9.143-9.143H256c5.049,0,9.143,4.093,9.143,9.143S261.049,484.571,256,484.571z M256,448H109.714
				c-5.049,0-9.143-4.093-9.143-9.143c0-5.049,4.093-9.143,9.143-9.143H256c5.049,0,9.143,4.093,9.143,9.143
				C265.143,443.907,261.049,448,256,448z M331.794,478.08c3.666-3.384,9.316-3.384,12.982,0c0.393,0.432,0.758,0.888,1.094,1.366
				c0.347,0.511,0.625,1.067,0.826,1.652c0.262,0.518,0.447,1.071,0.549,1.643c0.105,0.605,0.167,1.217,0.183,1.831
				c-0.015,1.194-0.263,2.374-0.732,3.473c-0.466,1.107-1.115,2.127-1.92,3.018c-0.889,0.807-1.91,1.456-3.018,1.92
				c-2.214,0.976-4.737,0.976-6.951,0c-2.294-0.836-4.101-2.643-4.937-4.937c-0.467-1.099-0.715-2.279-0.728-3.474
				C329.158,482.147,330.108,479.822,331.794,478.08z M310.125,488.045c-0.466,1.107-1.115,2.127-1.92,3.018
				c-3.605,3.536-9.377,3.536-12.982,0c-0.807-0.89-1.458-1.91-1.924-3.018c-0.467-1.099-0.714-2.279-0.727-3.473
				c0.034-2.421,0.981-4.739,2.651-6.491c0.434-0.394,0.891-0.761,1.371-1.098c0.508-0.347,1.061-0.623,1.643-0.821
				c0.519-0.264,1.074-0.45,1.647-0.554c3.012-0.598,6.125,0.328,8.322,2.473c1.669,1.753,2.616,4.071,2.651,6.491
				C310.842,485.766,310.594,486.946,310.125,488.045z M310.125,444.527L310.125,444.527c0.976,2.212,0.976,4.733,0,6.946
				c-0.466,1.107-1.115,2.127-1.92,3.018c-0.909,0.805-1.925,1.481-3.018,2.009c-3.428,1.337-7.321,0.553-9.964-2.008
				c-0.807-0.89-1.458-1.91-1.924-3.018c-0.97-2.214-0.97-4.733,0-6.946c0.464-1.109,1.115-2.13,1.924-3.018
				c3.666-3.384,9.316-3.384,12.982,0C309.012,442.398,309.661,443.419,310.125,444.527z"/>
		</g>
	</g>
</g>
<g>
</g>
<g>
</g>
<g>
</g>
<g>
</g>
<g>
</g>
<g>
</g>
<g>
</g>
<g>
</g>
<g>
</g>
<g>
</g>
<g>
</g>
<g>
</g>
<g>
</g>
<g>
</g>
<g>
</g>
</svg>
