<?xml version="1.0" encoding="iso-8859-1"?>
<!-- Generator: Adobe Illustrator 19.0.0, SVG Export Plug-In . SVG Version: 6.00 Build 0)  -->
<svg version="1.1" id="Capa_1" xmlns="http://www.w3.org/2000/svg" xmlns:xlink="http://www.w3.org/1999/xlink" x="0px" y="0px"
	 viewBox="0 0 511.238 511.238" style="enable-background:new 0 0 511.238 511.238;" xml:space="preserve">
<g>
	<g>
		<g>
			<path d="M431.008,0l-17.02,16.971l29.859,8.145c7.271,1.951,12.597,8.168,13.411,15.652l2.406,21.665l47.264-47.263L431.008,0z"
				/>
			<path d="M284.981,162.83c-2.452-0.004-4.804,0.97-6.536,2.705l-58.491,58.5c-3.607,3.611-3.607,9.461,0,13.071l13,13
				c3.609,3.603,9.454,3.603,13.063,0l58.5-58.5c3.607-3.611,3.607-9.461,0-13.071l-13-13
				C289.785,163.8,287.433,162.826,284.981,162.83z"/>
			<path d="M90.025,458.026l-25.99-25.994l-0.009-0.006l-12.996-13l-32.112-32.115C8.913,400.052,3.767,416.252,4.356,432.759
				c1.652,42.617,35.821,76.785,78.438,78.438c16.503,0.564,32.695-4.579,45.848-14.562l-38.589-38.589L90.025,458.026z"/>
			<polygon points="317.481,165.65 395.517,87.607 382.517,74.544 304.414,152.582 304.445,152.607 317.445,165.607 			"/>
			<polygon points="206.99,249.991 57.427,399.562 70.494,412.629 220.06,263.063 220.026,263.035 207.026,250.035 			"/>
			<path d="M378.722,26.303L31.427,373.562l13.071,13.071L199.115,232.01c-0.459-7.776,2.418-15.379,7.911-20.903l58.491-58.5
				c5.523-5.336,13.025-8.121,20.692-7.682l83.307-83.309c3.426-3.445,8.088-5.377,12.946-5.366h0.018
				c4.865-0.014,9.533,1.918,12.965,5.366l13,13c7.143,7.164,7.143,18.756,0,25.92l-83.079,83.088
				c0.026,0.488,0.142,0.956,0.142,1.448c0.02,7.305-2.883,14.313-8.063,19.464l-58.5,58.5c-5.159,5.165-12.164,8.06-19.464,8.045
				c-0.483,0-0.96-0.113-1.442-0.138L83.423,425.558l53.608,53.608c9.184-34.359,34.317-115.391,76.494-157.568L444.392,90.732
				l-5.312-47.937L378.722,26.303z"/>
		</g>
	</g>
</g>
<g>
</g>
<g>
</g>
<g>
</g>
<g>
</g>
<g>
</g>
<g>
</g>
<g>
</g>
<g>
</g>
<g>
</g>
<g>
</g>
<g>
</g>
<g>
</g>
<g>
</g>
<g>
</g>
<g>
</g>
</svg>
