<?xml version="1.0" encoding="iso-8859-1"?>
<!-- Generator: Adobe Illustrator 19.0.0, SVG Export Plug-In . SVG Version: 6.00 Build 0)  -->
<svg version="1.1" id="Capa_1" xmlns="http://www.w3.org/2000/svg" xmlns:xlink="http://www.w3.org/1999/xlink" x="0px" y="0px"
	 viewBox="0 0 512 512" style="enable-background:new 0 0 512 512;" xml:space="preserve">
<g>
	<g>
		<g>
			<path d="M313.875,153.417l20.48-6.857c-3.243-6.972-5.224-14.463-5.853-22.126l-21.85,7.314L313.875,153.417z"/>
			<path d="M296.594,159.269l-10.147-30.446l-3.932-11.794l-6.584,1.28c-2.405,0.476-4.521,1.893-5.877,3.936
				s-1.84,4.542-1.345,6.944c2.576,12.243-3.284,24.708-14.354,30.537c-27.795,14.263-97.738,52.663-147.658,102.674L2.743,366.263
				C0.988,367.986,0,370.341,0,372.8c0,2.459,0.988,4.814,2.743,6.537c1.704,1.754,4.046,2.743,6.491,2.743
				c2.445,0,4.787-0.99,6.491-2.743l123.429-123.429C143.086,252.526,220.525,187.52,296.594,159.269z"/>
			<polygon points="328.502,124.434 328.502,124.434 328.503,124.434 			"/>
			<path d="M256.549,372.206L132.663,496.274c-1.753,1.705-2.743,4.046-2.743,6.491s0.989,4.787,2.743,6.491
				c1.723,1.754,4.078,2.743,6.537,2.743c2.459,0,4.814-0.988,6.537-2.743L249.6,405.303
				c50.011-49.92,88.411-119.863,102.674-147.657c5.647-10.925,17.828-16.811,29.897-14.446c2.476,0.617,5.095,0.207,7.264-1.135
				c2.169-1.343,3.704-3.505,4.256-5.996l1.28-6.491l-42.239-14.171C324.48,291.474,259.474,368.823,256.549,372.206z"/>
			<path d="M365.44,177.646l-6.857,20.48l21.67,7.223l7.313-21.851C379.903,182.869,372.412,180.888,365.44,177.646z"/>
			<path d="M422.377,80.503c0-2.418,0.962-4.738,2.674-6.446L451.11,48h-0.091c-2.346-2.314-3.272-5.707-2.427-8.891
				c0.845-3.185,3.332-5.672,6.517-6.517s6.578,0.08,8.892,2.426v0.091L496.549,2.56L493.989,0l-64.366,21.486
				c-4.073,1.341-7.77,3.628-10.788,6.674l-58.789,58.789c-17.951,17.951-17.951,47.055,0,65.006
				c17.951,17.951,47.055,17.951,65.005,0c17.951-17.951,17.951-47.055,0-65.006C423.34,85.241,422.377,82.921,422.377,80.503z
				 M411.978,138.88v0.091c-7.888,7.836-19.71,10.166-29.982,5.91s-16.98-14.266-17.014-25.384
				c-0.006-7.32,2.926-14.335,8.138-19.474c10.856-10.423,28.002-10.423,38.857,0C422.704,110.755,422.704,128.148,411.978,138.88z"
				/>
			<path d="M509.44,15.452L476.983,48c3.567,3.593,3.567,9.39,0,12.983c-3.605,3.535-9.377,3.535-12.982,0l-20.114,20.023
				c8.521,11.321,13.054,25.145,12.891,39.314l27.063-27.154c3.047-3.018,5.335-6.715,6.675-10.789L512,18.012L509.44,15.452z"/>
			<path d="M392.503,110.263L392.503,110.263C392.503,110.263,392.503,110.263,392.503,110.263
				C392.503,110.263,392.502,110.263,392.503,110.263L392.503,110.263c-2.433-0.025-4.773,0.931-6.492,2.651
				c-1.748,1.746-2.734,4.112-2.743,6.583c0,2.432,0.979,4.762,2.716,6.465c1.737,1.703,4.086,2.635,6.518,2.587c0,0,0,0,0,0
				s0,0,0,0c2.445,0.042,4.809-0.877,6.584-2.56c1.72-1.719,2.676-4.059,2.651-6.491c0.049-2.464-0.908-4.841-2.651-6.583
				C397.344,111.172,394.967,110.214,392.503,110.263z"/>
		</g>
	</g>
</g>
<g>
</g>
<g>
</g>
<g>
</g>
<g>
</g>
<g>
</g>
<g>
</g>
<g>
</g>
<g>
</g>
<g>
</g>
<g>
</g>
<g>
</g>
<g>
</g>
<g>
</g>
<g>
</g>
<g>
</g>
</svg>
