<?xml version="1.0" encoding="iso-8859-1"?>
<!-- Generator: Adobe Illustrator 19.0.0, SVG Export Plug-In . SVG Version: 6.00 Build 0)  -->
<svg version="1.1" id="Capa_1" xmlns="http://www.w3.org/2000/svg" xmlns:xlink="http://www.w3.org/1999/xlink" x="0px" y="0px"
	 viewBox="0 0 511.99 511.99" style="enable-background:new 0 0 511.99 511.99;" xml:space="preserve">
<g>
	<g>
		<g>
			<path d="M122.972,480.452c-3.529,3.431-5.51,8.152-5.486,13.074c-0.008,4.946,1.968,9.689,5.486,13.166
				c7.367,6.949,18.873,6.949,26.24,0l150.217-150.217l-26.24-26.24L122.972,480.452z"/>
			<path d="M249.143,171.698c13.002-13.057,30.977-19.914,49.371-18.834l1.737,0.091v-1.189c-0.091-1.554-0.091-3.017-0.091-4.571
				c0-1.097,0-2.194,0.091-3.2c0.087-1.716,0.27-3.425,0.549-5.12c0.091-0.914,0.183-1.829,0.274-2.651
				c0.438-2.439,1.018-4.851,1.737-7.223c0.073-0.107,0.105-0.237,0.091-0.366c0.823-2.56,1.737-4.937,2.743-7.314
				c0.091-0.091,0.091-0.274,0.183-0.366l-15.726-2.926c-3.911-0.802-7.894-1.201-11.886-1.189
				c-17.158,0.023-33.603,6.864-45.714,19.017l-63.909,63.909l26.24,26.24L249.143,171.698z"/>
			<path d="M155.612,212.658L5.394,362.875C1.938,366.386,0,371.114,0,376.041c-0.016,4.903,1.926,9.609,5.394,13.074
				c7.33,7.04,18.91,7.04,26.24,0l150.217-150.217L155.612,212.658z"/>
			<path d="M351.634,84.384c2.797-0.626,5.641-1.023,8.503-1.189h1.92c1.92-0.091,3.932-0.183,5.943-0.091l-4.114-22.217
				c-1.602-8.827,1.156-17.884,7.406-24.32l-18.834-18.834c-2.808,4.947-4.14,10.594-3.84,16.274L351.634,84.384z"/>
			<path d="M403.017,23.675l32.823,8.137c3.407,0.882,6.981-0.645,8.699-3.717c1.718-3.071,1.15-6.915-1.385-9.358
				c-0.884-0.838-1.947-1.463-3.109-1.829l-44.8-14.903c-3.739-1.273-7.662-1.922-11.611-1.92
				c-6.356,0.08-12.586,1.779-18.103,4.937l20.206,20.206C391.175,22.846,397.242,22.3,403.017,23.675z"/>
			<path d="M397.257,114.829c-5.597-5.666-12.603-9.737-20.297-11.794c0-0.091-0.091-0.091-0.183-0.091
				c-2.219-0.602-4.481-1.03-6.766-1.28c-0.823-0.091-1.554-0.091-2.377-0.183c-1.371-0.091-2.834-0.091-4.297-0.091
				c-1.92,0.091-3.84,0.366-5.76,0.64c-0.914,0.091-1.829,0.183-2.743,0.366c-2.775,0.6-5.497,1.425-8.137,2.469
				c-5.547,2.311-10.581,5.698-14.811,9.966c-1.504,1.465-2.88,3.056-4.114,4.754c-8.798,11.607-11.641,26.67-7.68,40.686
				c4.454,15.305,16.421,27.271,31.726,31.726c13.902,3.958,28.855,1.184,40.411-7.497c1.802-1.279,3.485-2.717,5.029-4.297
				c4.269-4.21,7.63-9.251,9.874-14.811c4.034-9.579,4.743-20.234,2.011-30.263C407.015,127.442,402.918,120.446,397.257,114.829z
				 M389.943,158.167c-1.327,3.323-3.318,6.341-5.851,8.869c-0.6,0.656-1.275,1.239-2.011,1.737l-1.371,1.006
				c-4.675,3.479-10.356,5.34-16.183,5.303c-2.595,0.032-5.181-0.307-7.68-1.006c-9.08-2.708-16.17-9.833-18.834-18.926
				c-2.389-8.273-0.728-17.188,4.48-24.046l0.731-1.097c0.528-0.684,1.109-1.326,1.737-1.92c2.482-2.568,5.471-4.592,8.777-5.943
				c5.757-2.439,12.169-2.858,18.194-1.189c4.6,1.241,8.793,3.669,12.16,7.04c3.353,3.294,5.753,7.432,6.949,11.977
				C392.792,145.981,392.404,152.412,389.943,158.167z"/>
			<path d="M391.132,206.258c-1.28,0.549-2.56,1.006-3.932,1.463c-1.044,0.482-2.112,0.909-3.2,1.28
				c-2.87,0.916-5.804,1.619-8.777,2.103c-0.823,0.091-1.554,0.183-2.377,0.274c-2.395,0.323-4.807,0.506-7.223,0.549
				c-0.366,0-0.731,0.091-1.189,0.091c-0.795-0.015-1.589-0.076-2.377-0.183c-1.006,0-2.011,0.091-2.925,0l0.091,1.737
				c1.01,18.384-5.836,36.331-18.834,49.371l-54.309,54.309l26.24,26.24l63.909-63.909c15.159-15.036,21.843-36.629,17.829-57.6
				L391.132,206.258z"/>
			<path d="M510.08,116.841l-14.903-44.983c-0.411-1.086-1.032-2.081-1.829-2.926c-3.043-3.049-7.97-3.09-11.063-0.091
				c-1.949,1.93-2.717,4.755-2.011,7.406l8.137,32.823c1.376,5.776,0.83,11.842-1.554,17.28l20.389,20.297
				C512.364,137.559,513.394,126.73,510.08,116.841z"/>
			<path d="M451.292,148.201l-22.309-4.114c0.091,2.011,0,3.931-0.091,5.943v1.92c-0.165,2.862-0.562,5.705-1.188,8.503
				l50.377,3.017c5.681,0.311,11.331-1.022,16.274-3.84l-18.834-18.834C469.113,147.03,460.09,149.789,451.292,148.201z"/>
			<path d="M371.109,140.978c-1.081-1.167-2.479-1.993-4.023-2.377c-2.088-0.626-4.333-0.464-6.309,0.457
				c-1.069,0.433-2.035,1.088-2.834,1.92l-0.823,1.097c-1.74,2.331-2.282,5.346-1.463,8.137c0.38,1.498,1.171,2.86,2.286,3.931
				c3.23,3.196,8.299,3.583,11.977,0.914l1.463-1.098c2.203-2.497,2.963-5.952,2.011-9.143
				C373.033,143.338,372.237,142.001,371.109,140.978z"/>
		</g>
	</g>
</g>
<g>
</g>
<g>
</g>
<g>
</g>
<g>
</g>
<g>
</g>
<g>
</g>
<g>
</g>
<g>
</g>
<g>
</g>
<g>
</g>
<g>
</g>
<g>
</g>
<g>
</g>
<g>
</g>
<g>
</g>
</svg>
