<?xml version="1.0" encoding="iso-8859-1"?>
<!-- Generator: Adobe Illustrator 19.0.0, SVG Export Plug-In . SVG Version: 6.00 Build 0)  -->
<svg version="1.1" id="Capa_1" xmlns="http://www.w3.org/2000/svg" xmlns:xlink="http://www.w3.org/1999/xlink" x="0px" y="0px"
	 viewBox="0 0 511.982 511.982" style="enable-background:new 0 0 511.982 511.982;" xml:space="preserve">
<g>
	<g>
		<g>
			<path d="M192.471,241.19c55.406-46.08,91.886-66.743,108.617-74.88c7.313-3.613,13.984-8.4,19.749-14.171l19.109-19.109
				c-0.183-0.366-0.274-0.731-0.457-1.189c-0.64-1.646-1.28-3.383-1.829-5.12c-0.255-0.719-0.469-1.451-0.64-2.194
				c-0.457-1.463-0.823-2.926-1.189-4.48c-0.183-0.823-0.274-1.646-0.457-2.469c-0.274-1.463-0.457-2.834-0.64-4.297
				c-0.183-0.914-0.274-1.829-0.366-2.743c-0.091-1.371-0.183-2.743-0.183-4.114c0-0.64-0.091-1.28-0.091-1.829l-22.309,9.509
				c-10.397,4.393-22.417,2.083-30.446-5.851l-17.371-17.371l-4.023,3.84c-5.436,5.681-6.75,14.15-3.291,21.211
				c7.245,13.321,4.823,29.825-5.943,40.503c-14.022,12.498-28.767,24.16-44.16,34.926c-32.897,23.298-64.148,48.837-93.531,76.434
				C69.957,310.858,17.842,374.401,0.562,423.59c-1.068,3.364-0.148,7.043,2.377,9.509c1.134,1.155,2.679,1.812,4.297,1.829h0.091
				c1.513,0.042,2.973-0.555,4.023-1.646c0.183-0.274,0.549-0.64,0.914-1.098C37.408,401.83,126.368,296.23,192.471,241.19z"/>
			<path d="M444.791,58.195c0-2.418,0.962-4.738,2.674-6.446l45.44-45.349c-6.329-4.229-13.783-6.459-21.394-6.4h-0.091
				c-38.034,0-85.029,46.994-102.766,64.64c-17.423,17.471-21.325,44.301-9.6,66.011c5.181,9.479,12.992,17.258,22.491,22.4v0.091
				c2.849,1.49,5.815,2.744,8.869,3.749c9.128,3.054,18.887,3.715,28.343,1.92c20.235-3.947,36.64-18.739,42.651-38.459
				c6.012-19.72,0.649-41.148-13.943-55.712C445.753,62.933,444.791,60.614,444.791,58.195z M434.208,130.195
				c-10.581,10.543-26.465,13.685-40.264,7.966c-13.798-5.719-22.802-19.178-22.822-34.114
				c-0.009-14.952,9.002-28.433,22.822-34.142c13.82-5.708,29.718-2.516,40.263,8.084c6.936,6.916,10.834,16.308,10.834,26.103
				S441.144,123.279,434.208,130.195z"/>
			<path d="M398.094,200.321l9.509-22.217c-2.691-0.004-5.379-0.187-8.046-0.549c-0.731-0.091-1.463-0.274-2.286-0.366
				c-2.011-0.274-4.023-0.64-5.943-1.097c-1.006-0.183-1.92-0.457-2.926-0.731c-1.829-0.549-3.566-1.097-5.303-1.737
				c-0.914-0.274-1.829-0.64-2.743-1.006c-0.44-0.111-0.869-0.264-1.28-0.457L360.06,191.27c-5.808,5.733-10.6,12.411-14.171,19.749
				c-20.689,38.993-45.849,75.445-74.971,108.617c-55.04,66.194-160.64,155.063-191.634,180.754c-1.326,1.111-2.095,2.75-2.103,4.48
				c0.016,1.618,0.674,3.164,1.829,4.297c2.466,2.526,6.145,3.445,9.509,2.377c49.189-17.28,112.731-69.394,155.794-112.457
				c27.627-29.382,53.196-60.634,76.526-93.531c10.784-15.349,22.446-30.063,34.926-44.069
				c10.631-10.858,27.201-13.289,40.503-5.943c7.056,3.392,15.476,2.043,21.12-3.383l3.931-3.84v-0.183l-17.371-17.371
				C395.954,222.769,393.636,210.712,398.094,200.321z"/>
			<path d="M505.797,19.384l-39.314,39.314c10.137,12.942,15.641,28.909,15.634,45.349c0.015,0.459-0.015,0.918-0.091,1.371
				C503.42,78.355,521.797,44.527,505.797,19.384z"/>
			<path d="M408.06,85.395c-4.941,0.017-9.674,1.989-13.166,5.486c-3.512,3.5-5.486,8.254-5.486,13.211s1.974,9.712,5.486,13.211
				c5.987,5.975,15.241,7.182,22.56,2.944c7.32-4.238,10.879-12.865,8.678-21.031C423.93,91.05,416.518,85.381,408.06,85.395z"/>
		</g>
	</g>
</g>
<g>
</g>
<g>
</g>
<g>
</g>
<g>
</g>
<g>
</g>
<g>
</g>
<g>
</g>
<g>
</g>
<g>
</g>
<g>
</g>
<g>
</g>
<g>
</g>
<g>
</g>
<g>
</g>
<g>
</g>
</svg>
