<?xml version="1.0" encoding="iso-8859-1"?>
<!-- Generator: Adobe Illustrator 19.0.0, SVG Export Plug-In . SVG Version: 6.00 Build 0)  -->
<svg version="1.1" id="Capa_1" xmlns="http://www.w3.org/2000/svg" xmlns:xlink="http://www.w3.org/1999/xlink" x="0px" y="0px"
	 viewBox="0 0 511.997 511.997" style="enable-background:new 0 0 511.997 511.997;" xml:space="preserve">
<g>
	<g>
		<g>
			<path d="M434.329,165.785c2.418,0,4.738-0.962,6.446-2.674l0.183-0.091l26.24-26.24l0.183-0.183c3.566-3.593,3.566-9.39,0-12.983
				l-13.349-13.349l-39.589,39.497l13.44,13.349C429.591,164.823,431.91,165.785,434.329,165.785z"/>
			<path d="M240.363,240.826l-10.971-27.063l-24.046-9.509c-6.884-2.744-14.743-1.086-19.931,4.206l-14.354,14.354
				c-4.262,4.244-9.093,7.875-14.354,10.789l-48.823,27.154c-1.498,0.857-2.881,1.901-4.114,3.109L5.483,362.151
				C1.33,366.336-0.632,372.22,0.18,378.06l2.194,14.994l109.074-97.463c2.107-1.864,4.48-3.405,7.04-4.571l108.251-48.183
				C231.055,241.089,235.726,240.399,240.363,240.826z"/>
			<path d="M346.146,77.671c0,2.432,0.99,4.759,2.743,6.446l13.349,13.44l39.497-39.589L388.386,44.62
				c-3.605-3.536-9.378-3.536-12.983,0l-26.514,26.606C347.136,72.912,346.146,75.239,346.146,77.671z"/>
			<path d="M506.511,188.986l-32.823-32.823L460.34,169.42l19.749,19.749c3.468,3.449,5.417,8.138,5.417,13.029
				s-1.95,9.58-5.417,13.029l-61.166,61.257c-5.199,5.14-12.93,6.751-19.749,4.114l-97.097-38.217l10.331,26.24l88.594,36.114
				c6.931,2.853,14.896,1.267,20.206-4.023l85.303-85.303c3.512-3.5,5.485-8.254,5.485-13.211S510.023,192.485,506.511,188.986z"/>
			<path d="M144.271,299.614c13.586,30.288,37.827,54.528,68.114,68.114l7.589-17.006c-12.865-5.932-24.592-14.07-34.651-24.046
				c-9.976-10.059-18.114-21.787-24.046-34.651L144.271,299.614z"/>
			<path d="M296.957,279.226c0-0.091,0-0.091-0.091-0.091l-65.463-166.217c-2.693-6.814-1.076-14.577,4.114-19.749l61.257-61.257
				c3.449-3.468,8.138-5.417,13.029-5.417s9.58,1.95,13.029,5.417L342.58,51.66l13.257-13.349L323.014,5.488
				c-3.5-3.512-8.254-5.485-13.211-5.485s-9.712,1.974-13.211,5.485L211.38,90.791c-5.355,5.271-6.982,13.261-4.114,20.206
				l37.394,91.886c0.091,0.091,0.091,0.183,0.183,0.274l24.594,60.434c2.808,6.976,2.676,14.791-0.366,21.669l-28.434,64
				l-19.657,44.069c-1.116,2.643-2.661,5.083-4.571,7.223l-97.554,108.891l15.177,2.377c5.811,0.796,11.661-1.165,15.817-5.303
				l98.286-98.286c1.242-1.203,2.29-2.591,3.109-4.114l27.154-48.823c2.952-5.237,6.579-10.063,10.789-14.354l14.354-14.354
				c5.302-5.221,6.959-13.11,4.206-20.023L296.957,279.226z"/>
		</g>
	</g>
</g>
<g>
</g>
<g>
</g>
<g>
</g>
<g>
</g>
<g>
</g>
<g>
</g>
<g>
</g>
<g>
</g>
<g>
</g>
<g>
</g>
<g>
</g>
<g>
</g>
<g>
</g>
<g>
</g>
<g>
</g>
</svg>
