<?xml version="1.0" encoding="iso-8859-1"?>
<!-- Generator: Adobe Illustrator 19.0.0, SVG Export Plug-In . SVG Version: 6.00 Build 0)  -->
<svg version="1.1" id="Capa_1" xmlns="http://www.w3.org/2000/svg" xmlns:xlink="http://www.w3.org/1999/xlink" x="0px" y="0px"
	 viewBox="0 0 508.728 508.728" style="enable-background:new 0 0 508.728 508.728;" xml:space="preserve">
<g>
	<g>
		<path d="M479.654,99.924c-13.861,6.485-30.355,0.51-36.846-13.349l-9.143-19.474c-6.405-13.864-0.45-30.301,13.349-36.846
			l31.909-14.903c-18.844-8.212-40.677-5.389-56.813,7.344c-16.136,12.733-23.958,33.311-20.353,53.548
			c0.046,0.272,0.046,0.55,0,0.823c0.046,0.609,0.046,1.22,0,1.829c-0.068,0.559-0.191,1.11-0.366,1.646
			c-0.173,0.563-0.387,1.113-0.64,1.646c-0.313,0.525-0.681,1.015-1.097,1.463c-0.183,0.274-0.183,0.549-0.457,0.731L91.356,392.313
			c-0.183,0.091-0.274,0.091-0.366,0.183c-0.527,0.397-1.076,0.763-1.646,1.097c-0.437,0.279-0.896,0.524-1.371,0.731
			c-0.557,0.209-1.143,0.332-1.737,0.366c-0.447,0.135-0.907,0.227-1.371,0.274c-0.091,0-0.274-0.091-0.366-0.091
			c-0.525-0.047-1.045-0.139-1.554-0.274c-0.651-0.14-1.293-0.323-1.92-0.549c-0.107-0.073-0.237-0.105-0.366-0.091
			c-22.78-11.882-50.748-6.46-67.438,13.074c-16.69,19.534-17.682,48.004-2.391,68.652c15.291,20.647,42.813,28.002,66.365,17.734
			c23.552-10.268,36.894-35.438,32.172-60.694c0.046-0.272,0.046-0.55,0-0.823c-0.015-0.641,0.015-1.283,0.091-1.92
			c0.002-0.56,0.095-1.115,0.274-1.646c0.206-0.535,0.451-1.054,0.731-1.554c0.248-0.57,0.588-1.095,1.006-1.554
			c0.173-0.23,0.326-0.475,0.457-0.731l2.103-2.103l305.28-305.28c0.091-0.091,0.183-0.091,0.366-0.183
			c0.565-0.529,1.214-0.962,1.92-1.28c0.347-0.219,0.714-0.403,1.097-0.549c0.645-0.248,1.322-0.402,2.011-0.457
			c0.457,0,0.914-0.091,1.463-0.091c0.624,0.033,1.24,0.156,1.829,0.366c0.542,0.055,1.069,0.21,1.554,0.457
			c0.183,0.091,0.366,0.091,0.549,0.183c14.137,7.651,30.889,8.824,45.955,3.218c15.066-5.606,26.976-17.444,32.674-32.475
			L479.654,99.924z M68.225,455.856c-7.17,7.17-18.795,7.17-25.966,0s-7.17-18.795,0-25.966s18.795-7.17,25.966,0
			c3.466,3.431,5.417,8.106,5.417,12.983C73.642,447.75,71.691,452.425,68.225,455.856z"/>
	</g>
</g>
<g>
</g>
<g>
</g>
<g>
</g>
<g>
</g>
<g>
</g>
<g>
</g>
<g>
</g>
<g>
</g>
<g>
</g>
<g>
</g>
<g>
</g>
<g>
</g>
<g>
</g>
<g>
</g>
<g>
</g>
</svg>
