<?xml version="1.0" encoding="iso-8859-1"?>
<!-- Generator: Adobe Illustrator 19.0.0, SVG Export Plug-In . SVG Version: 6.00 Build 0)  -->
<svg version="1.1" id="Capa_1" xmlns="http://www.w3.org/2000/svg" xmlns:xlink="http://www.w3.org/1999/xlink" x="0px" y="0px"
	 viewBox="0 0 505.089 505.089" style="enable-background:new 0 0 505.089 505.089;" xml:space="preserve">
<g>
	<g>
		<path d="M476.138,98.366c-6.656,3.106-14.274,3.44-21.176,0.928c-6.902-2.512-12.524-7.663-15.627-14.321l-9.076-19.384
			c-6.365-13.834-0.439-30.216,13.304-36.777l31.786-14.786c-18.775-8.173-40.524-5.352-56.592,7.341
			c-16.068,12.693-23.848,33.198-20.243,53.355c0.05,0.273-0.04,0.527-0.016,0.797c0.194,2.397-0.549,4.775-2.073,6.635
			c-0.175,0.209-0.245,0.469-0.443,0.666L89.161,389.643c-2.861,2.859-7.258,3.501-10.817,1.58
			c-14.077-7.598-30.745-8.766-45.744-3.205S5.722,405.33,0,420.268l28.951-13.545c6.656-3.106,14.274-3.44,21.176-0.928
			c6.902,2.512,12.524,7.663,15.627,14.321L74.83,439.5c6.365,13.834,0.439,30.216-13.304,36.777l-31.786,14.786
			c18.775,8.173,40.524,5.352,56.592-7.341c16.068-12.693,23.848-33.198,20.243-53.355c-0.536-2.955,0.412-5.984,2.536-8.107
			l306.817-306.813c0.127-0.127,0.297-0.167,0.429-0.285c0.471-0.39,0.982-0.729,1.524-1.012c1.461-0.985,3.216-1.441,4.971-1.291
			c0.53,0.055,1.054,0.157,1.566,0.305c0.63,0.118,1.245,0.304,1.835,0.555c0.16,0.074,0.334,0.064,0.492,0.148
			c21.592,11.831,48.412,7.914,65.719-9.598c5.534-5.518,9.837-12.146,12.625-19.447L476.138,98.366z"/>
	</g>
</g>
<g>
</g>
<g>
</g>
<g>
</g>
<g>
</g>
<g>
</g>
<g>
</g>
<g>
</g>
<g>
</g>
<g>
</g>
<g>
</g>
<g>
</g>
<g>
</g>
<g>
</g>
<g>
</g>
<g>
</g>
</svg>
