<?xml version="1.0" encoding="iso-8859-1"?>
<!-- Generator: Adobe Illustrator 19.0.0, SVG Export Plug-In . SVG Version: 6.00 Build 0)  -->
<svg version="1.1" id="Capa_1" xmlns="http://www.w3.org/2000/svg" xmlns:xlink="http://www.w3.org/1999/xlink" x="0px" y="0px"
	 viewBox="0 0 512 512" style="enable-background:new 0 0 512 512;" xml:space="preserve">
<g>
	<g>
		<g>
			
				<rect x="294.138" y="257.712" transform="matrix(-0.7071 -0.7071 0.7071 -0.7071 316.0751 701.2947)" width="18.286" height="54.949"/>
			
				<rect x="358.977" y="322.516" transform="matrix(-0.7071 -0.7071 0.7071 -0.7071 380.9382 857.7714)" width="18.286" height="54.949"/>
			<polygon points="238.491,285.166 251.474,272.183 212.617,233.326 199.543,246.309 219.017,265.691 			"/>
			<polygon points="286.537,255.954 273.646,268.846 282.697,278.08 295.68,265.097 			"/>
			
				<rect x="227.179" y="216.31" transform="matrix(0.7071 0.7071 -0.7071 0.7071 237.2969 -112.7253)" width="55.082" height="27.541"/>
			<polygon points="294.354,224.366 311.634,189.714 294.994,173.166 260.434,190.446 264.731,194.834 			"/>
			<polygon points="346.743,342.126 359.726,329.143 322.697,291.566 309.714,304.64 			"/>
			<path d="M30.491,426.697c-4.388,4.431-4.388,11.569,0,16c2.108,2.113,4.971,3.297,7.955,3.291h77.623l-69.029-35.84
				L30.491,426.697z"/>
			<path d="M230.354,302.903L186.651,259.2L53.166,392.777l170.606,88.594l43.429-43.429L230.354,302.903z M180.16,291.657
				c3.593-3.566,9.39-3.566,12.983,0l6.491,6.491c1.712,1.708,2.674,4.027,2.674,6.446s-0.962,4.738-2.674,6.446
				c-1.716,1.737-4.05,2.723-6.491,2.743c-2.445-0.003-4.785-0.991-6.491-2.743l-6.491-6.491c-1.712-1.708-2.674-4.027-2.674-6.446
				S178.448,293.365,180.16,291.657z M147.794,362.88c-1.716,1.737-4.05,2.723-6.491,2.743c-2.445-0.002-4.785-0.991-6.491-2.743
				l-6.491-6.491c-1.712-1.708-2.675-4.027-2.675-6.446s0.962-4.738,2.675-6.446c3.593-3.565,9.39-3.565,12.983,0l6.491,6.491
				c1.712,1.708,2.674,4.027,2.674,6.446S149.506,361.172,147.794,362.88z M154.286,330.514c-1.712-1.708-2.675-4.027-2.675-6.446
				s0.962-4.738,2.675-6.446c1.686-1.753,4.014-2.743,6.446-2.743s4.759,0.99,6.446,2.743l6.491,6.4
				c3.561,3.564,3.57,9.337,0.02,12.912c-3.55,3.575-9.323,3.607-12.912,0.071L154.286,330.514z M238.491,440.686
				c-3.42,3.452-8.078,5.394-12.937,5.394s-9.517-1.942-12.937-5.394l-45.349-45.349c-3.466-3.429-5.41-8.107-5.394-12.983
				c-0.014-4.849,1.931-9.498,5.394-12.891l27.794-27.886c4.586-4.601,11.258-6.443,17.554-4.846
				c6.313,1.566,11.282,6.43,12.983,12.709l20.206,70.583c1.8,6.405,0.02,13.284-4.663,18.011L238.491,440.686z"/>
			<polygon points="283.84,447.177 238.491,492.526 257.966,512 329.28,440.686 309.806,421.211 			"/>
			<polygon points="180.16,382.354 225.509,427.794 228.251,425.051 208.046,354.56 			"/>
			<polygon points="458.834,0 440.457,18.377 431.04,37.12 447.68,53.669 466.331,44.343 484.8,25.966 			"/>
			<polygon points="419.977,51.84 403.154,68.663 403.154,51.84 384.869,51.84 384.869,86.949 364.297,107.429 364.297,90.789 
				346.011,90.789 346.011,125.714 309.714,162.011 322.697,174.994 346.011,151.68 346.011,168.503 364.297,168.503 
				364.297,133.394 384.869,112.914 384.869,129.646 403.154,129.646 403.154,94.629 432.96,64.823 426.469,58.331 			"/>
		</g>
	</g>
</g>
<g>
</g>
<g>
</g>
<g>
</g>
<g>
</g>
<g>
</g>
<g>
</g>
<g>
</g>
<g>
</g>
<g>
</g>
<g>
</g>
<g>
</g>
<g>
</g>
<g>
</g>
<g>
</g>
<g>
</g>
</svg>
