<?xml version="1.0" encoding="iso-8859-1"?>
<!-- Generator: Adobe Illustrator 19.0.0, SVG Export Plug-In . SVG Version: 6.00 Build 0)  -->
<svg version="1.1" id="Capa_1" xmlns="http://www.w3.org/2000/svg" xmlns:xlink="http://www.w3.org/1999/xlink" x="0px" y="0px"
	 viewBox="0 0 512.021 512.021" style="enable-background:new 0 0 512.021 512.021;" xml:space="preserve">
<g>
	<g>
		<g>
			<path d="M145.646,422.146c-5.829-26.269-25.521-47.268-51.361-54.771c-25.841-7.503-53.716-0.315-72.707,18.748
				c-28.769,28.787-28.769,75.441,0,104.229c21.083,21.1,52.802,27.419,80.362,16.011c27.56-11.408,45.533-38.297,45.535-68.125
				c-0.024-4.202-0.422-8.394-1.189-12.526C145.837,424.577,145.619,423.365,145.646,422.146z M99.84,464.294
				c-12.46,12.499-32.016,14.448-46.699,4.656c-14.682-9.792-20.397-28.596-13.646-44.902c6.751-16.306,24.086-25.567,41.393-22.115
				c17.307,3.452,29.762,18.656,29.74,36.304C110.66,448.016,106.774,457.4,99.84,464.294z"/>
			<path d="M511.527,65.286l-47.223,47.348c-10.918,10.375-28.051,10.375-38.969,0L399.29,86.598
				c-10.746-10.769-10.746-28.204,0-38.973l47.098-47.098c-20.991-2.399-42,4.356-57.659,18.54
				C373.07,33.25,364.277,53.49,364.594,74.616c0.211,19.927,8.534,38.908,23.049,52.562c29.098,27.177,74.458,26.546,102.79-1.429
				C506.358,109.892,514.131,87.608,511.527,65.286z"/>
			<path d="M352.64,107.083L107.245,352.568c23.916,9.287,42.827,28.199,52.114,52.114l245.486-245.486
				c-11.078-4.213-21.209-10.584-29.806-18.743C365.192,131.128,357.541,119.729,352.64,107.083z M347.154,190.74
				c-3.593,3.566-9.39,3.566-12.983,0c-3.629-3.566-9.446-3.566-13.074,0L190.903,320.934c-1.769,1.731-2.759,4.107-2.743,6.583
				c-0.034,2.479,0.959,4.861,2.743,6.583c1.712,1.708,2.675,4.027,2.675,6.446c0,2.418-0.962,4.738-2.675,6.446
				c-1.716,1.737-4.05,2.723-6.491,2.743c-2.445-0.002-4.786-0.991-6.491-2.743c-10.728-10.767-10.728-28.182,0-38.948
				l130.194-130.195c5.175-5.181,12.197-8.092,19.52-8.092c7.323,0,14.345,2.911,19.52,8.092c1.712,1.708,2.674,4.027,2.674,6.446
				S348.866,189.032,347.154,190.74z"/>
		</g>
	</g>
</g>
<g>
</g>
<g>
</g>
<g>
</g>
<g>
</g>
<g>
</g>
<g>
</g>
<g>
</g>
<g>
</g>
<g>
</g>
<g>
</g>
<g>
</g>
<g>
</g>
<g>
</g>
<g>
</g>
<g>
</g>
</svg>
