<?xml version="1.0" encoding="iso-8859-1"?>
<!-- Generator: Adobe Illustrator 19.0.0, SVG Export Plug-In . SVG Version: 6.00 Build 0)  -->
<svg version="1.1" id="Capa_1" xmlns="http://www.w3.org/2000/svg" xmlns:xlink="http://www.w3.org/1999/xlink" x="0px" y="0px"
	 viewBox="0 0 512.043 512.043" style="enable-background:new 0 0 512.043 512.043;" xml:space="preserve">
<g transform="translate(-1)">
	<g>
		<g>
			<path d="M75.723,364.577c-19.937-0.478-39.18,7.336-53.138,21.58C6.7,401.99-1.074,424.215,1.477,446.496l47.246-47.223
				c10.772-10.738,28.201-10.738,38.973,0l26.04,26.045c10.736,10.772,10.738,28.199,0.005,38.973l-47.134,47.125
				c22.244,2.668,44.475-5.078,60.246-20.991c27.98-28.336,28.609-73.704,1.424-102.804
				C114.626,373.106,95.647,364.784,75.723,364.577z"/>
			<path d="M512.549,65.345l-47.228,47.357c-10.767,10.75-28.206,10.75-38.973,0l-26.04-26.045
				c-10.736-10.772-10.738-28.199-0.005-38.973l47.103-47.098c-20.994-2.401-42.004,4.355-57.665,18.541
				c-15.66,14.186-24.454,34.429-24.134,55.557c0.209,19.927,8.533,38.909,23.049,52.562c29.1,27.181,74.466,26.55,102.799-1.429
				C507.38,109.956,515.154,87.669,512.549,65.345z"/>
			<path d="M353.674,107.153l-245.486,245.49c12.641,4.911,24.037,12.563,33.365,22.407c8.151,8.611,14.526,18.743,18.763,29.818
				l245.577-245.569c-11.075-4.245-21.207-10.627-29.818-18.784C366.234,131.187,358.583,119.793,353.674,107.153z M348.129,190.836
				c-1.715,1.715-4.041,2.679-6.466,2.679c-2.425,0-4.752-0.964-6.467-2.679c-3.668-3.5-9.439-3.5-13.107,0L191.866,321.05
				c-1.739,1.74-2.715,4.099-2.714,6.559s0.979,4.818,2.719,6.557c3.536,3.578,3.517,9.34-0.041,12.896s-9.32,3.57-12.896,0.032
				c-10.758-10.765-10.756-28.211,0.005-38.973l130.218-130.214c10.907-10.411,28.071-10.411,38.978,0
				C351.701,181.479,351.699,187.266,348.129,190.836z"/>
		</g>
	</g>
</g>
<g>
</g>
<g>
</g>
<g>
</g>
<g>
</g>
<g>
</g>
<g>
</g>
<g>
</g>
<g>
</g>
<g>
</g>
<g>
</g>
<g>
</g>
<g>
</g>
<g>
</g>
<g>
</g>
<g>
</g>
</svg>
