<?xml version="1.0" encoding="iso-8859-1"?>
<!-- Generator: Adobe Illustrator 19.0.0, SVG Export Plug-In . SVG Version: 6.00 Build 0)  -->
<svg version="1.1" id="Capa_1" xmlns="http://www.w3.org/2000/svg" xmlns:xlink="http://www.w3.org/1999/xlink" x="0px" y="0px"
	 viewBox="0 0 512 512" style="enable-background:new 0 0 512 512;" xml:space="preserve">
<g>
	<g>
		<g>
			<path d="M201.543,435.657v-89.782c0.017-2.503-0.971-4.907-2.743-6.674l-60.251-60.251L19.965,397.257
				c-1.798,1.755-2.811,4.162-2.811,6.674s1.013,4.919,2.811,6.674l98.561,98.651c3.734,3.657,9.706,3.657,13.44,0l66.834-66.834
				C200.589,440.63,201.579,438.19,201.543,435.657z M158.846,457.235l-19.749,19.749c-7.197,7.193-18.861,7.193-26.057,0
				l-59.977-59.977c-7.194-7.232-7.194-18.917,0-26.149L72.812,371.2c7.278-6.994,18.78-6.994,26.058,0l59.976,59.977
				c3.466,3.429,5.409,8.107,5.394,12.983C164.256,449.063,162.314,453.77,158.846,457.235z"/>
			<path d="M440.995,2.743c-3.733-3.658-9.707-3.658-13.44,0L157.932,272.457l53.85,53.851c5.189,5.184,8.087,12.23,8.047,19.566
				v89.783c0.041,7.362-2.855,14.437-8.047,19.657l-24.502,24.411l19.201,8.229c4.248,1.837,9.2,0.327,11.702-3.566l52.663-81.463
				l-10.423-3.474c-4.76-1.618-7.323-6.772-5.741-11.544c1.582-4.772,6.718-7.374,11.501-5.827l14.994,5.029l15.359-23.863
				l-9.782-3.2c-4.767-1.612-7.338-6.772-5.754-11.549c1.584-4.777,6.728-7.378,11.514-5.823l14.263,4.754l15.451-23.771
				l-9.234-3.109c-3.101-1.034-5.411-3.649-6.056-6.853c-0.645-3.205,0.474-6.509,2.933-8.663c2.459-2.153,5.883-2.826,8.974-1.764
				l13.623,4.48l15.36-23.771l-8.503-2.834c-4.795-1.618-7.373-6.815-5.76-11.611c0.755-2.298,2.397-4.198,4.56-5.28
				c2.163-1.082,4.669-1.254,6.96-0.48l13.074,4.297l15.361-23.771l-7.954-2.651c-4.772-1.634-7.326-6.817-5.716-11.597
				s6.779-7.361,11.567-5.775l12.343,4.114l15.451-23.771l-7.222-2.377c-3.123-0.997-5.472-3.591-6.156-6.796
				c-0.684-3.206,0.401-6.533,2.845-8.718c2.443-2.185,5.87-2.894,8.98-1.857l11.794,3.931l15.451-23.863l-6.674-2.194
				c-3.119-1.033-5.446-3.656-6.101-6.876c-0.654-3.22,0.466-6.543,2.934-8.711c2.469-2.168,5.909-2.849,9.018-1.784l11.064,3.749
				l15.359-23.771l-6.034-2.011c-4.772-1.634-7.326-6.817-5.716-11.597c1.61-4.78,6.779-7.361,11.567-5.775l10.423,3.566
				l15.452-23.863l-5.303-1.737c-3.117-1.002-5.46-3.594-6.141-6.797c-0.682-3.202,0.403-6.525,2.842-8.708
				c2.439-2.184,5.86-2.896,8.968-1.866l9.874,3.291l8.411-13.074L440.995,2.743z M443.28,37.577l-0.549,1.646l-0.821,1.646
				c-0.37,0.479-0.767,0.937-1.19,1.371c-0.396,0.436-0.859,0.806-1.371,1.097c-0.466,0.362-0.992,0.641-1.554,0.823
				c-0.55,0.266-1.135,0.45-1.738,0.549c-1.176,0.243-2.389,0.243-3.565,0c-0.603-0.099-1.188-0.284-1.739-0.549
				c-0.562-0.182-1.088-0.46-1.554-0.823c-0.495-0.315-0.955-0.683-1.37-1.097c-1.746-1.71-2.734-4.048-2.743-6.491
				c0.027-2.44,1.012-4.772,2.743-6.491c0.366-0.366,0.914-0.731,1.37-1.098c0.467-0.362,0.992-0.641,1.554-0.823
				c0.55-0.265,1.135-0.45,1.737-0.548c1.172-0.275,2.392-0.275,3.565,0c0.603,0.099,1.188,0.283,1.738,0.549
				c0.562,0.182,1.088,0.461,1.554,0.823c0.492,0.32,0.951,0.688,1.372,1.097c0.445,0.446,0.844,0.936,1.19,1.463
				c0.273,0.457,0.548,1.006,0.821,1.554c0.183,0.549,0.366,1.097,0.549,1.737c0.106,0.573,0.167,1.154,0.183,1.737
				C443.448,36.362,443.386,36.973,443.28,37.577z"/>
		</g>
	</g>
</g>
<g>
</g>
<g>
</g>
<g>
</g>
<g>
</g>
<g>
</g>
<g>
</g>
<g>
</g>
<g>
</g>
<g>
</g>
<g>
</g>
<g>
</g>
<g>
</g>
<g>
</g>
<g>
</g>
<g>
</g>
</svg>
