<?xml version="1.0" encoding="iso-8859-1"?>
<!-- Generator: Adobe Illustrator 19.0.0, SVG Export Plug-In . SVG Version: 6.00 Build 0)  -->
<svg version="1.1" id="Capa_1" xmlns="http://www.w3.org/2000/svg" xmlns:xlink="http://www.w3.org/1999/xlink" x="0px" y="0px"
	 viewBox="0 0 511.975 511.975" style="enable-background:new 0 0 511.975 511.975;" xml:space="preserve">
<g>
	<g>
		<g>
			<path d="M449.799,151.815c-9.633-4.884-18.358-11.383-25.795-19.214c-5.613-5.889-8.304-13.976-7.339-22.054l1.348-12.049
				l-33.098-33.17l-10.446,1.116c-7.963,0.9-15.924-1.707-21.813-7.143c-11.705-10.821-35.563-29.196-63.795-30.621
				c-26.194-0.407-51.57,9.119-71.027,26.661c-1.899,1.559-3.037,3.858-3.125,6.313c-0.212,3.824,1.889,7.401,5.331,9.08
				c3.442,1.678,7.555,1.13,10.437-1.392c15.697-14.076,36.041-21.856,57.125-21.848c16.224,1.603,31.553,8.196,43.875,18.871
				c9.459,7.305,13.163,19.854,9.188,31.125l-7.527,21.442l34.277,34.295c1.429,0.674,3.063,1.272,4.839,1.946
				c17.396,5.596,31.714,18.117,39.581,34.611l18.645-18.647L449.799,151.815z"/>
			<path d="M301.245,143.016c-16.587,8.295-31.02,20.33-42.161,35.156l-45.473,60.549c-9.92,13.278-21.381,25.331-34.143,35.906
				L9.915,413.646c-5.944,4.966-9.531,12.2-9.886,19.938s2.555,15.269,8.02,20.759l20.911,20.911
				c5.493,5.473,13.034,8.384,20.78,8.023c7.746-0.361,14.983-3.961,19.944-9.921l138.955-169.478
				c10.591-12.785,22.663-24.266,35.964-34.201l60.509-45.446c14.836-11.143,26.879-25.581,35.179-42.175l10.033-20.07
				l-29.002-29.008L301.245,143.016z"/>
			<path d="M506.504,186.789l-32.813-32.812l-59.321,59.13l32.813,33.004c7.31,7.286,19.136,7.286,26.446,0l32.875-32.875
				C513.799,205.929,513.799,194.095,506.504,186.789z"/>
		</g>
	</g>
</g>
<g>
</g>
<g>
</g>
<g>
</g>
<g>
</g>
<g>
</g>
<g>
</g>
<g>
</g>
<g>
</g>
<g>
</g>
<g>
</g>
<g>
</g>
<g>
</g>
<g>
</g>
<g>
</g>
<g>
</g>
</svg>
