<?xml version="1.0" encoding="iso-8859-1"?>
<!-- Generator: Adobe Illustrator 19.0.0, SVG Export Plug-In . SVG Version: 6.00 Build 0)  -->
<svg version="1.1" id="Capa_1" xmlns="http://www.w3.org/2000/svg" xmlns:xlink="http://www.w3.org/1999/xlink" x="0px" y="0px"
	 viewBox="0 0 511.207 511.207" style="enable-background:new 0 0 511.207 511.207;" xml:space="preserve">
<g>
	<g>
		<g>
			<path d="M96.494,236.701c0.516-4.212,2.413-8.135,5.394-11.154l12.8-12.8l-12.983-12.891l-12.709,12.8
				c-5.955,5.913-9.699,13.692-10.606,22.034l-4.663,42.423L94.3,256.45L96.494,236.701z"/>
			
				<rect x="80.359" y="380.947" transform="matrix(-0.7071 -0.7071 0.7071 -0.7071 -91.0922 742.4517)" width="55.699" height="18.286"/>
			<path d="M75.491,353.249l-6.559-6.56l-0.003-0.002l-19.786-19.79L0,376.044l3.491,17.455c0.668,3.313,3.055,6.016,6.259,7.089
				l23.795,7.933l41.947-41.946C79.17,362.894,79.17,356.929,75.491,353.249z"/>
			<path d="M65.598,402.329l-18.804,18.808l33.018,80.188c1.179,2.93,3.765,5.06,6.866,5.656c3.087,0.617,6.277-0.352,8.5-2.58
				l4.375-4.375c2.693-2.688,3.504-6.732,2.054-10.25L65.598,402.329z"/>
			<polygon points="381.991,20.69 385.322,4.043 368.67,7.374 344.277,31.767 357.598,45.088 			"/>
			<path d="M508.652,379.517l-85.42-85.42l-118.34,118.335l85.42,85.42c4.069,3.659,10.329,3.35,14.018-0.692L507.965,393.53l0,0
				C512.003,389.841,512.31,383.584,508.652,379.517z"/>
			<path d="M416.964,261.575c-1.765-1.925-4.246-3.036-6.857-3.071c-2.423-0.008-4.748,0.955-6.455,2.674L271.982,392.838
				c-3.563,3.575-3.563,9.358,0,12.933c1.693,1.856,4.066,2.946,6.577,3.02c2.511,0.074,4.945-0.874,6.744-2.627l0.196-0.197
				l131.464-131.46C420.527,270.933,420.527,265.15,416.964,261.575z"/>
			<polygon points="219.879,182.807 344.669,58.017 331.348,44.695 62.071,313.968 66.489,318.387 75.394,327.292 173.938,228.749 
				193.616,209.07 219.869,182.812 			"/>
			<polygon points="239.558,228.76 246.223,222.097 226.333,202.211 213.009,215.535 232.893,235.423 			"/>
			<path d="M344.571,215.436c-19.341-18.131-49.702-17.204-67.902,2.071l-11.051,11.05l-0.002,0.003l-13.129,13.127l-24.183,24.181
				l0,0c-19.271,18.202-20.197,48.559-2.071,67.902l39.482,39.478l118.338-118.335L344.571,215.436z"/>
		</g>
	</g>
</g>
<g>
</g>
<g>
</g>
<g>
</g>
<g>
</g>
<g>
</g>
<g>
</g>
<g>
</g>
<g>
</g>
<g>
</g>
<g>
</g>
<g>
</g>
<g>
</g>
<g>
</g>
<g>
</g>
<g>
</g>
</svg>
