<?xml version="1.0" encoding="iso-8859-1"?>
<!-- Generator: Adobe Illustrator 19.0.0, SVG Export Plug-In . SVG Version: 6.00 Build 0)  -->
<svg version="1.1" id="Capa_1" xmlns="http://www.w3.org/2000/svg" xmlns:xlink="http://www.w3.org/1999/xlink" x="0px" y="0px"
	 viewBox="0 0 505.93 505.93" style="enable-background:new 0 0 505.93 505.93;" xml:space="preserve">
<g>
	<g>
		<g>
			
				<rect x="288.298" y="88.857" transform="matrix(0.7071 0.7071 -0.7071 0.7071 156.134 -181.5726)" width="17.894" height="17.655"/>
			
				<rect x="187.016" y="190.113" transform="matrix(0.707 0.7072 -0.7072 0.707 198.1177 -80.3009)" width="17.902" height="17.655"/>
			
				<rect x="212.35" y="164.805" transform="matrix(0.7071 0.7071 -0.7071 0.7071 187.5932 -105.625)" width="17.894" height="17.655"/>
			
				<rect x="237.672" y="139.479" transform="matrix(0.7071 0.7071 -0.7071 0.7071 177.1013 -130.9476)" width="17.894" height="17.655"/>
			
				<rect x="262.979" y="114.173" transform="matrix(0.707 0.7072 -0.7072 0.707 166.6679 -156.2755)" width="17.902" height="17.655"/>
			
				<rect x="313.609" y="63.572" transform="matrix(0.7071 0.7071 -0.7071 0.7071 145.6693 -206.8765)" width="17.894" height="17.655"/>
			
				<rect x="338.889" y="38.253" transform="matrix(0.7073 0.7069 -0.7069 0.7073 135.0761 -232.0986)" width="17.902" height="17.655"/>
			
				<rect x="364.254" y="12.894" transform="matrix(0.707 0.7072 -0.7072 0.707 124.7168 -257.5764)" width="17.902" height="17.655"/>
			<rect x="430.8" y="14.9" transform="matrix(0.9486 0.3165 -0.3165 0.9486 30.4856 -137.868)" width="17.646" height="20.012"/>
			
				<rect x="448.607" y="35.111" transform="matrix(-0.9486 0.3164 -0.3164 -0.9486 907.5696 -59.4764)" width="20.012" height="17.655"/>
			
				<rect x="397.983" y="3.459" transform="matrix(0.3162 0.9487 -0.9487 0.3162 290.6504 -378.6618)" width="20.012" height="17.646"/>
			
				<rect x="462.454" y="65.501" transform="matrix(0.3162 -0.9487 0.9487 0.3162 250.6168 498.726)" width="17.655" height="20.012"/>
			
				<rect x="275.661" y="278.738" transform="matrix(-0.7073 -0.7069 0.7069 -0.7073 282.6607 692.1578)" width="17.902" height="17.655"/>
			
				<rect x="300.963" y="253.338" transform="matrix(-0.707 -0.7072 0.7072 -0.707 343.6089 666.6928)" width="17.902" height="17.655"/>
			
				<rect x="326.266" y="228.081" transform="matrix(-0.7071 -0.7071 0.7071 -0.7071 404.7255 641.46)" width="17.894" height="17.655"/>
			
				<rect x="351.572" y="202.77" transform="matrix(-0.7071 -0.7071 0.7071 -0.7071 465.8224 616.1454)" width="17.894" height="17.655"/>
			
				<rect x="376.892" y="177.45" transform="matrix(-0.7071 -0.7071 0.7071 -0.7071 526.9504 590.8256)" width="17.894" height="17.655"/>
			
				<rect x="402.194" y="152.183" transform="matrix(-0.707 -0.7072 0.7072 -0.707 587.9493 565.6158)" width="17.902" height="17.655"/>
			
				<rect x="427.544" y="126.782" transform="matrix(-0.7071 -0.7071 0.7071 -0.7071 649.2465 540.1442)" width="17.894" height="17.655"/>
			
				<rect x="452.817" y="101.529" transform="matrix(-0.7071 -0.7071 0.7071 -0.7071 710.2467 514.9075)" width="17.894" height="17.655"/>
			<path d="M411.588,71.934c-1.738-1.62-4.021-2.527-6.397-2.543c-2.553,0.041-4.989,1.08-6.784,2.896l-183.61,183.605
				l10.793,10.796l2.04,2.039L411.235,85.119C414.962,81.571,415.12,75.676,411.588,71.934z"/>
			<path d="M437.424,109.563c17.207-17.25,17.207-45.172,0-62.422l-1.052-1.052c-17.25-17.197-45.163-17.191-62.405,0.013
				l-184.479,184.48l12.827,12.828L385.924,59.804c5.041-5.077,11.872-7.974,19.026-8.069c7.153-0.113,14.049,2.669,19.121,7.715
				c10.423,10.639,10.265,27.707-0.353,38.151L240.113,281.209l12.829,12.831L437.424,109.563z"/>
			<path d="M227.627,293.696l-13.091,13.087c-10.319,10.352-10.319,27.101,0,37.453l13.093,13.088l25.399-25.399
				c3.517-3.553,3.517-9.275,0-12.828L227.627,293.696z"/>
			<path d="M25.036,420.347c-3.006,2.979-3.537,7.647-1.276,11.224l43.801,70.099c1.467,2.343,3.923,3.89,6.67,4.202
				s5.487-0.645,7.442-2.599l25.888-25.883l-69.784-69.784L25.036,420.347z"/>
			<path d="M202.053,294.3l13.091-13.088l-9.579-9.58l-34.806-34.807l-0.006-0.009l-12.649-12.65c-3.601-3.397-9.226-3.397-12.828,0
				l-6.419,6.417l25.402,25.402c4.995,5.023,7.807,11.813,7.828,18.897v7.414c0,13.993-10.793,25.617-24.747,26.655
				c-13.954,1.037-26.347-8.863-28.417-22.702l-17.865-17.867l-16.67,16.673c-0.809,0.804-1.448,1.763-1.879,2.819l-38.336,93.263v0
				c-1.363,3.363-0.61,7.214,1.92,9.816l73.951,73.955l95.101-95.101l-13.092-13.089C184.847,339.469,184.847,311.548,202.053,294.3
				z"/>
			<path d="M107.298,249.65l0.007,0.005l0.002,0.004l26.393,26.395c1.656,1.655,2.586,3.9,2.586,6.241
				c0,5.011,4.062,9.073,9.073,9.073c5.011,0,9.073-4.062,9.073-9.073v-7.413c-0.006-2.404-0.96-4.709-2.655-6.414l-31.641-31.639
				l-0.006-0.003l-0.006-0.009l-63.279-63.276c-2.594-2.593-6.495-3.368-9.884-1.965c-3.389,1.404-5.599,4.71-5.599,8.378
				c-0.008,2.406,0.948,4.715,2.655,6.41L107.298,249.65z"/>
		</g>
	</g>
</g>
<g>
</g>
<g>
</g>
<g>
</g>
<g>
</g>
<g>
</g>
<g>
</g>
<g>
</g>
<g>
</g>
<g>
</g>
<g>
</g>
<g>
</g>
<g>
</g>
<g>
</g>
<g>
</g>
<g>
</g>
</svg>
