<?xml version="1.0" encoding="iso-8859-1"?>
<!-- Generator: Adobe Illustrator 19.0.0, SVG Export Plug-In . SVG Version: 6.00 Build 0)  -->
<svg version="1.1" id="Capa_1" xmlns="http://www.w3.org/2000/svg" xmlns:xlink="http://www.w3.org/1999/xlink" x="0px" y="0px"
	 viewBox="0 0 512 512" style="enable-background:new 0 0 512 512;" xml:space="preserve">
<g transform="translate(0 -1)">
	<g>
		<g>
			<path d="M509.415,458.212c-1.656-1.656-3.901-2.586-6.243-2.585h-44.138v17.655h35.31v17.655H512v-26.483
				C512.001,462.113,511.071,459.868,509.415,458.212z"/>
			<path d="M211.862,367.378c69.632-0.111,127.294-54.111,131.967-123.586H79.896C84.568,313.267,142.23,367.267,211.862,367.378z"
				/>
			<path d="M414.897,165.865c-0.006-10.326-3.626-20.323-10.233-28.259L339.25,59.115c-5.022-6.046-12.476-9.539-20.336-9.53
				h-19.348l115.331,125.78V165.865z"/>
			<path d="M211.862,102.55c-69.633,0.111-127.294,54.111-131.967,123.586h263.933C339.156,156.661,281.495,102.661,211.862,102.55z
				 M300.138,199.654c0.001,2.341-0.929,4.587-2.585,6.243s-3.901,2.585-6.243,2.585H132.414c-2.341,0.001-4.587-0.929-6.243-2.585
				s-2.586-3.901-2.585-6.243v-35.31c-0.001-2.341,0.929-4.587,2.585-6.243s3.901-2.585,6.243-2.585h8.828v-8.828
				c-0.001-2.341,0.929-4.587,2.585-6.243c1.656-1.656,3.901-2.586,6.243-2.585h123.586c2.341-0.001,4.587,0.929,6.243,2.585
				c1.656,1.656,2.585,3.901,2.585,6.243v8.828h8.828c2.341-0.001,4.587,0.929,6.243,2.585s2.586,3.901,2.585,6.243V199.654z"/>
			<path d="M267.413,170.586c-1.656-1.656-2.586-3.901-2.585-6.243v-8.828H158.897v8.828c0.001,2.341-0.929,4.587-2.585,6.243
				c-1.656,1.656-3.901,2.586-6.243,2.585h-8.828v17.655h141.241v-17.655h-8.828C271.314,173.171,269.068,172.242,267.413,170.586z"
				/>
			<path d="M387.931,410.111c-14.866-11.791-17.662-33.266-6.31-48.47c31.414-42.082,46.083-94.329,41.164-146.612
				c-0.168-1.904-0.403-3.755-0.625-5.616L255.609,27.773c-9.783-2.18-19.719-3.6-29.721-4.248
				C148.709,18.43,74.885,55.786,33.277,120.987c-41.608,65.202-44.39,147.893-7.26,215.744c1.262,2.308,1.433,5.058,0.466,7.504
				v67.28c0.04,34.111,27.682,61.753,61.793,61.793h353.103v-20.832c-0.671-0.312-1.307-0.695-1.897-1.142L387.931,410.111z
				 M211.862,84.895c82.881,0,150.069,67.188,150.069,150.069s-67.188,150.069-150.069,150.069S61.793,317.845,61.793,234.964
				C61.886,152.121,129.02,84.987,211.862,84.895z M107.758,457.481c-1.655,1.656-3.9,2.586-6.241,2.586s-4.586-0.93-6.241-2.586
				l-22.069-22.069c-3.41-3.453-3.392-9.012,0.039-12.443c3.432-3.432,8.99-3.449,12.443-0.039l22.069,22.069
				c1.656,1.655,2.586,3.9,2.586,6.241C110.344,453.581,109.414,455.826,107.758,457.481z M151.896,457.481
				c-1.655,1.656-3.9,2.586-6.241,2.586s-4.586-0.93-6.241-2.586l-22.069-22.069c-3.41-3.453-3.392-9.012,0.039-12.443
				c3.432-3.432,8.99-3.449,12.443-0.039l22.069,22.069c1.656,1.655,2.586,3.9,2.586,6.241
				C154.482,453.581,153.552,455.826,151.896,457.481z M196.034,457.481c-1.655,1.656-3.9,2.586-6.241,2.586
				s-4.586-0.93-6.241-2.586l-22.069-22.069c-3.41-3.453-3.392-9.012,0.039-12.443c3.432-3.432,8.99-3.449,12.443-0.039
				l22.069,22.069c1.656,1.655,2.586,3.9,2.586,6.241C198.62,453.581,197.69,455.826,196.034,457.481z M240.172,457.481
				c-1.655,1.656-3.9,2.586-6.241,2.586c-2.341,0-4.586-0.93-6.241-2.586l-22.069-22.069c-3.41-3.453-3.392-9.012,0.039-12.443
				c3.432-3.432,8.99-3.449,12.443-0.039l22.069,22.069c1.656,1.655,2.586,3.9,2.586,6.241
				C242.758,453.581,241.828,455.826,240.172,457.481z M284.31,457.481c-1.655,1.656-3.9,2.586-6.241,2.586
				c-2.341,0-4.586-0.93-6.241-2.586l-22.069-22.069c-3.41-3.453-3.392-9.012,0.039-12.443c3.432-3.432,8.99-3.449,12.443-0.039
				l22.069,22.069c1.656,1.655,2.586,3.9,2.586,6.241C286.896,453.581,285.966,455.826,284.31,457.481z M328.448,457.481
				c-1.655,1.656-3.9,2.586-6.241,2.586c-2.341,0-4.586-0.93-6.241-2.586l-22.069-22.069c-3.41-3.453-3.392-9.012,0.039-12.443
				c3.432-3.432,8.99-3.449,12.443-0.039l22.069,22.069c1.656,1.655,2.586,3.9,2.586,6.241
				C331.034,453.581,330.104,455.826,328.448,457.481z M372.586,457.481c-1.655,1.656-3.9,2.586-6.241,2.586
				c-2.341,0-4.586-0.93-6.241-2.586l-22.069-22.069c-3.41-3.453-3.392-9.012,0.039-12.443c3.432-3.432,8.99-3.449,12.443-0.039
				l22.069,22.069c1.656,1.655,2.586,3.9,2.586,6.241C375.172,453.581,374.242,455.826,372.586,457.481z"/>
		</g>
	</g>
</g>
<g>
</g>
<g>
</g>
<g>
</g>
<g>
</g>
<g>
</g>
<g>
</g>
<g>
</g>
<g>
</g>
<g>
</g>
<g>
</g>
<g>
</g>
<g>
</g>
<g>
</g>
<g>
</g>
<g>
</g>
</svg>
