<?xml version="1.0" encoding="iso-8859-1"?>
<!-- Generator: Adobe Illustrator 19.0.0, SVG Export Plug-In . SVG Version: 6.00 Build 0)  -->
<svg version="1.1" id="Capa_1" xmlns="http://www.w3.org/2000/svg" xmlns:xlink="http://www.w3.org/1999/xlink" x="0px" y="0px"
	 viewBox="0 0 508.525 508.525" style="enable-background:new 0 0 508.525 508.525;" xml:space="preserve">
<g>
	<g>
		<g>
			<path d="M278.126,95.954l51.657,51.566c7.131,7.151,7.131,18.724,0,25.874l-51.749,51.749l9.6,9.6l3.291,3.291l51.749-51.749
				c6.867-6.787,10.718-16.047,10.695-25.699c0-0.028,0.002-0.056,0.002-0.084h0h0c0.045-9.683-3.811-18.976-10.697-25.783
				c-0.269-0.251-0.514-0.526-0.731-0.823L303.91,95.863h0h0h-0.091L252.16,44.114l-12.891,12.891l38.766,38.766
				C278.086,95.819,278.119,95.884,278.126,95.954z"/>
			<path d="M252.16,147.611l-25.783,25.783l12.891,12.891l0,0l0,0l25.874-25.874c14.192-14.345,14.151-37.453-0.091-51.749
				l-38.675-38.674c-0.091,0-0.091,0-0.091-0.091L174.629,18.24l-12.983,12.983l90.514,90.423
				C259.291,128.832,259.291,140.425,252.16,147.611z"/>
			<polygon points="86.217,318.308 82.651,317.028 0,399.68 12.983,412.571 101.669,323.886 			"/>
			<path d="M356.298,122.468l51.017,50.926c7.132,7.151,7.132,18.724,0,25.874L329.783,276.8l12.891,12.983l0,0l0,0l77.622-77.623
				c0.883-0.881,1.714-1.803,2.496-2.761c0.046-0.057,0.089-0.116,0.135-0.172c0.334-0.414,0.661-0.833,0.976-1.26
				c0.093-0.127,0.18-0.257,0.271-0.385c0.258-0.359,0.514-0.72,0.758-1.087c0.12-0.182,0.232-0.367,0.349-0.55
				c0.204-0.32,0.409-0.638,0.602-0.964c0.129-0.216,0.248-0.437,0.371-0.655c0.17-0.3,0.342-0.599,0.504-0.903
				c0.122-0.23,0.234-0.464,0.35-0.696c0.151-0.301,0.305-0.601,0.448-0.907c0.105-0.224,0.201-0.452,0.301-0.678
				c0.142-0.321,0.286-0.64,0.419-0.965c0.083-0.204,0.158-0.41,0.238-0.615c0.137-0.353,0.275-0.706,0.401-1.063
				c0.06-0.171,0.113-0.344,0.171-0.516c0.133-0.395,0.265-0.791,0.384-1.19c0.039-0.131,0.072-0.263,0.109-0.394
				c0.127-0.443,0.25-0.886,0.36-1.334c0.021-0.086,0.038-0.174,0.059-0.26c0.117-0.491,0.227-0.983,0.324-1.48
				c0.009-0.045,0.015-0.091,0.024-0.136c0.102-0.534,0.194-1.07,0.272-1.61c0.002-0.012,0.003-0.024,0.004-0.036
				c0.081-0.566,0.15-1.135,0.205-1.706c0.002-0.023,0.003-0.046,0.005-0.068c0.052-0.554,0.093-1.11,0.12-1.669
				c0.016-0.331,0.017-0.662,0.024-0.993c0.005-0.243,0.018-0.486,0.018-0.729h0c0-0.007,0-0.015,0-0.022
				c0-0.335-0.014-0.669-0.023-1.003c-0.035-1.331-0.139-2.654-0.317-3.962c-0.014-0.106-0.024-0.212-0.039-0.318
				c-0.058-0.402-0.131-0.801-0.203-1.201c-0.033-0.187-0.061-0.375-0.097-0.562c-0.065-0.33-0.142-0.657-0.216-0.985
				c-0.057-0.257-0.109-0.514-0.172-0.77c-0.065-0.262-0.14-0.52-0.211-0.78c-0.087-0.32-0.17-0.641-0.265-0.959
				c-0.06-0.201-0.129-0.399-0.193-0.599c-0.119-0.372-0.237-0.745-0.367-1.114c-0.054-0.152-0.115-0.302-0.171-0.454
				c-0.152-0.411-0.305-0.821-0.473-1.227c-0.048-0.116-0.101-0.229-0.15-0.345c-0.184-0.435-0.372-0.869-0.574-1.298
				c-0.045-0.095-0.094-0.187-0.139-0.282c-0.212-0.442-0.43-0.882-0.661-1.316c-0.052-0.099-0.11-0.195-0.163-0.293
				c-0.23-0.422-0.463-0.843-0.711-1.258c-0.078-0.13-0.162-0.257-0.241-0.386c-0.231-0.376-0.462-0.751-0.708-1.12
				c-0.126-0.19-0.261-0.374-0.391-0.561c-0.209-0.301-0.414-0.604-0.633-0.9c-0.21-0.285-0.433-0.562-0.652-0.841
				c-0.151-0.193-0.296-0.388-0.451-0.579c-0.337-0.413-0.687-0.816-1.043-1.215c-0.049-0.055-0.095-0.113-0.145-0.168
				c-0.417-0.461-0.846-0.914-1.288-1.356l-90.514-90.514l0,0l0,0l-12.891,12.8L316.8,82.88l38.766,38.766
				C355.84,121.92,356.023,122.194,356.298,122.468z"/>
			<path d="M387.931,360.914h-0.091l-2.286-2.286L273.92,246.811l-15.269-15.177c-0.091-0.091-0.091-0.183-0.183-0.183l-25.509-25.6
				c-0.073-0.07-0.174-0.104-0.274-0.091l-23.314-23.497l-8.869-8.869c-1.705-1.753-4.046-2.743-6.491-2.743
				c-2.445,0-4.787,0.989-6.491,2.743L78.629,282.377c-2.206,2.194-3.138,5.362-2.471,8.401c0.667,3.038,2.84,5.525,5.762,6.594
				h0.091l1.463,0.549l0.64,0.274l37.303,13.349c0.143,0.003,0.278,0.07,0.366,0.183l37.486,13.44c0,0.091,0.091,0.091,0.183,0.091
				l38.034,13.714h0.091l57.417,20.663l18.56,6.674c0.091,0,0.183,0.091,0.274,0.183l37.669,13.531h0.091l29.714,10.697
				l25.874,9.326c3.339,1.187,7.063,0.371,9.6-2.103l17.646-17.646c1.712-1.708,2.674-4.027,2.674-6.445
				c0-2.418-0.962-4.737-2.674-6.445L387.931,360.914z"/>
			<polygon points="232.777,477.303 245.669,490.286 329.874,406.08 310.857,399.223 			"/>
			<path d="M497.829,186.377L497.829,186.377l-90.514-90.514l-12.891,12.891l90.514,90.514c7.132,7.151,7.132,18.724,0,25.874
				L381.531,328.548l12.8,12.891l103.497-103.406C512.091,223.769,512.091,200.643,497.829,186.377z"/>
			<polygon points="251.977,378.011 234.697,371.794 155.154,451.337 168.137,464.32 253.806,378.651 			"/>
			<polygon points="158.72,344.457 77.623,425.554 90.514,438.446 177.737,351.314 			"/>
		</g>
	</g>
</g>
<g>
</g>
<g>
</g>
<g>
</g>
<g>
</g>
<g>
</g>
<g>
</g>
<g>
</g>
<g>
</g>
<g>
</g>
<g>
</g>
<g>
</g>
<g>
</g>
<g>
</g>
<g>
</g>
<g>
</g>
</svg>
