<?xml version="1.0" encoding="iso-8859-1"?>
<!-- Generator: Adobe Illustrator 19.0.0, SVG Export Plug-In . SVG Version: 6.00 Build 0)  -->
<svg version="1.1" id="Capa_1" xmlns="http://www.w3.org/2000/svg" xmlns:xlink="http://www.w3.org/1999/xlink" x="0px" y="0px"
	 viewBox="0 0 512 512" style="enable-background:new 0 0 512 512;" xml:space="preserve">
<g>
	<g>
		<g>
			<path d="M404.211,363.79v-35.93h-53.895v35.93h-37.187l23.983-35.93h-21.558l-23.983,35.93H165.008l-41.858-35.93H95.484
				l60.362,51.739c1.636,1.377,3.701,2.139,5.839,2.156h188.632v98.807c0.044,14.865,12.083,26.904,26.947,26.947h8.982
				c9.91-0.029,17.936-8.055,17.965-17.965V381.755H512V363.79H404.211z"/>
			<path d="M386.246,220.07H269.474c-4.961,0-8.982,4.022-8.982,8.982V256c0,4.961,4.022,8.982,8.982,8.982h116.772
				c4.961,0,8.982-4.022,8.982-8.982v-26.947C395.228,224.092,391.206,220.07,386.246,220.07z"/>
			<path d="M440.14,282.948v-79.764c-0.026-6.011-0.688-12.003-1.976-17.875L401.785,25.51
				c-2.693-12.315-13.623-21.074-26.229-21.019h-107.61c-9.785,0.016-19.489,1.78-28.654,5.21L17.426,93.957
				C6.974,97.929,0.048,107.927,0,119.107v163.84c0.044,14.865,12.083,26.904,26.947,26.947h386.246
				C428.058,309.851,440.097,297.812,440.14,282.948z M53.895,273.965c0,4.961-4.022,8.982-8.982,8.982s-8.982-4.022-8.982-8.982
				v-62.877c0-4.961,4.022-8.982,8.982-8.982s8.982,4.022,8.982,8.982V273.965z M35.93,156.924v-0.09
				c0.004-11.595,7.362-21.911,18.324-25.69l204.351-71.051c2.979-1.15,6.148-1.729,9.342-1.707h1.527
				c14.865,0.043,26.904,12.083,26.947,26.947v53.895c-0.009,24.801-20.112,44.903-44.912,44.912H63.147
				C48.124,184.119,35.952,171.946,35.93,156.924z M89.825,273.965c0,4.961-4.022,8.982-8.982,8.982s-8.982-4.022-8.982-8.982
				v-62.877c0-4.961,4.022-8.982,8.982-8.982s8.982,4.022,8.982,8.982V273.965z M125.754,273.965c0,4.961-4.022,8.982-8.982,8.982
				s-8.982-4.022-8.982-8.982v-62.877c0-4.961,4.022-8.982,8.982-8.982s8.982,4.022,8.982,8.982V273.965z M161.684,273.965
				c0,4.961-4.022,8.982-8.982,8.982c-4.961,0-8.982-4.022-8.982-8.982v-62.877c0-4.961,4.022-8.982,8.982-8.982
				c4.961,0,8.982,4.022,8.982,8.982V273.965z M386.246,282.948H269.474c-14.865-0.044-26.904-12.083-26.947-26.947v-26.947
				c0.043-14.865,12.083-26.904,26.947-26.947h116.772c14.865,0.043,26.904,12.083,26.947,26.947V256
				C413.149,270.865,401.11,282.904,386.246,282.948z"/>
		</g>
	</g>
</g>
<g>
</g>
<g>
</g>
<g>
</g>
<g>
</g>
<g>
</g>
<g>
</g>
<g>
</g>
<g>
</g>
<g>
</g>
<g>
</g>
<g>
</g>
<g>
</g>
<g>
</g>
<g>
</g>
<g>
</g>
</svg>
