<?xml version="1.0" encoding="iso-8859-1"?>
<!-- Generator: Adobe Illustrator 19.0.0, SVG Export Plug-In . SVG Version: 6.00 Build 0)  -->
<svg version="1.1" id="Capa_1" xmlns="http://www.w3.org/2000/svg" xmlns:xlink="http://www.w3.org/1999/xlink" x="0px" y="0px"
	 viewBox="0 0 512 512" style="enable-background:new 0 0 512 512;" xml:space="preserve">
<g>
	<g>
		<g>
			<path d="M265.143,169.143V13.714c-0.015-5.043-4.1-9.128-9.143-9.143H82.286v173.714H256
				C261.043,178.271,265.128,174.186,265.143,169.143z M246.857,141.714c-0.03,10.087-8.199,18.256-18.286,18.286h-68.023
				c-6.234-0.008-12.034-3.194-15.385-8.451c-3.351-5.257-3.789-11.86-1.164-17.515l46.354-100.571
				c3.038-6.448,9.513-10.574,16.64-10.606h21.577c10.087,0.029,18.256,8.199,18.286,18.286V141.714z"/>
			<rect x="384" y="41.143" width="64" height="18.286"/>
			<path d="M64,4.571H9.143C4.096,4.578,0.007,8.668,0,13.714v155.429c0.007,5.047,4.096,9.136,9.143,9.143H64V4.571z"/>
			<polygon points="198.555,59.428 228.571,59.428 228.571,41.143 206.994,41.143 			"/>
			<path d="M128.451,251.482c-2.15,10.668,3.519,21.372,13.552,25.587l25.1-43.926h-16.246
				C139.975,233.142,130.601,240.814,128.451,251.482z"/>
			<polygon points="181.669,96 228.571,96 228.571,77.714 190.107,77.714 			"/>
			<polygon points="160.567,141.714 228.571,141.714 228.571,114.286 173.23,114.286 			"/>
			<path d="M329.143,96V59.428h-18.286c-1.98,0.011-3.908-0.632-5.486-1.829l-21.943-16.457v128
				c-0.044,15.13-12.299,27.384-27.429,27.429H27.429v36.571c0.015,5.043,4.1,9.128,9.143,9.143h2.103
				c15.004-0.009,29.057,7.349,37.597,19.685s10.481,28.079,5.191,42.12L28.16,446.08c-4.464,12.23,0.175,25.918,11.154,32.914
				l38.949,24.229c4.345,2.761,9.389,4.22,14.537,4.206h39.68L333.989,230.4c-7.144-10.392-6.278-24.318,2.099-33.744
				c8.377-9.427,22.104-11.923,33.264-6.05s16.874,18.602,13.846,30.844c-3.028,12.242-14.016,20.84-26.627,20.835
				c-2.639-0.046-5.257-0.477-7.771-1.28L155.063,507.429h27.794c8.629-0.018,16.751-4.079,21.943-10.971l279.771-373.029h-128
				C341.441,123.384,329.187,111.13,329.143,96z M265.143,264.777c0.026,17.001-5.247,33.587-15.086,47.451l-74.331,105.417
				c-7.167,10.077-18.19,16.731-30.446,18.377c-1.92,0.183-3.84,0.366-5.669,0.366c-16.774-0.002-32.108-9.476-39.617-24.474
				c-7.509-14.999-5.906-32.952,4.143-46.383l48.549-64.731c0.595-0.658,0.67-1.635,0.183-2.377
				c-0.346-0.798-1.142-1.305-2.011-1.28c-0.858-0.041-1.713-0.133-2.56-0.274c-0.655,0.181-1.332,0.273-2.011,0.274
				c-1.236,0-2.455-0.282-3.566-0.823c-20.721-4.178-34.904-23.381-32.803-44.414s19.801-37.052,40.94-37.048h68.571
				c25.244,0.009,45.705,20.471,45.714,45.714V264.777z M411.429,141.714h9.143c5.049,0,9.143,4.093,9.143,9.143
				c0,5.049-4.093,9.143-9.143,9.143h-9.143c-5.049,0-9.143-4.093-9.143-9.143C402.286,145.808,406.379,141.714,411.429,141.714z
				 M365.714,141.714h9.143c5.049,0,9.143,4.093,9.143,9.143c0,5.049-4.093,9.143-9.143,9.143h-9.143
				c-5.049,0-9.143-4.093-9.143-9.143C356.571,145.808,360.665,141.714,365.714,141.714z"/>
			<path d="M493.714,50.286c-0.007-5.047-4.096-9.136-9.143-9.143h-18.286v18.286h27.429V50.286z"/>
			<circle cx="356.571" cy="214.857" r="9.143"/>
			<path d="M502.857,77.714H347.429V96c0.007,5.047,4.096,9.136,9.143,9.143h146.286c5.047-0.007,9.136-4.096,9.143-9.143v-9.143
				C511.993,81.81,507.904,77.721,502.857,77.714z"/>
		</g>
	</g>
</g>
<g>
</g>
<g>
</g>
<g>
</g>
<g>
</g>
<g>
</g>
<g>
</g>
<g>
</g>
<g>
</g>
<g>
</g>
<g>
</g>
<g>
</g>
<g>
</g>
<g>
</g>
<g>
</g>
<g>
</g>
</svg>
