<?xml version="1.0" encoding="iso-8859-1"?>
<!-- Generator: Adobe Illustrator 19.0.0, SVG Export Plug-In . SVG Version: 6.00 Build 0)  -->
<svg version="1.1" id="Capa_1" xmlns="http://www.w3.org/2000/svg" xmlns:xlink="http://www.w3.org/1999/xlink" x="0px" y="0px"
	 viewBox="0 0 512.078 512.078" style="enable-background:new 0 0 512.078 512.078;" xml:space="preserve">
<g transform="translate(-1)">
	<g>
		<g>
			<path d="M20.166,205.242l8.319,6.829l283.44-159.435v-0.872c0.008-3.204-1.665-6.177-4.408-7.834
				c-2.743-1.656-6.153-1.753-8.985-0.255L21.425,189.863c-2.77,1.43-4.6,4.195-4.835,7.304
				C16.298,200.296,17.652,203.354,20.166,205.242z"/>
			<path d="M43.649,224.521l96.629,79.328L312.271,160.27c-0.173-0.559-0.289-1.134-0.346-1.716V73.616L43.649,224.521z"/>
			<path d="M145.146,371.382c4.953,19.081,0.795,39.38-11.261,54.977c-12.056,15.597-30.653,24.735-50.366,24.749
				c-1.978,0.001-3.964-0.09-5.96-0.272c-25.347-2.282-46.925-19.387-54.931-43.544c-8.006-24.158-0.915-50.763,18.052-67.732
				c18.967-16.969,46.195-21.066,69.316-10.43l15.203-12.692c-35.988-21.328-82.253-12.248-107.511,21.099
				s-21.465,80.341,8.814,109.207c30.28,28.865,77.401,30.407,109.503,3.584l0,0c26.716-22.314,36.495-59.027,24.421-91.674
				L145.146,371.382z"/>
			<path d="M510.438,69.925c-1.691-1.793-4.049-2.807-6.513-2.799h-41.598c-6.425,0.005-12.646,2.26-17.58,6.375L116.759,347.299
				l-0.012,0.01l-39.238,32.755c-2.096,1.746-3.305,4.335-3.299,7.063c-0.016,2.124,0.716,4.187,2.067,5.826
				c3.268,3.879,9.046,4.412,12.969,1.196l39.181-32.642l0.138-0.114L452.21,91.764c4.931-4.101,11.14-6.348,17.554-6.353h33.138
				c4.985,0.181,9.327-3.375,10.129-8.299C513.307,74.447,512.352,71.801,510.438,69.925z"/>
			<path d="M65.8,366.023l28.005-23.379c-20.917-4.921-42.437,5.391-51.707,24.777c-9.27,19.386-3.786,42.611,13.176,55.802
				c16.962,13.192,40.822,12.789,57.329-0.968c11.004-9.209,17.053-23.045,16.34-37.376l-28.032,23.354
				c-11.682,9.602-28.915,8.022-38.656-3.545v0C52.584,393.024,54.169,375.735,65.8,366.023z"/>
			<path d="M320.793,227.126l-14.537,12.16l41.966,92.251c3.008,6.793-0.009,14.741-6.766,17.829
				c-4.596,2.129-10.008,1.417-13.897-1.829l-76.8-62.08l-14.354,11.977l79.634,64.366c9.355,7.534,22.155,9.16,33.097,4.206
				c15.889-7.285,22.914-26.033,15.726-41.966L320.793,227.126z"/>
		</g>
	</g>
</g>
<g>
</g>
<g>
</g>
<g>
</g>
<g>
</g>
<g>
</g>
<g>
</g>
<g>
</g>
<g>
</g>
<g>
</g>
<g>
</g>
<g>
</g>
<g>
</g>
<g>
</g>
<g>
</g>
<g>
</g>
</svg>
