<?xml version="1.0" encoding="iso-8859-1"?>
<!-- Generator: Adobe Illustrator 19.0.0, SVG Export Plug-In . SVG Version: 6.00 Build 0)  -->
<svg version="1.1" id="Capa_1" xmlns="http://www.w3.org/2000/svg" xmlns:xlink="http://www.w3.org/1999/xlink" x="0px" y="0px"
	 viewBox="0 0 512.027 512.027" style="enable-background:new 0 0 512.027 512.027;" xml:space="preserve">
<g>
	<g>
		<g>
			<path d="M284.448,305.92c-0.781-10.237,1.891-20.441,7.589-28.983l3.749-5.669c1.743-2.599,1.357-6.076-0.914-8.229
				c-10.262-10.342-24.223-16.166-38.792-16.183c-14.569-0.017-28.544,5.774-38.83,16.091c-2.334,2.149-2.761,5.676-1.006,8.32
				l3.749,5.669c5.697,8.541,8.369,18.745,7.589,28.983L214.596,467.2c-1.234,15.579,6.38,30.533,19.703,38.701
				s30.104,8.168,43.428,0s20.937-23.122,19.703-38.701L284.448,305.92z M249.522,267.794c2.19-2.156,5.309-3.082,8.32-2.469
				c0.573,0.1,1.128,0.285,1.646,0.549c0.583,0.2,1.136,0.477,1.646,0.823c0.479,0.338,0.937,0.704,1.371,1.097
				c1.669,1.753,2.616,4.071,2.651,6.491c-0.016,0.613-0.077,1.224-0.183,1.829c-0.099,0.573-0.284,1.128-0.549,1.646
				c-0.2,0.583-0.477,1.136-0.823,1.646l-1.097,1.371l-1.371,1.097c-0.509,0.346-1.063,0.623-1.646,0.823
				c-0.518,0.264-1.073,0.449-1.646,0.549c-0.604,0.106-1.215,0.167-1.829,0.183c-2.42-0.035-4.739-0.982-6.491-2.651l-1.097-1.371
				c-0.346-0.509-0.623-1.063-0.823-1.646c-0.264-0.518-0.449-1.073-0.549-1.646c-0.106-0.604-0.167-1.215-0.183-1.829
				C246.906,271.865,247.853,269.547,249.522,267.794z M256.014,493.714c-15.148,0-27.429-12.28-27.429-27.429
				c0-15.148,12.28-27.429,27.429-27.429c15.148,0,27.429,12.28,27.429,27.429C283.398,481.416,271.143,493.67,256.014,493.714z"/>
			<path d="M393.156,45.714V64c0,15.148-12.28,27.429-27.429,27.429S338.299,79.148,338.299,64V45.714
				c0-5.049-4.093-9.143-9.143-9.143c-5.049,0-9.143,4.093-9.143,9.143v54.857c0,15.148-12.28,27.429-27.429,27.429
				s-27.429-12.28-27.429-27.429V45.714c-0.007-5.047-4.096-9.136-9.143-9.143h-9.143c-5.047,0.007-9.136,4.096-9.143,9.143V64
				c0,15.148-12.28,27.429-27.429,27.429S182.871,79.148,182.871,64V45.714c-0.007-5.047-4.096-9.136-9.143-9.143H75.427
				c7.613,52.068,35.856,138.585,134.646,208.226c26.803-21.637,65.072-21.634,91.872,0.007
				C400.74,175.163,428.986,88.644,436.6,36.572h-34.3C397.253,36.578,393.163,40.668,393.156,45.714z"/>
			<path d="M436.594,2.799C434.868,1,432.48-0.012,429.987,0H82.04c-2.493-0.012-4.882,1-6.607,2.799
				c-1.725,1.772-2.644,4.177-2.54,6.647c0.098,2.697,0.257,5.655,0.494,8.839h100.341c15.142,0.017,27.412,12.287,27.429,27.429V64
				c0,5.049,4.093,9.143,9.143,9.143s9.143-4.093,9.143-9.143V45.714c0.016-15.142,12.287-27.412,27.429-27.429h9.143
				c15.142,0.017,27.412,12.287,27.429,27.429v54.857c0,5.049,4.093,9.143,9.143,9.143s9.143-4.093,9.143-9.143V45.714
				c0-15.148,12.28-27.429,27.429-27.429c15.148,0,27.429,12.28,27.429,27.429V64c0,5.049,4.093,9.143,9.143,9.143
				s9.143-4.093,9.143-9.143V45.714c0.017-15.142,12.287-27.412,27.429-27.429h36.341c0.237-3.186,0.396-6.145,0.494-8.844
				C439.237,6.973,438.318,4.57,436.594,2.799z"/>
		</g>
	</g>
</g>
<g>
</g>
<g>
</g>
<g>
</g>
<g>
</g>
<g>
</g>
<g>
</g>
<g>
</g>
<g>
</g>
<g>
</g>
<g>
</g>
<g>
</g>
<g>
</g>
<g>
</g>
<g>
</g>
<g>
</g>
</svg>
