<?xml version="1.0" encoding="iso-8859-1"?>
<!-- Generator: Adobe Illustrator 19.0.0, SVG Export Plug-In . SVG Version: 6.00 Build 0)  -->
<svg version="1.1" id="Capa_1" xmlns="http://www.w3.org/2000/svg" xmlns:xlink="http://www.w3.org/1999/xlink" x="0px" y="0px"
	 viewBox="0 0 512.006 512.006" style="enable-background:new 0 0 512.006 512.006;" xml:space="preserve">
<g>
	<g>
		<g>
			<path d="M283.431,388.571c0-22.304-12.562-41.143-27.429-41.143s-27.429,18.839-27.429,41.143c0,1.567,0.08,3.138,0.17,4.625
				c-0.01,0.784-0.125,1.563-0.34,2.317c0.061,2.251,0.171,4.427,0.171,6.772v82.286c-0.003,7.748,3.272,15.136,9.015,20.337
				c5.743,5.201,13.418,7.73,21.128,6.962c14.385-1.921,25.027-14.348,24.714-28.857v-80.728c0-2.345,0.11-4.521,0.171-6.772
				c-0.216-0.754-0.33-1.533-0.34-2.317C283.351,391.71,283.431,390.138,283.431,388.571z M262.494,491.063
				c-2.616,2.637-6.567,3.43-9.998,2.006s-5.658-4.783-5.637-8.497c-0.034-1.201,0.217-2.393,0.732-3.478
				c0.464-1.107,1.113-2.126,1.92-3.013c3.666-3.384,9.316-3.384,12.982,0c0.807,0.888,1.456,1.907,1.92,3.013
				c0.469,1.1,0.717,2.282,0.731,3.478C265.109,486.992,264.162,489.309,262.494,491.063z"/>
			<path d="M502.86,0H9.146C4.098,0.005,0.008,4.095,0.003,9.143v173.714h512V9.143C511.998,4.095,507.907,0.005,502.86,0z"/>
			<path d="M0.003,219.429c0.03,25.235,20.479,45.685,45.714,45.714h146.286c0.03-25.235,20.479-45.685,45.714-45.714h36.571
				c25.235,0.03,45.685,20.479,45.714,45.714h146.286c25.235-0.03,45.685-20.479,45.714-45.714v-18.286h-512V219.429z
				 M347.431,219.429h128c5.049,0,9.143,4.093,9.143,9.143c0,5.049-4.093,9.143-9.143,9.143h-128c-5.049,0-9.143-4.093-9.143-9.143
				C338.289,223.522,342.382,219.429,347.431,219.429z M36.574,219.429h128c5.049,0,9.143,4.093,9.143,9.143
				c0,5.049-4.093,9.143-9.143,9.143h-128c-5.049,0-9.143-4.093-9.143-9.143C27.431,223.522,31.525,219.429,36.574,219.429z"/>
			<path d="M274.289,237.714h-36.571c-15.142,0.017-27.412,12.287-27.429,27.429v37.946c0.031,8.618,1.776,17.143,5.134,25.08
				c2.741,6.673,5.01,13.53,6.788,20.521c7.345-11.696,19.991-19.011,33.792-19.547c13.801,0.536,26.447,7.852,33.792,19.548
				c1.778-6.99,4.047-13.846,6.788-20.517c3.357-7.939,5.103-16.466,5.134-25.085v-37.946
				C301.701,250.001,289.43,237.731,274.289,237.714z M246.86,283.429c0,5.049-4.093,9.143-9.143,9.143s-9.143-4.093-9.143-9.143
				v-9.143c0-5.049,4.093-9.143,9.143-9.143s9.143,4.093,9.143,9.143V283.429z M283.431,283.429c0,5.049-4.093,9.143-9.143,9.143
				c-5.049,0-9.143-4.093-9.143-9.143v-9.143c0-5.049,4.093-9.143,9.143-9.143c5.049,0,9.143,4.093,9.143,9.143V283.429z"/>
		</g>
	</g>
</g>
<g>
</g>
<g>
</g>
<g>
</g>
<g>
</g>
<g>
</g>
<g>
</g>
<g>
</g>
<g>
</g>
<g>
</g>
<g>
</g>
<g>
</g>
<g>
</g>
<g>
</g>
<g>
</g>
<g>
</g>
</svg>
