<?xml version="1.0" encoding="iso-8859-1"?>
<!-- Generator: Adobe Illustrator 19.0.0, SVG Export Plug-In . SVG Version: 6.00 Build 0)  -->
<svg version="1.1" id="Capa_1" xmlns="http://www.w3.org/2000/svg" xmlns:xlink="http://www.w3.org/1999/xlink" x="0px" y="0px"
	 viewBox="0 0 511.887 511.887" style="enable-background:new 0 0 511.887 511.887;" xml:space="preserve">
<g>
	<g>
		<g>
			<path d="M301.49,172.301l-13.344,6.669c-16.323,8.166-30.527,20.011-41.491,34.603L201.86,273.22
				c-9.781,13.087-21.081,24.968-33.661,35.393L9.691,437.037c-5.816,4.87-9.322,11.958-9.663,19.536s2.513,14.952,7.869,20.325
				l20.607,20.603c5.384,5.366,12.777,8.221,20.37,7.867c7.593-0.354,14.688-3.885,19.55-9.728l128.295-158.353
				c10.448-12.626,22.366-23.961,35.5-33.763l59.598-44.768c14.597-10.967,26.447-25.176,34.616-41.504l6.663-13.324
				C319.47,197.007,308.401,185.93,301.49,172.301z"/>
			<path d="M263.646,88.05l0.009,0.009l57.446-57.46l-18.929-18.933c-7.237-6.902-18.62-6.902-25.857,0L244.717,43.26
				c-3.43,3.429-5.357,8.081-5.357,12.931c0,4.85,1.927,9.502,5.357,12.931L263.646,88.05z"/>
			<path d="M305.126,100.108c7.312-11.415,17.715-20.519,30-26.251c-4.838-5.967-8.786-12.604-11.722-19.703L287.72,89.838
				C294.034,92.308,299.911,95.776,305.126,100.108z"/>
			<path d="M431.436,170.498c-3.535,7.468-8.323,14.276-14.156,20.128v0c-3.576,3.566-7.512,6.752-11.745,9.506
				c4.675,4.848,8.306,10.604,10.667,16.912l34.632-34.632C443.723,179.601,437.159,175.569,431.436,170.498z"/>
			<path d="M386.766,89.322c-23.883-9.894-51.43-1.541-65.794,19.952c-14.365,21.493-11.548,50.14,6.728,68.423
				c10.17,10.16,23.955,15.871,38.33,15.88c25.851-0.002,48.102-18.264,53.145-43.619
				C424.218,124.603,410.649,99.216,386.766,89.322z"/>
			<path d="M506.53,216.023l-31.723-31.728l-57.455,57.455l31.723,31.728c7.148,7.129,18.718,7.129,25.866,0l31.589-31.594
				c3.43-3.429,5.357-8.081,5.357-12.931C511.887,224.104,509.96,219.452,506.53,216.023z"/>
		</g>
	</g>
</g>
<g>
</g>
<g>
</g>
<g>
</g>
<g>
</g>
<g>
</g>
<g>
</g>
<g>
</g>
<g>
</g>
<g>
</g>
<g>
</g>
<g>
</g>
<g>
</g>
<g>
</g>
<g>
</g>
<g>
</g>
</svg>
