<?xml version="1.0" encoding="iso-8859-1"?>
<!-- Generator: Adobe Illustrator 19.0.0, SVG Export Plug-In . SVG Version: 6.00 Build 0)  -->
<svg version="1.1" id="Capa_1" xmlns="http://www.w3.org/2000/svg" xmlns:xlink="http://www.w3.org/1999/xlink" x="0px" y="0px"
	 viewBox="0 0 512.016 512.016" style="enable-background:new 0 0 512.016 512.016;" xml:space="preserve">
<g>
	<g>
		<g>
			<path d="M267.703,303.701l17.371-17.28l9.234-9.326l-85.943-85.943c-1.716-1.737-4.05-2.723-6.491-2.743
				c-2.445,0.003-4.785,0.992-6.491,2.743l-13.623,13.623c-3.566,3.593-3.566,9.39,0,12.983L267.703,303.701z"/>
			
				<rect x="281.849" y="54.765" transform="matrix(0.7071 0.7071 -0.7071 0.7071 186.2154 -171.944)" width="37.626" height="168.089"/>
			<path d="M175.542,237.324l-172.8,172.8c-3.657,3.698-3.657,9.65,0,13.349L16,436.73c3.698,3.657,9.65,3.657,13.349,0l172.8-172.8
				L175.542,237.324z"/>
			<path d="M326.857,283.313c-1.704-1.688-4.002-2.64-6.4-2.651c-2.426,0.01-4.753,0.96-6.491,2.651l-20.023,20.023l-19.749,19.749
				v0.091l-13.257,13.257l0.091,0.091l39.497,39.589l0.183,0.091l53.029-53.12c1.712-1.708,2.675-4.027,2.675-6.446
				c0-2.419-0.962-4.738-2.675-6.446L326.857,283.313z"/>
			<path d="M392.777,6.65c-1.72-1.72-4.059-2.676-6.491-2.651c-2.405-0.024-4.716,0.934-6.4,2.651l-26.88,26.88
				c-3.535,3.57-3.535,9.321,0,12.891l53.12,53.12l39.68-39.771L392.777,6.65z M405.943,59.587
				c-1.686,1.752-4.014,2.743-6.446,2.743c-2.432,0-4.759-0.99-6.446-2.743l-6.583-6.583c-3.56-3.56-3.56-9.332,0-12.891
				s9.332-3.56,12.891,0l6.583,6.583c1.712,1.708,2.674,4.027,2.674,6.446C408.616,55.56,407.654,57.879,405.943,59.587z"/>
			<path d="M511.268,185.118l-55.04-109.897l-37.211,37.211l80.914,80.914c2.473,2.436,6.345,2.727,9.154,0.688
				S512.818,188.225,511.268,185.118z"/>
			<path d="M241.188,369.347l6.766,6.857l-26.331,26.331l-0.091-0.091c-7.313-6.995-18.836-6.995-26.149,0l-6.583,6.583
				c-3.77,3.566-9.669,3.566-13.44,0c-3.595-3.474-9.297-3.474-12.891,0l-19.749,19.749c-18.128,18.128-18.128,47.518,0,65.646
				c18.128,18.128,47.518,18.128,65.646,0l19.749-19.749c1.669-1.753,2.616-4.071,2.651-6.491c-0.018-2.424-0.967-4.748-2.651-6.491
				c-1.827-1.737-2.853-4.153-2.834-6.674c-0.002-2.544,1.02-4.983,2.834-6.766l6.583-6.583c7.132-7.222,7.132-18.835,0-26.057
				l-0.183-0.183l26.331-26.331l6.857,6.857h0.091l13.349-13.44l-26.606-26.606L241.188,369.347z"/>
			<polygon points="353.499,244.072 366.793,257.365 344.045,280.113 356.973,293.041 379.721,270.293 393.024,283.596 
				405.952,270.668 366.427,231.144 			"/>
		</g>
	</g>
</g>
<g>
</g>
<g>
</g>
<g>
</g>
<g>
</g>
<g>
</g>
<g>
</g>
<g>
</g>
<g>
</g>
<g>
</g>
<g>
</g>
<g>
</g>
<g>
</g>
<g>
</g>
<g>
</g>
<g>
</g>
</svg>
