<?xml version="1.0" encoding="iso-8859-1"?>
<!-- Generator: Adobe Illustrator 19.0.0, SVG Export Plug-In . SVG Version: 6.00 Build 0)  -->
<svg version="1.1" id="Capa_1" xmlns="http://www.w3.org/2000/svg" xmlns:xlink="http://www.w3.org/1999/xlink" x="0px" y="0px"
	 viewBox="0 0 510.97 510.97" style="enable-background:new 0 0 510.97 510.97;" xml:space="preserve">
<g>
	<g>
		<g>
			<path d="M134.65,234.724c-2.303-0.579-4.666-0.886-7.04-0.914c-7.2,0.006-14.105,2.867-19.2,7.954L2.627,347.181
				c-2.206,2.228-3.106,5.437-2.38,8.487c0.725,3.05,2.973,5.51,5.946,6.507l12.983,4.297c12.793,4.234,23.905,12.432,31.726,23.406
				l70.491,98.651c1.711,2.455,4.533,3.895,7.525,3.84c2.992-0.055,5.759-1.598,7.378-4.114l55.04-85.211l12.891-73.874
				l-24.32-82.194L134.65,234.724z M161.621,419.319c-6.841,6.836-16.112,10.682-25.783,10.697
				c-9.647,0.002-18.896-3.849-25.691-10.697l-51.383-51.383c-14.171-14.196-14.171-37.187,0-51.383
				c6.815-6.847,16.077-10.697,25.737-10.697c9.66,0,18.923,3.85,25.737,10.697l51.383,51.291
				C175.762,382.089,175.762,405.074,161.621,419.319z"/>
			<path d="M431.153,21.239c-1.683-1.69-3.969-2.64-6.354-2.64s-4.672,0.95-6.354,2.64L197.553,242.13l24.869,83.931
				c0.367,1.37,0.46,2.799,0.274,4.206l-13.623,77.714c-0.182,1.249-0.652,2.438-1.371,3.474l-1.006,1.554l7.68,7.68l8.96-35.749
				c0.767-3.201,3.222-5.726,6.4-6.583c3.168-0.919,6.585-0.004,8.869,2.377l7.863,7.863l8.96-35.749
				c0.8-3.203,3.266-5.725,6.45-6.597c3.184-0.872,6.591,0.042,8.91,2.391l7.771,7.863l8.96-35.749
				c0.826-3.168,3.257-5.668,6.4-6.583c3.197-0.907,6.633,0.005,8.96,2.377l7.771,7.771l8.96-35.657
				c0.797-3.184,3.24-5.697,6.4-6.583c3.181-0.893,6.596-0.022,8.96,2.286l7.863,7.863l8.869-35.657
				c0.824-3.181,3.278-5.684,6.443-6.569c3.165-0.885,6.562-0.02,8.917,2.272l7.863,7.863l8.869-35.657
				c0.777-3.217,3.232-5.763,6.419-6.654c3.187-0.892,6.607,0.01,8.941,2.357l7.863,7.863l8.96-35.749
				c0.766-3.201,3.222-5.727,6.4-6.583c3.169-0.815,6.533,0.086,8.869,2.377l7.863,7.863l8.96-35.749
				c0.783-3.192,3.232-5.71,6.4-6.583c3.168-0.873,6.561,0.037,8.868,2.377l7.863,7.863l8.96-35.749
				c0.8-3.203,3.266-5.725,6.45-6.597c3.184-0.872,6.591,0.042,8.911,2.391l7.771,7.863l7.68-30.72L431.153,21.239z"/>
		</g>
	</g>
</g>
<g>
</g>
<g>
</g>
<g>
</g>
<g>
</g>
<g>
</g>
<g>
</g>
<g>
</g>
<g>
</g>
<g>
</g>
<g>
</g>
<g>
</g>
<g>
</g>
<g>
</g>
<g>
</g>
<g>
</g>
</svg>
