<?xml version="1.0" encoding="iso-8859-1"?>
<!-- Generator: Adobe Illustrator 19.0.0, SVG Export Plug-In . SVG Version: 6.00 Build 0)  -->
<svg version="1.1" id="Capa_1" xmlns="http://www.w3.org/2000/svg" xmlns:xlink="http://www.w3.org/1999/xlink" x="0px" y="0px"
	 viewBox="0 0 511.968 511.968" style="enable-background:new 0 0 511.968 511.968;" xml:space="preserve">
<g>
	<g>
		<g>
			<path d="M297.453,225.19c-2.426,0.01-4.753,0.96-6.491,2.651L116.333,402.47c-2.332,2.313-3.244,5.699-2.391,8.871
				c0.853,3.172,3.342,5.643,6.519,6.474c3.178,0.831,6.557-0.105,8.854-2.453l174.629-174.537c3.566-3.593,3.566-9.39,0-12.983
				C302.196,226.165,299.875,225.217,297.453,225.19z"/>
			<path d="M411.19,128.093c-0.091-0.183-0.091-0.457-0.183-0.64l-18.56-33.646c-9.731-17.703-3.313-39.942,14.354-49.737
				l75.246-41.326l0.549-0.274l0.183-0.091L377.91,0.184c-1.28-0.091-2.469-0.183-3.657-0.183
				c-19.828-0.157-37.504,12.464-43.794,31.269l-40.137,120.594c-7.663,22.897-20.524,43.707-37.577,60.8L31.487,433.921
				c-17.82,17.859-17.814,46.775,0.013,64.627c17.827,17.852,46.742,17.899,64.627,0.104L354.779,239.91
				c0.355-0.354,0.755-0.662,1.188-0.914l83.657-59.794l-27.977-50.56C411.556,128.367,411.282,128.276,411.19,128.093z
				 M89.453,479.361c-10.705,10.705-28.061,10.705-38.766,0c-10.705-10.705-10.705-28.061,0-38.766s28.061-10.705,38.766,0
				c5.193,5.113,8.117,12.095,8.117,19.383C97.57,467.266,94.646,474.249,89.453,479.361z M316.836,253.716L142.207,428.344
				c-10.741,10.639-28.064,10.587-38.741-0.116s-10.688-28.025-0.024-38.741L278.07,214.95c10.708-10.698,28.058-10.698,38.766,0
				c5.151,5.135,8.046,12.109,8.046,19.383C324.882,241.606,321.987,248.58,316.836,253.716z M402.193,169.946
				c-1.801,7.203-6.392,13.395-12.762,17.209c-4.319,2.646-9.289,4.039-14.354,4.023c-9.834,0.019-18.959-5.116-24.046-13.531
				l-19.383-32.366c-3.832-6.329-4.992-13.92-3.226-21.105c1.766-7.184,6.314-13.373,12.643-17.204
				c0.091-0.091,0.091-0.091,0.183-0.091c6.365-3.82,13.987-4.955,21.189-3.154s13.393,6.388,17.211,12.754l19.383,32.274
				C402.856,155.119,403.993,162.743,402.193,169.946z"/>
			<path d="M431.853,127.361l22.309,40.411c21.99-18.803,36.146-45.157,39.68-73.874L431.853,127.361z"/>
			<path d="M363.922,125.807c-2.741-4.517-8.587-6.019-13.166-3.383l-0.091,0.091c-2.223,1.308-3.834,3.446-4.48,5.943
				c-0.607,2.518-0.214,5.172,1.097,7.406l19.383,32.366c2.781,4.612,8.772,6.1,13.388,3.326c4.616-2.775,6.112-8.763,3.344-13.383
				L363.922,125.807z"/>
		</g>
	</g>
</g>
<g>
</g>
<g>
</g>
<g>
</g>
<g>
</g>
<g>
</g>
<g>
</g>
<g>
</g>
<g>
</g>
<g>
</g>
<g>
</g>
<g>
</g>
<g>
</g>
<g>
</g>
<g>
</g>
<g>
</g>
</svg>
