<?xml version="1.0" encoding="iso-8859-1"?>
<!-- Generator: Adobe Illustrator 19.0.0, SVG Export Plug-In . SVG Version: 6.00 Build 0)  -->
<svg version="1.1" id="Capa_1" xmlns="http://www.w3.org/2000/svg" xmlns:xlink="http://www.w3.org/1999/xlink" x="0px" y="0px"
	 viewBox="0 0 512.056 512.056" style="enable-background:new 0 0 512.056 512.056;" xml:space="preserve">
<g>
	<g>
		<path d="M485.573,101.545h17.655c4.875,0,8.828-3.952,8.828-8.828V75.062c0-4.875-3.952-8.828-8.828-8.828h-8.828V48.58
			c-0.016-14.619-11.863-26.467-26.483-26.483h-17.655c-14.619,0.016-26.467,11.863-26.483,26.483v17.655H88.332V48.58
			C88.316,33.96,76.468,22.113,61.849,22.097H44.194C29.574,22.113,17.727,33.96,17.711,48.58v17.655H8.883
			c-4.875,0-8.828,3.952-8.828,8.828v17.655c0,4.875,3.952,8.828,8.828,8.828h17.655v61.793c0.024,4.04,0.982,8.02,2.798,11.629
			c-0.449,0.242-0.875,0.525-1.272,0.845L2.642,201.235c-2.264,2.223-3.16,5.49-2.348,8.556c0.812,3.067,3.207,5.462,6.274,6.274
			c3.067,0.812,6.333-0.085,8.556-2.348l25.422-25.422c0.32-0.397,0.603-0.823,0.845-1.272c3.609,1.817,7.589,2.774,11.63,2.798
			c14.626,0,26.483-11.857,26.483-26.483v-61.793h35.31v97.103L33.13,468.208c-1.548,5.109-0.586,10.649,2.595,14.936
			s8.203,6.815,13.541,6.815h0.074c7.428,0,13.982-4.862,16.136-11.971l7.23-23.857c0.822,0.302,1.686,0.476,2.561,0.517h361.582
			c0.874-0.041,1.736-0.215,2.557-0.516l7.229,23.856c2.155,7.109,8.708,11.971,16.136,11.971h0.074
			c5.338,0,10.361-2.528,13.541-6.815c3.181-4.287,4.143-9.827,2.595-14.936l-81.685-269.56v-97.103h35.31v61.793
			c0,14.626,11.857,26.483,26.483,26.483c4.04-0.024,8.02-0.982,11.629-2.798c0.242,0.449,0.525,0.875,0.845,1.272l25.423,25.423
			c3.456,3.394,9.001,3.369,12.426-0.056c3.425-3.425,3.45-8.97,0.056-12.426l-25.422-25.422c-0.397-0.32-0.823-0.603-1.272-0.845
			c1.817-3.609,2.774-7.589,2.798-11.63V101.545z M61.849,138.477c-5.686-2.162-11.969-2.162-17.655,0v-28.105h17.655V138.477z
			 M70.676,57.407h-35.31V48.58c0.006-4.873,3.955-8.821,8.828-8.828h17.655c4.873,0.006,8.821,3.955,8.828,8.828V57.407z
			 M150.125,101.545h211.862v52.966H150.125V101.545z M150.125,172.166h211.862v17.655H150.125V172.166z M412.656,365.857
			l21.557,71.137H77.899l21.557-71.137c0.821,0.301,1.683,0.475,2.557,0.516h308.086
			C410.973,366.332,411.835,366.158,412.656,365.857z M407.462,348.718H104.649l42.801-141.241h217.212L407.462,348.718z
			 M467.918,138.477c-5.686-2.162-11.969-2.162-17.655,0v-28.105h17.655V138.477z M476.745,57.407h-35.31V48.58
			c0.005-4.873,3.954-8.823,8.828-8.828h17.655c4.873,0.005,8.823,3.954,8.828,8.828V57.407z"/>
	</g>
</g>
<g>
</g>
<g>
</g>
<g>
</g>
<g>
</g>
<g>
</g>
<g>
</g>
<g>
</g>
<g>
</g>
<g>
</g>
<g>
</g>
<g>
</g>
<g>
</g>
<g>
</g>
<g>
</g>
<g>
</g>
</svg>
