<?xml version="1.0" encoding="iso-8859-1"?>
<!-- Generator: Adobe Illustrator 19.0.0, SVG Export Plug-In . SVG Version: 6.00 Build 0)  -->
<svg version="1.1" id="Capa_1" xmlns="http://www.w3.org/2000/svg" xmlns:xlink="http://www.w3.org/1999/xlink" x="0px" y="0px"
	 viewBox="0 0 512.025 512.025" style="enable-background:new 0 0 512.025 512.025;" xml:space="preserve">
<g transform="translate(-1 -1)">
	<g>
		<g>
			<path d="M247.963,266.06c-11.141-11.143-29.053-11.625-40.777-1.097L15.277,437.671c-8.795,7.93-13.951,19.123-14.262,30.961
				c-0.311,11.839,4.25,23.286,12.616,31.667l0.091,0.091c8.381,8.367,19.829,12.928,31.667,12.616
				c11.839-0.311,23.031-5.467,30.961-14.262L249.06,306.837C259.586,295.112,259.104,277.202,247.963,266.06z M65.746,487.226
				c-10.761,10.722-28.171,10.706-38.913-0.036c-10.741-10.741-10.757-28.152-0.036-38.913c10.909-10.377,28.039-10.377,38.949,0
				C76.473,459.044,76.473,476.459,65.746,487.226z"/>
			<path d="M508.169,5.854c-4.965-5.035-12.611-6.291-18.926-3.109L118.866,184.963c-2.719,1.252-4.614,3.801-5.029,6.766
				c-0.463,2.935,0.486,5.917,2.56,8.046l64.366,64.366l14.171-12.709c18.939-17.045,47.907-16.284,65.924,1.733
				c18.017,18.017,18.779,46.985,1.733,65.924l-12.709,14.171l64.366,64.366c2.121,2.086,5.109,3.036,8.046,2.56
				c2.964-0.415,5.514-2.31,6.766-5.029L511.277,24.872C514.467,18.528,513.212,10.852,508.169,5.854z M286.911,240.094
				l-1.371,1.097c-0.509,0.346-1.063,0.623-1.646,0.823c-0.518,0.264-1.073,0.449-1.646,0.549c-0.604,0.106-1.215,0.167-1.829,0.183
				c-3.696-0.015-7.023-2.246-8.441-5.66c-1.418-3.414-0.649-7.345,1.949-9.974c2.196-2.145,5.309-3.068,8.32-2.469
				c0.573,0.1,1.128,0.285,1.646,0.549c0.583,0.2,1.136,0.477,1.646,0.823c0.479,0.338,0.937,0.704,1.371,1.097
				C290.446,230.717,290.446,236.489,286.911,240.094z M312.969,214.037c-1.729,1.706-4.063,2.659-6.491,2.651
				c-1.218,0.01-2.427-0.207-3.566-0.64c-1.077-0.509-2.065-1.188-2.926-2.011c-1.684-1.743-2.634-4.068-2.651-6.491
				c0.018-2.397,0.969-4.692,2.651-6.4c0.812-0.881,1.812-1.569,2.926-2.011c3.454-1.394,7.405-0.604,10.057,2.011
				c1.682,1.708,2.633,4.003,2.651,6.4C315.585,209.966,314.638,212.284,312.969,214.037z M338.934,187.98
				c-2.576,2.686-6.55,3.488-9.966,2.011c-1.114-0.443-2.113-1.13-2.926-2.011c-1.743-1.674-2.732-3.983-2.743-6.4
				c0.009-2.444,0.997-4.781,2.743-6.491c3.631-3.383,9.26-3.383,12.891,0c1.72,1.72,2.676,4.059,2.651,6.491
				C341.609,183.985,340.652,186.296,338.934,187.98z M366.911,158.997c-0.42,1.13-1.074,2.158-1.92,3.017
				c-0.874,0.826-1.898,1.478-3.017,1.92c-2.214,0.975-4.735,0.975-6.949,0c-1.13-0.42-2.158-1.074-3.017-1.92
				c-3.585-3.585-3.585-9.398,0-12.983c3.585-3.585,9.398-3.585,12.983,0c0.846,0.859,1.5,1.887,1.92,3.017
				C367.886,154.262,367.886,156.784,366.911,158.997z M390.957,135.957c-1.684,1.718-3.995,2.675-6.4,2.651
				c-0.611,0.015-1.222-0.015-1.829-0.091c-0.549-0.183-1.189-0.366-1.737-0.549c-0.549-0.274-1.097-0.549-1.554-0.823
				c-0.498-0.347-0.958-0.745-1.371-1.189c-1.718-1.684-2.675-3.995-2.651-6.4c-0.018-0.611,0.013-1.222,0.091-1.829
				c0.183-0.549,0.366-1.189,0.549-1.737c0.274-0.549,0.549-1.097,0.823-1.554c0.323-0.516,0.724-0.979,1.189-1.371
				c0.414-0.444,0.874-0.842,1.371-1.189c0.457-0.274,1.006-0.549,1.554-0.823c0.549-0.183,1.189-0.366,1.737-0.549
				c2.996-0.536,6.065,0.419,8.229,2.56c0.465,0.393,0.866,0.855,1.189,1.371c0.274,0.457,0.549,1.006,0.823,1.554
				c0.183,0.549,0.366,1.189,0.549,1.737c0.111,0.604,0.172,1.215,0.183,1.829C393.689,131.974,392.7,134.283,390.957,135.957z
				 M417.014,109.992c-2.616,2.637-6.567,3.43-9.998,2.006c-3.43-1.424-5.658-4.783-5.637-8.497
				c0.016-0.613,0.077-1.224,0.183-1.829c0.1-0.573,0.285-1.128,0.549-1.646c0.2-0.583,0.477-1.136,0.823-1.646l1.097-1.371
				c3.666-3.383,9.316-3.383,12.983,0c0.393,0.434,0.76,0.892,1.097,1.371c0.339,0.529,0.645,1.078,0.914,1.646
				c0.195,0.536,0.347,1.086,0.457,1.646c0.151,0.597,0.213,1.213,0.183,1.829C419.673,105.929,418.72,108.262,417.014,109.992z
				 M442.98,83.934c-0.861,0.823-1.849,1.502-2.926,2.011c-1.105,0.44-2.285,0.658-3.474,0.64c-2.427,0-4.758-0.952-6.491-2.651
				c-1.72-1.72-2.676-4.059-2.651-6.491c-0.007-2.429,0.946-4.762,2.651-6.491c3.631-3.383,9.26-3.383,12.891,0
				c1.731,1.72,2.716,4.052,2.743,6.491C445.713,79.886,444.726,82.224,442.98,83.934z M471.506,53.214
				c-0.098,0.592-0.251,1.174-0.457,1.737c-0.25,0.548-0.556,1.069-0.914,1.554c-0.261,0.532-0.635,1-1.097,1.371
				c-1.71,1.746-4.048,2.733-6.491,2.743c-2.417-0.01-4.726-1-6.4-2.743c-0.465-0.392-0.866-0.855-1.189-1.371
				c-0.274-0.457-0.549-1.006-0.823-1.554c-0.183-0.549-0.366-1.097-0.549-1.737c-0.106-0.573-0.167-1.154-0.183-1.737
				c0.009-2.444,0.997-4.781,2.743-6.491c1.69-1.746,4.016-2.731,6.446-2.731s4.756,0.986,6.446,2.731
				c1.72,1.719,2.676,4.059,2.651,6.491C471.718,52.062,471.656,52.648,471.506,53.214z"/>
		</g>
	</g>
</g>
<g>
</g>
<g>
</g>
<g>
</g>
<g>
</g>
<g>
</g>
<g>
</g>
<g>
</g>
<g>
</g>
<g>
</g>
<g>
</g>
<g>
</g>
<g>
</g>
<g>
</g>
<g>
</g>
<g>
</g>
</svg>
