<?xml version="1.0" encoding="iso-8859-1"?>
<!-- Generator: Adobe Illustrator 19.0.0, SVG Export Plug-In . SVG Version: 6.00 Build 0)  -->
<svg version="1.1" id="Capa_1" xmlns="http://www.w3.org/2000/svg" xmlns:xlink="http://www.w3.org/1999/xlink" x="0px" y="0px"
	 viewBox="0 0 512.055 512.055" style="enable-background:new 0 0 512.055 512.055;" xml:space="preserve">
<g transform="translate(0 -1)">
	<g>
		<g>
			<circle cx="493.735" cy="348.483" r="18.286"/>
			<path d="M512.021,379.967c-16.217,9.676-37.153,5.186-47.975-10.29c-27.905,8.252-48.291,32.224-51.954,61.092h99.929V379.967z"
				/>
			<path d="M342.878,298.198c16.233,0.016,32.002-5.421,44.776-15.439l-102.48-102.48c-10.018,12.774-15.455,28.542-15.439,44.776
				C269.781,265.431,302.501,298.152,342.878,298.198z"/>
			<path d="M210.306,225.055c-0.063,51.965,30.275,99.163,77.574,120.683c47.299,21.52,102.814,13.385,141.949-20.803l-29.12-29.12
				c-36.334,29.741-89.294,27.106-122.496-6.096c-33.202-33.202-35.837-86.162-6.096-122.496l-29.12-29.12
				C221.906,162.157,210.286,193.063,210.306,225.055z"/>
			<path d="M235.056,104.305l14.058,14.058l0.013,0.009l0.005,0.009l200.415,200.414l0.013,0.009l0.005,0.009l12.227,12.227
				c5.299-9.751,14.749-16.559,25.677-18.495c43.435-71.671,27.81-164.344-36.724-217.81s-158.497-51.586-220.84,4.418
				L235.056,104.305z"/>
			<path d="M210.306,403.341c-0.007-5.047-4.096-9.136-9.143-9.143H27.449c-5.047,0.007-9.136,4.096-9.143,9.143v27.429h192V403.341
				z"/>
			<path d="M217.129,86.377c4.592-4.161,9.329-8.054,14.213-11.679l-15.642-15.64l-12.946,12.942L217.129,86.377z"/>
			<path d="M512.025,449.055H0.021v45.714c0.01,10.095,8.191,18.276,18.286,18.286h18.286c10.095-0.01,18.276-8.191,18.286-18.286
				v-27.429h402.286v27.429c0.01,10.095,8.191,18.276,18.286,18.286h18.286c10.095-0.01,18.276-8.191,18.286-18.286v-27.429h0.013
				L512.025,449.055z M18.306,494.769v-27.429h18.29l0.009,27.429H18.306z M475.449,494.769v-27.429h18.29l0.009,27.429H475.449z"/>
			<polygon points="213.351,35.496 147.861,1 140.162,9.411 189.799,59.048 			"/>
		</g>
	</g>
</g>
<g>
</g>
<g>
</g>
<g>
</g>
<g>
</g>
<g>
</g>
<g>
</g>
<g>
</g>
<g>
</g>
<g>
</g>
<g>
</g>
<g>
</g>
<g>
</g>
<g>
</g>
<g>
</g>
<g>
</g>
</svg>
