<?xml version="1.0" encoding="iso-8859-1"?>
<!-- Generator: Adobe Illustrator 19.0.0, SVG Export Plug-In . SVG Version: 6.00 Build 0)  -->
<svg version="1.1" id="Capa_1" xmlns="http://www.w3.org/2000/svg" xmlns:xlink="http://www.w3.org/1999/xlink" x="0px" y="0px"
	 viewBox="0 0 512 512" style="enable-background:new 0 0 512 512;" xml:space="preserve">
<g>
	<g>
		<g>
			<path d="M264.828,429.879v-85.603h-17.655v85.603l-14.69,22.034c-1.936,2.899-2.969,6.307-2.966,9.793v32.638
				c0.01,9.747,7.909,17.645,17.655,17.655h17.655c9.747-0.01,17.645-7.909,17.655-17.655v-32.638
				c0.003-3.486-1.029-6.894-2.966-9.793L264.828,429.879z M247.172,494.345v-32.638L256,448.465l8.828,13.241l0.013,32.638H247.172
				z"/>
			<path d="M194.207,32.845l-35.31-11.772V0h-17.655v17.655H70.621c-4.875,0-8.828,3.952-8.828,8.828
				c0,4.875,3.952,8.828,8.828,8.828h70.621v17.655h17.655v-15.19l35.31,11.772V32.845z"/>
			<rect x="238.345" y="105.931" width="35.31" height="17.655"/>
			<path d="M231.621,322.69c1.635,2.458,4.393,3.933,7.345,3.931h34.069c2.952,0.002,5.709-1.473,7.345-3.931l20.919-31.379h-90.595
				L231.621,322.69z"/>
			<path d="M220.69,88.276h70.621c4.873-0.006,8.821-3.955,8.828-8.828V26.483c-0.006-4.873-3.955-8.821-8.828-8.828H220.69
				c-4.873,0.006-8.821,3.955-8.828,8.828v52.966C211.868,84.321,215.817,88.27,220.69,88.276z M238.345,44.138h35.31
				c4.875,0,8.828,3.952,8.828,8.828s-3.952,8.828-8.828,8.828h-35.31c-4.875,0-8.828-3.952-8.828-8.828
				S233.469,44.138,238.345,44.138z"/>
			<path d="M308.966,141.241H203.034c-4.873,0.006-8.821,3.955-8.828,8.828v123.586h123.586V150.069
				C317.787,145.196,313.838,141.248,308.966,141.241z M229.517,247.172c0,4.875-3.952,8.828-8.828,8.828
				c-4.875,0-8.828-3.952-8.828-8.828v-79.448c0-4.875,3.952-8.828,8.828-8.828c4.875,0,8.828,3.952,8.828,8.828V247.172z
				 M264.828,247.172c0,4.875-3.952,8.828-8.828,8.828c-4.875,0-8.828-3.952-8.828-8.828v-79.448c0-4.875,3.952-8.828,8.828-8.828
				c4.875,0,8.828,3.952,8.828,8.828V247.172z M300.138,247.172c0,4.875-3.952,8.828-8.828,8.828c-4.875,0-8.828-3.952-8.828-8.828
				v-79.448c0-4.875,3.952-8.828,8.828-8.828c4.875,0,8.828,3.952,8.828,8.828V247.172z"/>
			<path d="M441.379,17.655h-70.621V0h-17.655v21.073l-35.31,11.771v16.703l35.31-11.772v15.19h17.655V35.31h70.621
				c4.875,0,8.828-3.952,8.828-8.828C450.207,21.607,446.255,17.655,441.379,17.655z"/>
		</g>
	</g>
</g>
<g>
</g>
<g>
</g>
<g>
</g>
<g>
</g>
<g>
</g>
<g>
</g>
<g>
</g>
<g>
</g>
<g>
</g>
<g>
</g>
<g>
</g>
<g>
</g>
<g>
</g>
<g>
</g>
<g>
</g>
</svg>
