<?xml version="1.0" encoding="iso-8859-1"?>
<!-- Generator: Adobe Illustrator 19.0.0, SVG Export Plug-In . SVG Version: 6.00 Build 0)  -->
<svg version="1.1" id="Capa_1" xmlns="http://www.w3.org/2000/svg" xmlns:xlink="http://www.w3.org/1999/xlink" x="0px" y="0px"
	 viewBox="0 0 512 512" style="enable-background:new 0 0 512 512;" xml:space="preserve">
<g>
	<g>
		<g>
			<rect x="388.741" y="331.852" width="18.963" height="37.926"/>
			<rect x="369.778" y="246.518" width="56.889" height="18.963"/>
			<path d="M455.111,18.963H246.518v94.815h105.244c4.511-22.073,23.93-37.925,46.459-37.925s41.948,15.852,46.459,37.925h48.356
				c5.23-0.016,9.466-4.251,9.481-9.481V66.37C502.509,40.192,481.29,18.972,455.111,18.963z M303.407,94.815h-28.444
				c-5.236,0-9.481-4.245-9.481-9.482c0-5.236,4.245-9.481,9.481-9.481h28.444c5.236,0,9.482,4.245,9.482,9.481
				C312.889,90.57,308.644,94.815,303.407,94.815z M303.407,56.889h-28.444c-5.236,0-9.481-4.245-9.481-9.482
				s4.245-9.482,9.481-9.482h28.444c5.236,0,9.482,4.245,9.482,9.482S308.644,56.889,303.407,56.889z"/>
			<path d="M398.222,170.667c-3.183-0.024-6.357-0.342-9.482-0.948v57.837h18.963v-57.837
				C404.579,170.325,401.405,170.642,398.222,170.667z"/>
			<path d="M9.482,47.407v66.37h66.37V18.963H37.926C22.235,19.009,9.527,31.717,9.482,47.407z"/>
			<polygon points="383.81,284.444 395.188,312.889 401.256,312.889 412.634,284.444 			"/>
			<polygon points="104.296,474.074 281.884,474.074 315.07,455.111 104.296,455.111 			"/>
			<rect x="123.259" y="493.037" width="18.963" height="18.963"/>
			<rect x="94.815" width="132.741" height="123.259"/>
			<rect x="123.259" y="142.222" width="18.963" height="293.926"/>
			<path d="M483.556,417.185H265.482v18.963h218.074c5.23-0.016,9.466-4.251,9.482-9.481
				C493.021,421.437,488.786,417.201,483.556,417.185z"/>
			<path d="M284.16,223.858c-3.543-3.551-8.353-5.547-13.369-5.547c-5.016,0-9.826,1.996-13.369,5.547L230.59,250.69
				c-11.037,11.112-11.007,29.059,0.068,40.133c11.075,11.075,29.021,11.105,40.133,0.068l26.833-26.833
				c7.374-7.372,7.416-19.314,0.095-26.738l88.367-88.462c3.759,1.907,7.921,2.882,12.136,2.844
				c15.709,0,28.444-12.735,28.444-28.444c0-15.709-12.735-28.444-28.444-28.444c-15.69,0.046-28.399,12.754-28.444,28.444
				c-0.038,4.215,0.937,8.377,2.844,12.136l-88.367,88.462H284.16z M257.422,277.428c-3.692,3.692-9.677,3.692-13.369,0
				s-3.692-9.677,0-13.369l26.738-26.833l6.732,6.732l6.732,6.732L257.422,277.428z"/>
		</g>
	</g>
</g>
<g>
</g>
<g>
</g>
<g>
</g>
<g>
</g>
<g>
</g>
<g>
</g>
<g>
</g>
<g>
</g>
<g>
</g>
<g>
</g>
<g>
</g>
<g>
</g>
<g>
</g>
<g>
</g>
<g>
</g>
</svg>
