<?xml version="1.0" encoding="iso-8859-1"?>
<!-- Generator: Adobe Illustrator 19.0.0, SVG Export Plug-In . SVG Version: 6.00 Build 0)  -->
<svg version="1.1" id="Capa_1" xmlns="http://www.w3.org/2000/svg" xmlns:xlink="http://www.w3.org/1999/xlink" x="0px" y="0px"
	 viewBox="0 0 501.733 501.733" style="enable-background:new 0 0 501.733 501.733;" xml:space="preserve">
<g>
	<g>
		<g>
			<path d="M204.773,296.579c-15.818-15.909-27.338-20.389-34.104-21.394c-0.422-0.076-0.851-0.107-1.279-0.091
				c-4.721,0.209-8.632,3.737-9.326,8.411c-3.459,14.981-10.844,28.771-21.395,39.954L12.407,428.054
				c-12.154,9.945-15.865,26.947-8.96,41.051c6.195,12.52,16.352,22.644,28.891,28.8c14.07,6.952,31.078,3.232,40.96-8.96
				l104.136-125.623c11.229-10.866,25.196-18.482,40.413-22.034c5.151-0.694,8.828-5.342,8.319-10.514
				C225.161,323.917,220.681,312.488,204.773,296.579z M67.721,472.762c-10.802,10.728-28.237,10.728-39.039,0
				c-7.895-7.895-10.257-19.768-5.984-30.084c4.273-10.315,14.339-17.041,25.504-17.041s21.231,6.726,25.504,17.041
				C77.978,452.994,75.616,464.867,67.721,472.762z M191.607,322.637c-2.596,2.607-6.507,3.393-9.909,1.992
				c-3.402-1.401-5.625-4.713-5.633-8.392c-0.025-2.432,0.931-4.772,2.651-6.491c3.631-3.383,9.26-3.383,12.891,0
				c1.746,1.71,2.734,4.048,2.743,6.491C194.339,318.653,193.35,320.962,191.607,322.637z"/>
			<path d="M378.213,0.351l-5.577,55.04c-1.4,11.857-8.133,22.427-18.286,28.709c-25.442,16.402-49.018,35.533-70.308,57.051
				c-44.618,44.617-76.344,94.263-82.56,128.549c5.806,4.2,11.25,8.879,16.274,13.989c5.741,5.662,10.945,11.845,15.543,18.469
				c26.24-4.662,62.355-24.594,98.469-54.583c1.287-1.085,1.997-2.707,1.92-4.389c-4.139-31.677,6.948-63.445,29.897-85.669
				c19.557-20.027,46.43-31.22,74.422-30.994c16.562,0.253,32.696,5.302,46.447,14.537l17.28-17.28L378.213,0.351z M306.167,212.922
				c-2.817,13.942-8.687,27.088-17.189,38.491c-4.951,4.991-11.713,7.762-18.742,7.68c-7.397-0.01-14.492-2.934-19.749-8.137
				c-5.163-5.068-8.119-11.967-8.229-19.2c-0.217-7.243,2.562-14.254,7.681-19.383c2.194-2.103,8.777-8.777,38.491-17.189
				c5.01-1.391,10.38,0.004,14.08,3.657C306.204,202.519,307.604,207.913,306.167,212.922z"/>
		</g>
	</g>
</g>
<g>
</g>
<g>
</g>
<g>
</g>
<g>
</g>
<g>
</g>
<g>
</g>
<g>
</g>
<g>
</g>
<g>
</g>
<g>
</g>
<g>
</g>
<g>
</g>
<g>
</g>
<g>
</g>
<g>
</g>
</svg>
