<?xml version="1.0" encoding="iso-8859-1"?>
<!-- Generator: Adobe Illustrator 19.0.0, SVG Export Plug-In . SVG Version: 6.00 Build 0)  -->
<svg version="1.1" id="Capa_1" xmlns="http://www.w3.org/2000/svg" xmlns:xlink="http://www.w3.org/1999/xlink" x="0px" y="0px"
	 viewBox="0 0 512.005 512.005" style="enable-background:new 0 0 512.005 512.005;" xml:space="preserve">
<g>
	<g>
		<g>
			<path d="M205.165,306.837c-15.909-15.909-27.429-20.48-34.194-21.394c-0.422-0.073-0.851-0.103-1.279-0.091
				c-4.721,0.209-8.632,3.737-9.326,8.411c-3.515,14.96-10.892,28.737-21.395,39.954L12.434,438.494
				c-12.188,9.964-15.901,27.013-8.96,41.143c6.164,12.565,16.327,22.727,28.891,28.891c14.128,6.951,31.185,3.237,41.143-8.96
				l104.228-125.897c11.271-10.858,25.265-18.471,40.504-22.034c5.177-0.737,8.873-5.396,8.411-10.606
				C225.645,334.265,221.074,322.745,205.165,306.837z M67.839,483.294L67.839,483.294c-10.815,10.749-28.289,10.722-39.071-0.06
				c-10.782-10.783-10.809-28.256-0.06-39.071c5.242-5.08,12.266-7.903,19.566-7.863c11.147-0.029,21.212,6.664,25.496,16.955
				S75.713,475.404,67.839,483.294z M193.92,329.968c-0.418,1.153-1.108,2.188-2.011,3.017c-1.684,1.718-3.995,2.675-6.4,2.651
				c-0.615,0.03-1.232-0.032-1.829-0.183c-0.587-0.121-1.167-0.273-1.737-0.457c-0.537-0.271-1.056-0.576-1.554-0.914
				c-0.5-0.308-0.96-0.677-1.37-1.097c-0.845-0.878-1.527-1.899-2.012-3.017c-0.44-1.105-0.657-2.285-0.64-3.474
				c-0.03-0.585,0.032-1.171,0.183-1.737c0.098-0.592,0.251-1.173,0.456-1.737c0.25-0.548,0.556-1.069,0.914-1.554
				c0.261-0.532,0.636-1,1.098-1.371c0.433-0.422,0.891-0.819,1.37-1.189c0.478-0.344,1.001-0.621,1.554-0.823
				c0.555-0.252,1.138-0.437,1.738-0.549c2.998-0.581,6.088,0.381,8.228,2.56c0.466,0.392,0.867,0.855,1.189,1.371
				c0.362,0.467,0.641,0.992,0.823,1.554c0.278,0.545,0.464,1.132,0.549,1.737c0.106,0.573,0.167,1.154,0.183,1.737
				C194.638,327.689,194.39,328.869,193.92,329.968z"/>
			<path d="M509.286,127.4L384.607,2.712c-1.964-1.977-4.72-2.955-7.491-2.661c-2.813,0.289-5.343,1.835-6.884,4.206l-55.741,85.451
				l1.625,1.624c3.694,3.531,9.512,3.531,13.205,0l39.214-39.205c10.929-10.438,28.133-10.438,39.063,0
				c5.185,5.179,8.098,12.207,8.098,19.536c0,7.328-2.913,14.356-8.098,19.536l-26.134,26.134c-1.755,1.749-2.741,4.125-2.741,6.603
				s0.986,4.854,2.741,6.603c3.691,3.537,9.512,3.539,13.205,0.004l19.607-19.602c10.929-10.438,28.133-10.438,39.063,0
				l40.138,40.138l14.29-9.321c2.36-1.541,3.896-4.067,4.178-6.87C512.256,132.115,511.275,129.355,509.286,127.4z"/>
			<path d="M427.205,123.868l-19.607,19.602c-10.929,10.438-28.133,10.438-39.062,0c-5.185-5.179-8.098-12.207-8.098-19.536
				c0-7.329,2.913-14.357,8.098-19.536l26.134-26.134c1.755-1.749,2.741-4.125,2.741-6.603c0-2.478-0.986-4.854-2.741-6.603
				c-3.691-3.537-9.512-3.539-13.205-0.004l-39.214,39.205c-10.508,9.993-26.875,10.407-37.875,0.958L193.791,274.747
				c8.914,5.284,17.088,11.727,24.307,19.162c7.434,7.217,13.878,15.389,19.161,24.302l240.569-156.925l-37.417-37.418
				C436.717,120.337,430.899,120.337,427.205,123.868z"/>
		</g>
	</g>
</g>
<g>
</g>
<g>
</g>
<g>
</g>
<g>
</g>
<g>
</g>
<g>
</g>
<g>
</g>
<g>
</g>
<g>
</g>
<g>
</g>
<g>
</g>
<g>
</g>
<g>
</g>
<g>
</g>
<g>
</g>
</svg>
