<?xml version="1.0" encoding="iso-8859-1"?>
<!-- Generator: Adobe Illustrator 19.0.0, SVG Export Plug-In . SVG Version: 6.00 Build 0)  -->
<svg version="1.1" id="Capa_1" xmlns="http://www.w3.org/2000/svg" xmlns:xlink="http://www.w3.org/1999/xlink" x="0px" y="0px"
	 viewBox="0 0 509.385 509.385" style="enable-background:new 0 0 509.385 509.385;" xml:space="preserve">
<g>
	<g>
		<g>
			<polygon points="115.959,280.485 140.87,255.565 153.317,268.012 165.799,255.529 153.344,243.074 165.791,230.618 
				178.246,243.083 190.729,230.592 178.273,218.136 190.72,205.68 203.184,218.145 215.666,205.662 203.193,193.198 
				215.649,180.742 228.122,193.216 240.604,180.733 228.122,168.251 240.569,155.795 253.051,168.278 265.533,155.795 
				253.051,143.313 265.498,130.857 255.7,121.059 253.051,118.411 240.604,130.866 228.14,118.393 215.658,130.884 
				228.122,143.348 215.675,155.804 203.193,143.331 190.711,155.813 203.193,168.295 190.746,180.751 178.264,168.26 
				165.782,180.742 178.273,193.233 165.826,205.689 153.335,193.198 140.853,205.68 153.344,218.171 140.897,230.627 
				128.406,218.127 115.924,230.609 128.423,243.109 103.512,268.038 			"/>
			<polygon points="99.628,314.03 105.807,295.315 88.593,278.102 69.967,284.281 84.797,299.2 			"/>
			
				<rect x="316.448" y="41.042" transform="matrix(-0.7084 0.7059 -0.7059 -0.7084 605.8994 -150.6251)" width="35.24" height="17.638"/>
			<path d="M84.797,348.987c3.471,3.354,8.976,3.354,12.447,0c1.653-1.649,2.582-3.888,2.582-6.223c0-2.335-0.929-4.574-2.582-6.224
				l-49.876-49.876c-3.512-3.286-8.982-3.247-12.447,0.088c-1.653,1.649-2.582,3.888-2.582,6.223s0.929,4.574,2.582,6.223
				L84.797,348.987z"/>
			<path d="M321.642,87.249L296.66,62.355c-1.649-1.653-3.888-2.582-6.223-2.582c-2.335,0-4.574,0.929-6.223,2.582l-24.894,24.894
				c-3.413,3.447-3.413,9,0,12.447l124.646,124.646c4.973,4.958,7.768,11.692,7.768,18.715s-2.795,13.756-7.768,18.715
				L196.996,448.739c-10.339,10.328-27.09,10.328-37.429,0L28.654,317.914c-20.569,20.68-20.569,54.09,0,74.77l93.484,93.484
				c30.994,30.956,81.205,30.956,112.199,0L421.305,299.2c14.879-14.878,23.239-35.058,23.239-56.099
				c0-21.042-8.359-41.221-23.239-56.099L321.642,87.249z"/>
			
				<rect x="415.577" y="35.057" transform="matrix(0.7071 -0.7071 0.7071 0.7071 34.0057 337.5025)" width="17.655" height="185.292"/>
			
				<rect x="298.646" y="7.745" transform="matrix(0.7072 0.707 -0.707 0.7072 103.4443 -216.6294)" width="29.219" height="17.655"/>
		</g>
	</g>
</g>
<g>
</g>
<g>
</g>
<g>
</g>
<g>
</g>
<g>
</g>
<g>
</g>
<g>
</g>
<g>
</g>
<g>
</g>
<g>
</g>
<g>
</g>
<g>
</g>
<g>
</g>
<g>
</g>
<g>
</g>
</svg>
