<?xml version="1.0" encoding="iso-8859-1"?>
<!-- Generator: Adobe Illustrator 19.0.0, SVG Export Plug-In . SVG Version: 6.00 Build 0)  -->
<svg version="1.1" id="Capa_1" xmlns="http://www.w3.org/2000/svg" xmlns:xlink="http://www.w3.org/1999/xlink" x="0px" y="0px"
	 viewBox="0 0 511.84 511.84" style="enable-background:new 0 0 511.84 511.84;" xml:space="preserve">
<g>
	<g>
		<g>
			<path d="M511.826,64.578L447.297,0c-20.648,23.223-23.724,54.232-6.702,71.253C457.611,88.256,488.602,85.212,511.826,64.578z"/>
			<path d="M124.934,415.121c0-9.728,3.867-19.056,10.75-25.931l45.42-45.415c3.589-3.601,3.589-9.426,0-13.027
				c-3.641-3.479-9.374-3.481-13.018-0.004l-45.429,45.424c-14.33,14.304-37.536,14.304-51.866,0l-9.825-9.829l-42.675,36.284
				C6.497,414.599-0.074,430.758,0.015,447.566c-0.002,25.995,15.657,49.432,39.673,59.38c24.016,9.948,51.661,4.449,70.041-13.933
				l35.8-42.112l-9.845-9.848C128.802,434.178,124.934,424.849,124.934,415.121z"/>
			<path d="M452.395,98.333l-96.497,96.501c-2.309,2.31-5.676,3.211-8.83,2.366c-3.155-0.845-5.619-3.309-6.464-6.464
				c-0.845-3.155,0.057-6.521,2.366-8.83l91.819-91.822c-2.54-1.758-4.923-3.732-7.122-5.901c-2.166-2.206-4.136-4.596-5.89-7.142
				l-91.834,91.838c-3.57,3.57-9.358,3.57-12.929,0s-3.57-9.358,0-12.929l96.55-96.555c-2.08-7.911-2.669-16.14-1.738-24.267
				L265.059,181.856c-3.589,3.599-3.589,9.424,0,13.022c5.131,5.104,7.662,12.265,6.878,19.459
				c-0.783,7.195-4.796,13.643-10.905,17.523c-0.34,0.218-0.695,0.412-1.062,0.58L209.774,255.7l46.368,46.368l23.266-50.194
				c0.171-0.367,0.365-0.724,0.58-1.067c3.881-6.095,10.318-10.099,17.501-10.887c7.183-0.788,14.335,1.726,19.445,6.834
				c3.646,3.5,9.4,3.514,13.063,0.031l146.706-146.706c-2.532,0.281-5.078,0.426-7.625,0.434
				C463.445,100.524,457.836,99.791,452.395,98.333z"/>
			<path d="M187.211,258.999L74.94,354.458l8.78,8.782c7.185,7.174,18.823,7.174,26.009,0l45.419-45.419
				c10.88-10.388,28.004-10.388,38.884,0c10.712,10.745,10.716,28.13,0.009,38.879l-45.429,45.424
				c-3.453,3.444-5.393,8.121-5.393,12.998c0,4.877,1.94,9.553,5.393,12.998l8.799,8.805l95.3-112.099l-65.491-65.817
				L187.211,258.999z"/>
		</g>
	</g>
</g>
<g>
</g>
<g>
</g>
<g>
</g>
<g>
</g>
<g>
</g>
<g>
</g>
<g>
</g>
<g>
</g>
<g>
</g>
<g>
</g>
<g>
</g>
<g>
</g>
<g>
</g>
<g>
</g>
<g>
</g>
</svg>
