<?xml version="1.0" encoding="iso-8859-1"?>
<!-- Generator: Adobe Illustrator 19.0.0, SVG Export Plug-In . SVG Version: 6.00 Build 0)  -->
<svg version="1.1" id="Capa_1" xmlns="http://www.w3.org/2000/svg" xmlns:xlink="http://www.w3.org/1999/xlink" x="0px" y="0px"
	 viewBox="0 0 500.545 500.545" style="enable-background:new 0 0 500.545 500.545;" xml:space="preserve">
<g>
	<g>
		<g>
			<path d="M265.954,0l-16.141,6.248l15.967,41.654c4.73-3.525,9.719-6.687,14.926-9.459L265.954,0z"/>
			<polygon points="136.045,130.256 119.643,136.07 140.991,195.948 156.264,187.01 			"/>
			<path d="M193.146,341.912c5.13-3.039,11.058-4.46,17.009-4.079l-6.161-17.182c-5.832,0.474-11.518,2.065-16.748,4.686
				L193.146,341.912z"/>
			<path d="M240.094,473.296c0.948,2.694,0.274,5.693-1.736,7.723c-2.949,2.777-7.551,2.777-10.5,0l-8.591-9.285l-12.323,12.236
				l8.678,9.372c9.679,9.604,25.293,9.604,34.972,0c6.758-6.78,9.02-16.84,5.814-25.86l-14.232-39.745l-13.538,13.538
				L240.094,473.296z"/>
			<path d="M213.452,398.753l5.901,16.488c5.699-1.329,11.109-3.681,15.967-6.942l-6.161-17.182
				C224.806,395.177,219.334,397.837,213.452,398.753z"/>
			<path d="M35.467,444.485c4.659,8.028,10.316,15.434,16.835,22.042c32.143,31.998,80.974,40.241,121.839,20.567
				C135.007,455.792,85.426,440.557,35.467,444.485z"/>
			<path d="M230.114,390.248c11.976-12.018,11.976-31.458,0-43.477c-5.326-5.335-12.433-8.518-19.959-8.938l19.005,53.283
				C229.499,390.851,229.818,390.561,230.114,390.248z"/>
			<path d="M234.8,301.906c-34.873-34.137-53.879-81.304-52.415-130.083l-26.121,15.186l2.864,7.897l27.336,76.713l0.955,2.603
				l16.575,46.427c20.15-1.839,39.294,9.141,47.882,27.463c8.588,18.321,4.779,40.059-9.525,54.37
				c-2.161,2.148-4.514,4.094-7.029,5.814l6.856,19.439l79.664-79.664C288.997,341.357,258.781,325.331,234.8,301.906z"/>
			<path d="M381.805,201.329c13.653-13.729,13.653-35.909,0-49.638c-6.877-6.829-16.259-10.532-25.947-10.24l9.285,32.022
				l14.058,30.113C380.109,202.88,380.978,202.127,381.805,201.329z"/>
			<path d="M208.332,416.542c-19.442,0.026-36.981-11.671-44.43-29.628s-3.339-38.635,10.413-52.378
				c3.735-3.803,8.112-6.917,12.93-9.199l-21.435-60.052l-24.819-69.337l-55.886,32.542c-4.267,2.534-7.751,6.198-10.066,10.587
				L29.132,350.069c-10.298,24.796-10.855,52.565-1.562,77.755c58.721-6.711,117.585,11.338,162.451,49.812
				c4.766-3.311,9.237-7.027,13.364-11.108l25.253-25.253l-9.285-26.034C215.743,416.106,212.044,416.543,208.332,416.542z
				 M141.685,312.754L106.626,394.5c-4.232,10.146-13.311,17.461-24.125,19.439c-2.056,0.417-4.15,0.621-6.248,0.607
				c-11.116,0.01-21.491-5.572-27.608-14.852c-6.117-9.281-7.156-21.016-2.765-31.228L80.94,286.72
				c7.205-16.749,26.614-24.497,43.372-17.315C141.07,276.587,148.845,295.986,141.685,312.754z"/>
			<path d="M367.66,219.9l-18.571-39.745c-0.196-0.385-0.342-0.793-0.434-1.215l-12.236-42.088l-28.984-99.883
				c-0.697-2.484-2.438-4.542-4.773-5.641c-2.085-1.049-4.522-1.144-6.682-0.26c-5.238,2.142-10.339,4.606-15.273,7.376
				l16.228,42.088l-16.228,6.248L265.78,47.902c-8.395,5.864-16.16,12.582-23.17,20.046c-23.17,24.388-37.815,55.626-41.741,89.036
				c-0.087,0.434-0.087,0.955-0.174,1.388c-4.986,41.703,6.923,83.667,33.073,116.534s64.364,53.902,106.121,58.414
				c0.553,0.015,1.105,0.073,1.649,0.174c22.023,2.193,44.262-0.291,65.258-7.289c2.239-0.741,4.045-2.42,4.946-4.599
				c0.986-2.373,0.923-5.052-0.174-7.376L367.66,219.9z"/>
			<path d="M460.774,195.341l16.575,4.426c2.951-15.364,2.951-31.15,0-46.514l-16.575,4.426c-0.729,0.236-1.49,0.353-2.256,0.347
				c-4.372,0.014-8.074-3.221-8.646-7.556c-0.572-4.334,2.164-8.419,6.389-9.54l16.488-4.426
				c-5.039-14.798-12.908-28.474-23.17-40.266l-12.149,12.062c-1.619,1.662-3.841,2.601-6.161,2.603
				c-3.489-0.057-6.608-2.188-7.93-5.417c-1.322-3.229-0.592-6.935,1.855-9.422l12.149-12.236
				c-11.851-10.224-25.548-18.089-40.353-23.17l-4.426,16.575c-1.007,3.814-4.473,6.458-8.418,6.422
				c-0.759-0.006-1.516-0.093-2.256-0.26c-2.229-0.597-4.127-2.061-5.268-4.067s-1.432-4.385-0.806-6.607l4.426-16.575
				c-16.207-3.153-32.882-3.005-49.031,0.434l19.699,67.948c22.163-2.589,43.536,9.139,53.256,29.225
				c9.72,20.086,5.656,44.124-10.126,59.898c-2.259,2.256-4.729,4.29-7.376,6.075l29.852,64.043
				c7.422-4.136,14.4-9.021,20.827-14.579l-12.149-12.236c-1.663-1.601-2.603-3.81-2.603-6.118c0-2.308,0.94-4.517,2.603-6.118
				c1.621-1.625,3.823-2.538,6.118-2.538c2.295,0,4.497,0.913,6.118,2.538l12.149,12.149c10.246-11.836,18.113-25.537,23.17-40.353
				l-16.488-4.426c-3.003-0.796-5.35-3.138-6.154-6.139c-0.804-3.001,0.059-6.202,2.261-8.393
				C454.572,195.366,457.778,194.521,460.774,195.341z"/>
			<path d="M186.637,390.248c7.016,7.04,17.024,10.214,26.815,8.504l-3.992-11.281l-0.607-1.649l-4.946-13.711l-1.302-3.645
				l-6.595-18.658l-0.26-0.694l-1.822-5.12l-0.521-1.475l-0.26-0.607c-2.406,1.277-4.601,2.916-6.508,4.86
				C174.662,358.79,174.662,378.23,186.637,390.248z"/>
		</g>
	</g>
</g>
<g>
</g>
<g>
</g>
<g>
</g>
<g>
</g>
<g>
</g>
<g>
</g>
<g>
</g>
<g>
</g>
<g>
</g>
<g>
</g>
<g>
</g>
<g>
</g>
<g>
</g>
<g>
</g>
<g>
</g>
</svg>
