<?xml version="1.0" encoding="iso-8859-1"?>
<!-- Generator: Adobe Illustrator 19.0.0, SVG Export Plug-In . SVG Version: 6.00 Build 0)  -->
<svg version="1.1" id="Capa_1" xmlns="http://www.w3.org/2000/svg" xmlns:xlink="http://www.w3.org/1999/xlink" x="0px" y="0px"
	 viewBox="0 0 512 512" style="enable-background:new 0 0 512 512;" xml:space="preserve">
<g>
	<g>
		<g>
			<path d="M119.223,61.897L112,57.966c-6.548-3.57-14.62-2.734-20.297,2.103L77.989,71.68l12.069,14.446
				C99.128,77.297,108.88,69.196,119.223,61.897z"/>
			<path d="M193.646,26.606l-5.394-6.126c-4.976-5.557-12.84-7.514-19.84-4.937l-16.823,6.126l6.491,17.829
				C169.561,34.23,181.457,29.919,193.646,26.606z"/>
			<path d="M275.657,19.109l-3.017-7.589c-2.722-6.962-9.44-11.537-16.914-11.52h-17.92v18.926
				C250.406,17.935,263.067,17.996,275.657,19.109z"/>
			<path d="M61.257,120.503l-8.137-1.189c-7.365-1.105-14.646,2.463-18.286,8.96l-9.051,15.543l16.457,9.6
				C47.7,141.961,54.059,130.955,61.257,120.503z"/>
			<path d="M12.983,282.057c-6.324,3.933-9.618,11.318-8.32,18.651l3.109,17.737l18.651-3.291c-3.159-12.298-5.3-24.836-6.4-37.486
				L12.983,282.057z"/>
			<path d="M470.4,154.697l5.029-6.491c4.649-5.878,5.229-14.001,1.463-20.48l-8.96-15.543l-16.366,9.509
				c3.383,5.029,6.674,10.149,9.783,15.451C464.64,142.903,467.566,148.754,470.4,154.697z"/>
			<path d="M4.571,211.84l-3.109,17.737l18.743,3.291c1.259-12.648,3.491-25.18,6.674-37.486l-8.137,1.737
				C11.441,198.645,5.818,204.486,4.571,211.84z"/>
			<path d="M499.017,229.943c6.324-3.933,9.618-11.318,8.32-18.651l-3.109-17.737l-18.651,3.291c3.159,12.298,5.3,24.836,6.4,37.486
				L499.017,229.943z"/>
			<path d="M450.743,391.497l8.137,1.189c7.365,1.105,14.646-2.463,18.286-8.96l9.051-15.543l-16.457-9.6
				C464.3,370.039,457.941,381.045,450.743,391.497z"/>
			<path d="M425.417,79.451c2.385-7.103,0.171-14.942-5.577-19.749l-13.714-11.52l-12.069,14.446
				c10.266,7.387,19.927,15.581,28.891,24.503L425.417,79.451z"/>
			<path d="M355.017,31.909c-0.223-7.45-4.97-14.009-11.977-16.549l-16.823-6.126l-6.491,17.829
				c12.168,3.453,24.058,7.824,35.566,13.074L355.017,31.909z"/>
			<path d="M416.549,405.12c0.251-0.325,0.526-0.63,0.823-0.914c1.829-2.011,3.566-4.114,5.394-6.126
				c0.914-1.097,1.829-2.194,2.743-3.383c30.12-37.197,47.32-83.184,49.006-131.017c0.183-3.657,0.274-7.314,0.183-11.154
				c-0.289-21.068-3.647-41.98-9.966-62.08c-0.64-2.011-1.28-4.114-2.011-6.217c0-0.091-0.091-0.274-0.091-0.366
				c-0.914-2.651-1.92-5.303-3.017-8.137c-0.07-0.073-0.104-0.174-0.091-0.274c-3.967-10.056-8.673-19.805-14.08-29.166
				c-6.958-12.071-15.039-23.459-24.137-34.011l-1.371-1.646v-0.091c-13.263-14.936-28.487-28.007-45.257-38.857
				c-1.92-1.28-3.84-2.469-5.76-3.566c-17.571-10.666-36.563-18.792-56.411-24.137c-2.469-0.64-4.937-1.189-7.497-1.737
				c-2.194-0.549-4.389-1.006-6.491-1.463c-1.463-0.274-3.017-0.549-4.571-0.823c-1.371-0.274-2.743-0.549-4.114-0.731
				c-19.717-3.181-39.783-3.581-59.611-1.189c-0.183,0-0.274,0.091-0.457,0.183c-6.217,0.731-11.886,1.646-17.28,2.743h-0.274
				c-19.095,3.949-37.576,10.437-54.949,19.291c-0.091,0-0.091,0.091-0.183,0.091c-5.029,2.56-10.057,5.394-14.811,8.32
				c-17.357,10.501-33.147,23.398-46.903,38.309c-0.183,0.183-0.366,0.457-0.549,0.64c-1.92,2.103-3.749,4.206-5.577,6.309
				c-0.823,1.097-1.737,2.195-2.651,3.291c-46.439,57.296-61.19,134.001-39.314,204.434c0.64,2.011,1.28,4.023,2.011,6.034
				c0,0.183,0.091,0.274,0.091,0.457c0.914,2.651,1.92,5.303,3.017,8.137c0.07,0.073,0.104,0.174,0.091,0.274
				c3.967,10.056,8.673,19.805,14.08,29.166c6.966,12.168,15.112,23.621,24.32,34.194c0.368,0.51,0.765,0.998,1.189,1.463
				c13.236,14.989,28.463,28.094,45.257,38.949c1.92,1.28,3.84,2.469,5.76,3.566c17.572,10.665,36.564,18.792,56.411,24.137
				c2.469,0.64,5.029,1.189,7.497,1.737c2.194,0.549,4.297,1.006,6.4,1.463c1.554,0.274,3.2,0.549,4.754,0.823
				c1.28,0.274,2.651,0.549,3.931,0.731c19.748,3.18,39.844,3.58,59.703,1.189c0.183,0,0.274-0.091,0.457-0.183
				c6.217-0.731,11.886-1.646,17.28-2.743h0.274c19.095-3.949,37.576-10.437,54.949-19.291c0.091,0,0.091-0.091,0.183-0.091
				c5.029-2.56,10.057-5.394,14.811-8.32C387.043,432.838,402.799,419.975,416.549,405.12z M256,457.143
				c-81.405,0.222-154.917-48.644-186.224-123.788s-14.233-161.75,43.25-219.39c57.483-57.641,144.042-74.95,219.271-43.849
				c75.23,31.101,124.296,104.48,124.296,185.885C456.625,366.887,366.886,456.87,256,457.143z"/>
			<path d="M491.794,279.132c-1.259,12.648-3.491,25.18-6.674,37.486l8.137-1.737c7.302-1.525,12.925-7.366,14.171-14.72
				l3.109-17.737L491.794,279.132z"/>
			<path d="M392.777,450.103l7.223,3.931c6.548,3.57,14.62,2.734,20.297-2.103l13.714-11.611l-12.069-14.446
				C412.872,434.703,403.12,442.804,392.777,450.103z"/>
			<path d="M41.6,357.303l-5.029,6.491c-4.649,5.878-5.229,14.001-1.463,20.48l8.96,15.543l16.366-9.509
				c-3.383-5.029-6.674-10.149-9.783-15.451C47.36,369.097,44.343,363.246,41.6,357.303z"/>
			<path d="M256,73.143c-74.009-0.222-140.854,44.188-169.33,112.5s-12.967,147.052,39.286,199.463
				c52.254,52.411,130.947,68.156,199.344,39.886C393.697,396.721,438.309,330.009,438.309,256
				C438.369,155.2,356.8,73.386,256,73.143z M256,292.571c-14.8,0.037-28.163-8.85-33.853-22.513
				c-5.689-13.663-2.583-29.408,7.869-39.886c10.452-10.478,26.189-13.624,39.866-7.969C283.56,227.859,292.48,241.2,292.48,256
				C292.496,276.169,276.169,292.537,256,292.571z"/>
			<path d="M156.983,480.091c0.223,7.45,4.97,14.009,11.977,16.549l16.823,6.126l6.491-17.829
				c-12.169-3.453-24.058-7.824-35.566-13.074L156.983,480.091z"/>
			<path d="M86.583,432.549c-2.385,7.103-0.171,14.942,5.577,19.749l13.714,11.52l12.069-14.446
				c-10.266-7.387-19.927-15.58-28.891-24.503L86.583,432.549z"/>
			<path d="M236.343,492.892l3.017,7.589c2.722,6.962,9.44,11.537,16.914,11.52h17.92v-18.926
				c-5.943,0.457-11.886,0.731-17.829,0.731C249.691,493.806,243.017,493.44,236.343,492.892z"/>
			<path d="M318.354,485.394l5.394,6.126c4.976,5.557,12.84,7.514,19.84,4.937l16.823-6.126l-6.491-17.92
				C342.441,477.708,330.546,482.05,318.354,485.394z"/>
		</g>
	</g>
</g>
<g>
</g>
<g>
</g>
<g>
</g>
<g>
</g>
<g>
</g>
<g>
</g>
<g>
</g>
<g>
</g>
<g>
</g>
<g>
</g>
<g>
</g>
<g>
</g>
<g>
</g>
<g>
</g>
<g>
</g>
</svg>
