<?xml version="1.0" encoding="iso-8859-1"?>
<!-- Generator: Adobe Illustrator 19.0.0, SVG Export Plug-In . SVG Version: 6.00 Build 0)  -->
<svg version="1.1" id="Capa_1" xmlns="http://www.w3.org/2000/svg" xmlns:xlink="http://www.w3.org/1999/xlink" x="0px" y="0px"
	 viewBox="0 0 511.924 511.924" style="enable-background:new 0 0 511.924 511.924;" xml:space="preserve">
<g>
	<g>
		<g>
			
				<rect x="297.302" y="121.222" transform="matrix(-0.7071 -0.7071 0.7071 -0.7071 326.9302 690.3663)" width="18.286" height="312.504"/>
			<path d="M151.348,401.883c-0.07-0.073-0.104-0.174-0.091-0.274l-38.217-99.2c-6.472-16.86-2.425-35.948,10.331-48.731
				l15.543-15.543c3.566-3.593,3.566-9.39,0-12.983l-25.874-25.783c-1.686-1.753-4.014-2.743-6.446-2.743s-4.759,0.99-6.446,2.743
				l-92.16,92.069c-7.963,8.059-10.208,20.157-5.669,30.537l71.589,161.189c3.691,8.257,11.207,14.171,20.101,15.814
				s18.027-1.193,24.425-7.586l36.023-36.023c7.645-7.682,10.078-19.131,6.217-29.257L151.348,401.883z M129.223,454.728
				c-5.767,5.781-13.594,9.037-21.76,9.051c-1.963-0.001-3.922-0.185-5.851-0.549c-10.015-1.975-18.422-8.742-22.491-18.103
				l-40.686-95.086c-4.482-10.283-2.195-22.262,5.76-30.171l9.783-9.691c6.619-6.633,16.167-9.426,25.317-7.407
				s16.636,8.571,19.849,17.373l37.211,102.309c1.197,3.377,1.816,6.932,1.829,10.514
				C138.202,441.123,134.979,448.952,129.223,454.728z"/>
			<polygon points="170.457,400.603 177.588,419.254 190.663,406.18 177.68,393.288 			"/>
			<path d="M509.931,98.157l-5.851-1.28c-1.733-0.355-3.324-1.214-4.571-2.469l-9.966-9.966c-1.281-1.242-2.171-2.831-2.56-4.571
				l-1.189-5.851c-0.183-0.549-0.64-2.377-3.931-1.92l-6.491,0.823c-5.226,1.02-9.312,5.106-10.331,10.331l-0.274,2.286
				l33.646,33.646l2.286-0.274c5.221-1.09,9.288-5.192,10.331-10.423l0.823-6.491C512.308,98.706,510.48,98.248,509.931,98.157z"/>
			<path d="M294.068,31.231L132.423,192.877l12.983,12.891L294.068,57.106c24.997-24.99,65.518-24.99,90.514,0l84.023,84.023
				l12.983-12.891l-97.006-97.006C359.586,6.241,319.065,6.241,294.068,31.231z"/>
			<path d="M423.348,134.637c-3.566,3.593-3.566,9.39,0,12.983l12.983,12.891c1.708,1.712,4.027,2.674,6.446,2.674
				s4.738-0.962,6.446-2.674l6.491-6.4l-25.874-25.874L423.348,134.637z"/>
		</g>
	</g>
</g>
<g>
</g>
<g>
</g>
<g>
</g>
<g>
</g>
<g>
</g>
<g>
</g>
<g>
</g>
<g>
</g>
<g>
</g>
<g>
</g>
<g>
</g>
<g>
</g>
<g>
</g>
<g>
</g>
<g>
</g>
</svg>
