<?xml version="1.0" encoding="iso-8859-1"?>
<!-- Generator: Adobe Illustrator 19.0.0, SVG Export Plug-In . SVG Version: 6.00 Build 0)  -->
<svg version="1.1" id="Capa_1" xmlns="http://www.w3.org/2000/svg" xmlns:xlink="http://www.w3.org/1999/xlink" x="0px" y="0px"
	 viewBox="0 0 512 512" style="enable-background:new 0 0 512 512;" xml:space="preserve">
<g>
	<g>
		<g>
			<path d="M18.286,386.733v26.753c0.007,5.047,4.096,9.136,9.143,9.143h22.099C43.423,407.506,32.422,394.866,18.286,386.733z"/>
			<path d="M322.63,174.955c4.261-7.106,6.512-15.236,6.513-23.522v-21.884c0-0.157,0.026-0.314,0.028-0.471
				c-23.945-2.909-95.722-13.106-149.916-36.333C134.33,73.495,84.888,49.736,59.415,37.29c-8.328-4.075-18.157-3.641-26.094,1.152
				L20.04,46.411l302.044,129.452L322.63,174.955z"/>
			<path d="M483.973,67.022c-3.079-6.21-9.421-10.13-16.353-10.107h-75.813c-6.932-0.022-13.273,3.897-16.353,10.107l-4.089,8.179
				h116.697L483.973,67.022z"/>
			<path d="M411.429,468.343c0.007,5.047,4.096,9.136,9.143,9.143h54.857c5.047-0.007,9.136-4.096,9.143-9.143v-9.143h-73.143
				V468.343z"/>
			<path d="M448,148.343c-5.047,0.007-9.136,4.096-9.143,9.143v82.286c0,5.049,4.093,9.143,9.143,9.143
				c5.049,0,9.143-4.093,9.143-9.143v-82.286C457.136,152.44,453.047,148.35,448,148.343z"/>
			<path d="M509.074,117.258l-11.886-23.771H362.24l-11.886,23.771c-1.912,3.802-2.913,7.996-2.926,12.251v21.943
				c0.023,11.602-3.14,22.987-9.143,32.914l-14.263,23.771c-4.957,8.255-13.869,13.317-23.497,13.349h-36.937
				c-7.281,0.039-14.27-2.862-19.383-8.046l-7.589-7.589c-1.72-1.72-4.059-2.676-6.491-2.651H64c-35.33,0.039-63.961,28.67-64,64
				v93.257c39.273,7.939,68.763,40.583,72.686,80.457h366.171v-18.286h-9.143c-5.049,0-9.143-4.093-9.143-9.143
				s4.093-9.143,9.143-9.143h9.143v-18.286h-9.143c-5.049,0-9.143-4.093-9.143-9.143c0-5.049,4.093-9.143,9.143-9.143h9.143v-9.143
				c0-5.049,4.093-9.143,9.143-9.143c5.049,0,9.143,4.093,9.143,9.143v9.143h9.143c5.049,0,9.143,4.093,9.143,9.143
				c0,5.049-4.093,9.143-9.143,9.143h-9.143v18.286h9.143c5.049,0,9.143,4.093,9.143,9.143s-4.093,9.143-9.143,9.143h-9.143v18.286
				h45.714c5.043-0.015,9.128-4.1,9.143-9.143V129.509C511.988,125.254,510.986,121.06,509.074,117.258z M347.429,340.343
				c-0.009,25.244-20.471,45.705-45.714,45.714H102.309c-1.096-0.027-2.178-0.244-3.2-0.64c-0.206-0.108-0.42-0.2-0.64-0.274
				c-0.927-0.374-1.767-0.934-2.469-1.646c-0.149-0.128-0.273-0.283-0.366-0.457c-0.383-0.353-0.721-0.752-1.006-1.189
				c-15.22-23.53-36.682-42.364-61.989-54.4c-0.366-0.183-0.64-0.549-1.006-0.731c-0.603-0.352-1.156-0.782-1.646-1.28
				c-0.436-0.41-0.779-0.909-1.006-1.463c-0.274-0.457-0.64-0.914-0.914-1.463c-0.174-0.66-0.297-1.332-0.366-2.011
				c-0.135-0.416-0.227-0.845-0.274-1.28v-24.594c0.009-25.244,20.471-45.705,45.714-45.714h228.571
				c25.244,0.009,45.705,20.471,45.714,45.714V340.343z M475.429,239.772c0,15.148-12.28,27.429-27.429,27.429
				s-27.429-12.28-27.429-27.429v-82.286c0-15.148,12.28-27.429,27.429-27.429s27.429,12.28,27.429,27.429V239.772z"/>
		</g>
	</g>
</g>
<g>
</g>
<g>
</g>
<g>
</g>
<g>
</g>
<g>
</g>
<g>
</g>
<g>
</g>
<g>
</g>
<g>
</g>
<g>
</g>
<g>
</g>
<g>
</g>
<g>
</g>
<g>
</g>
<g>
</g>
</svg>
