<?xml version="1.0" encoding="iso-8859-1"?>
<!-- Generator: Adobe Illustrator 19.0.0, SVG Export Plug-In . SVG Version: 6.00 Build 0)  -->
<svg version="1.1" id="Capa_1" xmlns="http://www.w3.org/2000/svg" xmlns:xlink="http://www.w3.org/1999/xlink" x="0px" y="0px"
	 viewBox="0 0 511.998 511.998" style="enable-background:new 0 0 511.998 511.998;" xml:space="preserve">
<g>
	<g>
		<g>
			<path d="M294.996,191.031c-3.607-3.595-9.442-3.595-13.049,0l-13.018,13.018l39.022,39.022l13.018-13.018
				c3.598-3.606,3.598-9.444,0-13.049L294.996,191.031z"/>
			<path d="M132.612,351.808c-11.158-0.002-21.218,6.718-25.489,17.026c-4.271,10.308-1.91,22.174,5.98,30.063
				c10.919,10.424,28.103,10.424,39.022,0c7.896-7.888,10.26-19.758,5.987-30.069C153.839,358.518,143.773,351.799,132.612,351.808z
				 M139.063,385.826L139.063,385.826c-0.814,0.881-1.815,1.569-2.929,2.013c-1.13,0.469-2.339,0.718-3.563,0.732
				c-4.998-0.123-9.02-4.145-9.143-9.143c0.009-2.443,0.996-4.781,2.741-6.491c1.69-1.746,4.016-2.732,6.446-2.732
				s4.756,0.986,6.446,2.732c1.72,1.72,2.676,4.059,2.651,6.491C141.738,381.833,140.78,384.143,139.063,385.826z"/>
			<path d="M216.978,256L256,295.022L295.022,256L256,216.978L216.978,256z M262.496,240.362c2.425,0,4.75,0.964,6.464,2.679
				c1.715,1.714,2.679,4.04,2.679,6.464s-0.964,4.75-2.679,6.464l-12.991,12.991c-3.57,3.57-9.358,3.57-12.929,0
				c-3.57-3.57-3.57-9.358,0-12.929l12.991-12.991C257.746,241.325,260.071,240.362,262.496,240.362z"/>
			<path d="M2.701,418.321c-3.598,3.606-3.598,9.444,0,13.049l77.929,77.929c3.606,3.598,9.444,3.598,13.049,0l6.522-6.522
				L9.223,411.799L2.701,418.321z"/>
			<path d="M9.223,385.938L385.938,9.223l-6.522-6.522c-3.603-3.601-9.442-3.601-13.045,0L2.701,366.371
				C0.972,368.1,0,370.445,0,372.891c0,2.445,0.972,4.791,2.701,6.52L9.223,385.938z"/>
			<path d="M191.031,281.946c-3.598,3.606-3.598,9.444,0,13.049l25.974,25.974c3.606,3.598,9.444,3.598,13.049,0l13.018-13.018
				l-39.022-39.022L191.031,281.946z"/>
			<path d="M22.152,398.871l90.978,90.978L489.848,113.13l-90.978-90.978L22.152,398.871z M165.054,411.826
				c-13.121,13.121-32.853,17.046-49.996,9.945s-28.32-23.829-28.32-42.385s11.177-35.284,28.32-42.385
				c17.143-7.101,36.875-3.176,49.996,9.945c8.677,8.565,13.561,20.248,13.561,32.44
				C178.614,391.578,173.73,403.261,165.054,411.826z M333.897,242.982l-90.915,90.915c-10.751,10.726-28.155,10.726-38.906,0
				l-25.973-25.973c-10.728-10.75-10.728-28.156,0-38.906l90.915-90.915c10.748-10.732,28.158-10.732,38.906,0l25.973,25.973
				C344.625,214.826,344.625,232.232,333.897,242.982z M425.263,132.612L425.263,132.612c0.002,21.888-15.459,40.729-36.926,45
				c-21.467,4.271-42.962-7.217-51.339-27.438c-8.377-20.222-1.303-43.545,16.896-55.705s42.454-9.772,57.931,5.705
				C420.457,108.758,425.295,120.438,425.263,132.612z"/>
			<path d="M509.299,80.629L431.371,2.701c-3.607-3.595-9.442-3.595-13.049,0l-6.522,6.522l90.978,90.978l6.522-6.522
				C512.897,90.073,512.897,84.235,509.299,80.629z"/>
			<path d="M359.875,113.103c-9.311,9.308-10.749,23.898-3.436,34.845c7.313,10.948,21.341,15.205,33.505,10.168
				c12.164-5.037,19.076-17.965,16.509-30.878s-13.899-22.214-27.064-22.215C372.071,105.026,365.053,107.932,359.875,113.103z
				 M387.014,127.54c0.277,0.46,0.549,1.009,0.826,1.554c0.183,0.549,0.366,1.192,0.549,1.741c0.105,0.573,0.167,1.154,0.183,1.737
				c-0.01,2.444-0.999,4.782-2.746,6.491c-1.683,1.717-3.993,2.675-6.397,2.651c-2.432,0.024-4.771-0.932-6.491-2.652
				c-1.72-1.72-2.675-4.059-2.652-6.491c-0.03-0.585,0.032-1.171,0.183-1.737c0.108-0.591,0.26-1.173,0.455-1.741
				c0.272-0.545,0.549-1.094,0.821-1.554c0.323-0.517,0.725-0.979,1.192-1.371c3.612-3.429,9.276-3.429,12.888,0
				C386.293,126.56,386.694,127.023,387.014,127.54z"/>
		</g>
	</g>
</g>
<g>
</g>
<g>
</g>
<g>
</g>
<g>
</g>
<g>
</g>
<g>
</g>
<g>
</g>
<g>
</g>
<g>
</g>
<g>
</g>
<g>
</g>
<g>
</g>
<g>
</g>
<g>
</g>
<g>
</g>
</svg>
