<?xml version="1.0" encoding="iso-8859-1"?>
<!-- Generator: Adobe Illustrator 19.0.0, SVG Export Plug-In . SVG Version: 6.00 Build 0)  -->
<svg version="1.1" id="Capa_1" xmlns="http://www.w3.org/2000/svg" xmlns:xlink="http://www.w3.org/1999/xlink" x="0px" y="0px"
	 viewBox="0 0 512 512" style="enable-background:new 0 0 512 512;" xml:space="preserve">
<g>
	<g>
		<g>
			<path d="M485.517,70.621h-8.828v17.655h8.828c4.873,0.006,8.821,3.955,8.828,8.828v68.349
				c-0.041,12.543-8.842,23.352-21.116,25.935l-199.69,41.315c-20.458,4.304-35.126,22.319-35.194,43.224H256
				c0.041-12.543,8.842-23.352,21.116-25.935l199.69-41.315c20.458-4.304,35.126-22.319,35.194-43.224V97.103
				C511.984,82.484,500.137,70.637,485.517,70.621z"/>
			<path d="M423.724,123.586V35.31c-0.043-14.608-11.874-26.44-26.483-26.483H61.793C47.185,8.87,35.353,20.702,35.31,35.31v88.276
				c0.043,14.608,11.875,26.44,26.483,26.483h335.448C411.85,150.026,423.681,138.194,423.724,123.586z M373.319,37.87l8.828-8.828
				c3.466-3.437,9.058-3.426,12.51,0.026s3.463,9.044,0.026,12.51l-8.828,8.828c-3.481,3.414-9.054,3.414-12.535,0
				C369.876,46.936,369.876,41.34,373.319,37.87z M85.716,121.026l-8.828,8.828c-3.481,3.414-9.054,3.414-12.535,0
				c-3.443-3.469-3.443-9.066,0-12.535l8.828-8.828c3.466-3.437,9.058-3.426,12.51,0.026
				C89.142,111.968,89.153,117.561,85.716,121.026z M85.716,41.578l-8.828,8.828c-3.481,3.414-9.054,3.414-12.535,0
				c-3.443-3.469-3.443-9.066,0-12.535l8.828-8.828c3.466-3.437,9.058-3.426,12.51,0.026S89.153,38.112,85.716,41.578z
				 M129.854,121.026l-8.828,8.828c-3.481,3.414-9.054,3.414-12.535,0c-3.443-3.469-3.443-9.066,0-12.535l8.828-8.828
				c3.466-3.437,9.058-3.426,12.51,0.026C133.28,111.968,133.291,117.561,129.854,121.026z M129.854,41.578l-8.828,8.828
				c-3.481,3.414-9.054,3.414-12.535,0c-3.443-3.469-3.443-9.066,0-12.535l8.828-8.828c3.466-3.437,9.058-3.426,12.51,0.026
				S133.291,38.112,129.854,41.578z M173.992,121.026l-8.828,8.828c-3.481,3.414-9.054,3.414-12.535,0
				c-3.443-3.469-3.443-9.066,0-12.535l8.828-8.828c3.466-3.437,9.058-3.426,12.51,0.026
				C177.418,111.968,177.429,117.561,173.992,121.026z M173.992,41.578l-8.828,8.828c-3.481,3.414-9.054,3.414-12.535,0
				c-3.443-3.469-3.443-9.066,0-12.535l8.828-8.828c3.466-3.437,9.058-3.426,12.51,0.026S177.429,38.112,173.992,41.578z
				 M218.13,121.026l-8.828,8.828c-3.481,3.414-9.054,3.414-12.535,0c-3.443-3.469-3.443-9.066,0-12.535l8.828-8.828
				c3.466-3.437,9.058-3.426,12.51,0.026C221.556,111.968,221.567,117.561,218.13,121.026z M218.13,41.578l-8.828,8.828
				c-3.481,3.414-9.054,3.414-12.535,0c-3.443-3.469-3.443-9.066,0-12.535l8.828-8.828c3.466-3.437,9.058-3.426,12.51,0.026
				S221.567,38.112,218.13,41.578z M262.268,121.026l-8.828,8.828c-3.481,3.414-9.054,3.414-12.535,0
				c-3.443-3.469-3.443-9.066,0-12.535l8.828-8.828c3.466-3.437,9.058-3.426,12.51,0.026
				C265.694,111.968,265.705,117.561,262.268,121.026z M262.268,41.578l-8.828,8.828c-3.481,3.414-9.054,3.414-12.535,0
				c-3.443-3.469-3.443-9.066,0-12.535l8.828-8.828c3.466-3.437,9.058-3.426,12.51,0.026S265.705,38.112,262.268,41.578z
				 M306.406,121.026l-8.828,8.828c-3.481,3.414-9.054,3.414-12.535,0c-3.443-3.469-3.443-9.066,0-12.535l8.828-8.828
				c3.466-3.437,9.058-3.426,12.51,0.026C309.831,111.968,309.843,117.561,306.406,121.026z M306.406,41.578l-8.828,8.828
				c-3.481,3.414-9.054,3.414-12.535,0c-3.443-3.469-3.443-9.066,0-12.535l8.828-8.828c3.466-3.437,9.058-3.426,12.51,0.026
				C309.831,32.52,309.843,38.112,306.406,41.578z M350.543,121.026l-8.828,8.828c-3.481,3.414-9.054,3.414-12.535,0
				c-3.443-3.469-3.443-9.066,0-12.535l8.828-8.828c3.466-3.437,9.058-3.426,12.51,0.026
				C353.969,111.968,353.981,117.561,350.543,121.026z M350.543,41.578l-8.828,8.828c-3.481,3.414-9.054,3.414-12.535,0
				c-3.443-3.469-3.443-9.066,0-12.535l8.828-8.828c3.466-3.437,9.058-3.426,12.51,0.026S353.981,38.112,350.543,41.578z
				 M385.854,129.854c-3.481,3.414-9.054,3.414-12.535,0c-3.443-3.469-3.443-9.066,0-12.535l8.828-8.828
				c3.466-3.437,9.058-3.426,12.51,0.026c3.452,3.451,3.463,9.044,0.026,12.51L385.854,129.854z"/>
			<rect x="441.379" y="61.793" width="17.655" height="35.31"/>
			<rect y="61.793" width="17.655" height="35.31"/>
			<path d="M229.517,326.621h35.31v-26.483c-0.015-4.869-3.958-8.813-8.828-8.828h-17.655c-4.869,0.015-8.813,3.958-8.828,8.828
				V326.621z"/>
			<path d="M279.923,373.407c-7.76-7.942-12.798-18.142-14.389-29.131h-36.723c-1.579,10.948-6.586,21.115-14.301,29.043
				c-6.988,6.029-11.147,14.699-11.476,23.923v97.103c0.015,4.869,3.958,8.813,8.828,8.828h70.621
				c4.869-0.015,8.813-3.958,8.828-8.828v-97.103C290.993,388.059,286.867,379.423,279.923,373.407z"/>
		</g>
	</g>
</g>
<g>
</g>
<g>
</g>
<g>
</g>
<g>
</g>
<g>
</g>
<g>
</g>
<g>
</g>
<g>
</g>
<g>
</g>
<g>
</g>
<g>
</g>
<g>
</g>
<g>
</g>
<g>
</g>
<g>
</g>
</svg>
