<?xml version="1.0" encoding="iso-8859-1"?>
<!-- Generator: Adobe Illustrator 19.0.0, SVG Export Plug-In . SVG Version: 6.00 Build 0)  -->
<svg version="1.1" id="Capa_1" xmlns="http://www.w3.org/2000/svg" xmlns:xlink="http://www.w3.org/1999/xlink" x="0px" y="0px"
	 viewBox="0 0 511.728 511.728" style="enable-background:new 0 0 511.728 511.728;" xml:space="preserve">
<g>
	<g>
		<g>
			<path d="M151.42,338.244l-0.013,0.011L8.875,480.789c-3.568,3.562-5.514,8.434-5.384,13.474s2.325,9.805,6.072,13.178
				c7.917,6.351,19.382,5.564,26.357-1.808l251.607-251.607l-25.946-25.946L151.42,338.244z M36.804,490.803
				c-0.511,1.077-1.192,2.064-2.018,2.924c-0.433,0.421-0.889,0.817-1.366,1.188c-0.554,0.277-1.009,0.549-1.554,0.826
				c-0.568,0.195-1.15,0.348-1.741,0.455c-0.598,0.152-1.215,0.213-1.83,0.183c-2.403,0.023-4.712-0.934-6.393-2.651
				c-0.882-0.812-1.572-1.811-2.018-2.924c-0.469-1.131-0.718-2.342-0.732-3.567c0.012-2.418,1.004-4.728,2.75-6.402
				c0.392-0.463,0.853-0.864,1.366-1.188c0.455-0.272,1.009-0.549,1.554-0.821c0.554-0.183,1.098-0.366,1.741-0.549
				c1.18-0.183,2.382-0.183,3.563,0c0.554,0.183,1.188,0.366,1.741,0.549c0.545,0.272,1,0.549,1.554,0.821
				c0.477,0.37,0.933,0.766,1.366,1.188c1.684,1.707,2.635,4.004,2.651,6.402C37.456,488.454,37.241,489.665,36.804,490.803z"/>
			<path d="M138.478,325.326l110.177-110.179L222.71,189.2L112.545,299.365c-7.127,7.168-7.113,18.751,0.03,25.903
				C119.719,332.419,131.302,332.445,138.478,325.326z"/>
			<path d="M287.456,137.387c-1.713-1.717-4.038-2.682-6.463-2.683s-4.751,0.963-6.465,2.679l-6.509,6.509
				c-1.715,1.715-2.679,4.041-2.679,6.466s0.964,4.752,2.679,6.467l6.536,6.536c3.576,3.565,9.363,3.563,12.937-0.004l6.509-6.505
				c3.564-3.577,3.56-9.365-0.009-12.937L287.456,137.387z"/>
			<path d="M507.554,124.343l-14.955-52.263c-3.857-13.494-11.087-25.784-21.009-35.71L443.018,7.798
				c-10.883-10.397-28.019-10.397-38.902,0l-32.402,32.397l-0.01,0.007l-51.84,51.843l25.949,25.945l12.946-12.947l0.007-0.005
				l25.94-25.937c10.733-10.714,28.115-10.714,38.848,0l71.268,71.272l8-7.969C507.553,137.685,509.363,130.776,507.554,124.343z"/>
			<path d="M371.694,117.968l-14.059,14.058c0.143,0.299,0.223,0.616,0.354,0.918c0.218,0.502,0.398,1.007,0.585,1.519
				c0.382,1.05,0.699,2.123,0.95,3.212c0.119,0.521,0.25,1.033,0.339,1.558c0.218,1.292,0.342,2.597,0.373,3.907
				c0.009,0.296,0.058,0.588,0.058,0.885c-0.015,1.588-0.166,3.172-0.453,4.734c-0.082,0.463-0.223,0.909-0.33,1.367
				c-0.257,1.124-0.584,2.231-0.98,3.314c-0.198,0.533-0.416,1.051-0.647,1.574c-0.464,1.038-0.993,2.046-1.585,3.018
				c-0.272,0.454-0.52,0.912-0.823,1.352c-0.942,1.402-2.013,2.714-3.198,3.919c-1.519,1.541-2.926,3.187-4.212,4.926
				c-0.398,0.532-0.759,1.085-1.134,1.631c-0.866,1.265-1.665,2.564-2.396,3.896c-0.323,0.59-0.654,1.176-0.95,1.777
				c-0.825,1.67-1.547,3.388-2.162,5.146c-0.078,0.224-0.186,0.439-0.261,0.664c-0.639,1.972-1.143,3.985-1.51,6.025
				c-0.112,0.609-0.179,1.225-0.268,1.838c-0.215,1.502-0.357,3.013-0.424,4.531c-0.029,0.66-0.059,1.319-0.059,1.98
				c0.001,1.769,0.106,3.536,0.314,5.292c0.04,0.335,0.04,0.671,0.087,1.006l0.045,0.198l25.922-25.922
				c10.736-10.706,28.11-10.708,38.848-0.004l25.911,25.924c3.59,3.58,9.401,3.58,12.991,0l12.929-12.933l-71.268-71.304
				C381.093,114.389,375.282,114.388,371.694,117.968z"/>
			<path d="M326.893,223.343l-0.026-0.065l-0.036-0.064c-11.724-24.474-6.704-53.684,12.518-72.839c3.58-3.59,3.58-9.401,0-12.991
				L293.992,92.03c-7.25-6.955-18.696-6.955-25.946,0l-45.349,45.353c-3.452,3.435-5.393,8.104-5.393,12.973
				c0,4.87,1.941,9.539,5.393,12.973l97.188,97.192l19.464-19.438c-5.126-5.139-9.326-11.124-12.415-17.691L326.893,223.343z
				 M306.938,169.776L306.938,169.776l-6.518,6.513c-10.722,10.689-28.07,10.691-38.795,0.005l-6.536-6.54
				c-5.145-5.144-8.036-12.122-8.036-19.397c0-7.276,2.891-14.253,8.036-19.397l6.509-6.505
				c10.855-10.365,27.942-10.363,38.795,0.005l6.536,6.527C317.615,141.706,317.619,159.05,306.938,169.776z"/>
		</g>
	</g>
</g>
<g>
</g>
<g>
</g>
<g>
</g>
<g>
</g>
<g>
</g>
<g>
</g>
<g>
</g>
<g>
</g>
<g>
</g>
<g>
</g>
<g>
</g>
<g>
</g>
<g>
</g>
<g>
</g>
<g>
</g>
</svg>
