<?xml version="1.0" encoding="iso-8859-1"?>
<!-- Generator: Adobe Illustrator 19.0.0, SVG Export Plug-In . SVG Version: 6.00 Build 0)  -->
<svg version="1.1" id="Capa_1" xmlns="http://www.w3.org/2000/svg" xmlns:xlink="http://www.w3.org/1999/xlink" x="0px" y="0px"
	 viewBox="0 0 510.969 510.969" style="enable-background:new 0 0 510.969 510.969;" xml:space="preserve">
<g>
	<g>
		<g>
			<path d="M182.022,299.402c-2.108-2.156-4.983-3.389-7.998-3.432c-0.553,0-1.106,0.045-1.652,0.134
				c-2.631,0.385-4.904,2.039-6.08,4.424c-2.243,4.842-5.058,9.398-8.384,13.571c-9.393,10.601-21.412,18.543-34.848,23.027
				c-10.983,3.922-22.296,6.846-33.804,8.737c-10.2,1.532-20.141,4.458-29.545,8.696c-11.418,5.545-21.813,12.987-30.741,22.009
				c-11.397,11.231-20.219,24.802-25.857,39.777c-4.347,12.512-4.136,26.157,0.597,38.528l68.153-68.153
				c9.352-9.38,23.001-13.052,35.797-9.63c12.796,3.422,22.79,13.417,26.211,26.213s-0.252,26.445-9.633,35.796l-68.147,68.155
				c12.369,4.736,26.014,4.946,38.522,0.59c14.976-5.632,28.549-14.454,39.777-25.853c9.021-8.926,16.463-19.317,22.009-30.732
				c4.236-9.408,7.165-19.352,8.705-29.554c1.889-11.505,4.808-22.817,8.723-33.799c4.486-13.442,12.434-25.464,23.045-34.857
				c4.171-3.325,8.724-6.139,13.563-8.384c2.382-1.176,4.035-3.447,4.42-6.076c0.518-3.551-0.702-7.135-3.279-9.632L182.022,299.402
				z"/>
			<path d="M116.819,412.909c0-4.977-1.982-9.749-5.509-13.261c-7.411-7.107-19.107-7.107-26.518,0l-71.994,71.994
				c1.833,2.423,3.83,4.717,5.977,6.867l13.679,13.674c2.152,2.147,4.448,4.146,6.872,5.98l71.985-71.994
				C114.837,422.659,116.819,417.887,116.819,412.909z"/>
			<path d="M466.149,57.742c-3.57,3.57-9.358,3.57-12.929,0c-3.57-3.57-3.57-9.358,0-12.929l44.815-44.811L477.64,6.8
				l-24.643,24.638c-3.206,3.219-12.786,13.415-14.241,15.5l-17.259,28.768c-0.234,0.294-0.488,0.571-0.759,0.831
				c-0.185,0.322-0.391,0.632-0.616,0.927L242.489,255.104l13.366,13.371L433.498,90.836c0.295-0.225,0.605-0.43,0.926-0.615
				c0.26-0.271,0.539-0.525,0.833-0.76l28.946-17.366c1.937-1.357,12.223-11.036,15.321-14.134l24.643-24.638l6.801-20.396
				L466.149,57.742z"/>
			<polygon points="249.391,287.872 240.638,279.117 222.98,261.461 222.971,261.452 196.464,287.981 222.982,314.503 
				249.507,287.984 249.404,287.881 			"/>
		</g>
	</g>
</g>
<g>
</g>
<g>
</g>
<g>
</g>
<g>
</g>
<g>
</g>
<g>
</g>
<g>
</g>
<g>
</g>
<g>
</g>
<g>
</g>
<g>
</g>
<g>
</g>
<g>
</g>
<g>
</g>
<g>
</g>
</svg>
