<?xml version="1.0" encoding="iso-8859-1"?>
<!-- Generator: Adobe Illustrator 19.0.0, SVG Export Plug-In . SVG Version: 6.00 Build 0)  -->
<svg version="1.1" id="Capa_1" xmlns="http://www.w3.org/2000/svg" xmlns:xlink="http://www.w3.org/1999/xlink" x="0px" y="0px"
	 viewBox="0 0 509.167 509.167" style="enable-background:new 0 0 509.167 509.167;" xml:space="preserve">
<g>
	<g>
		<g>
			<path d="M195.069,314.096l-14.652-14.647c-2.077-2.127-4.911-3.345-7.884-3.388c-0.544,0-1.088,0.045-1.625,0.134
				c-2.584,0.38-4.817,2.006-5.973,4.348c-2.227,4.805-5.021,9.327-8.321,13.469c-9.323,10.535-21.26,18.424-34.607,22.87
				c-10.894,3.894-22.119,6.794-33.536,8.665c-10.11,1.524-19.964,4.426-29.286,8.625c-11.318,5.497-21.622,12.874-30.473,21.817
				c-11.296,11.132-20.039,24.585-25.625,39.429c-4.298,12.354-4.102,25.827,0.552,38.051l67.519-67.516
				c9.291-9.338,22.865-13,35.592-9.601c12.727,3.399,22.667,13.34,26.065,26.068c3.398,12.727-0.264,26.3-9.604,35.591
				l-67.516,67.512c12.223,4.657,25.697,4.853,38.051,0.555c14.846-5.581,28.3-14.325,39.429-25.625
				c8.942-8.849,16.32-19.15,21.821-30.464c4.196-9.323,7.095-19.176,8.616-29.286c1.877-11.421,4.778-22.649,8.67-33.549
				c4.448-13.344,12.335-25.279,22.866-34.603c4.138-3.31,8.662-6.105,13.473-8.326c2.347-1.154,3.973-3.39,4.348-5.978
				c0.508-3.489-0.69-7.01-3.219-9.466L195.069,314.096z"/>
			<path d="M115.729,411.983c0-4.918-1.96-9.632-5.446-13.1c-7.318-7.027-18.878-7.027-26.196,0l-71.37,71.365
				c1.808,2.38,3.775,4.636,5.888,6.751l13.563,13.567c2.114,2.111,4.368,4.076,6.747,5.882l71.368-71.364
				C113.769,421.615,115.729,416.9,115.729,411.983z"/>
			<polygon points="221.108,261.847 221.097,261.831 221.077,261.851 221.096,261.86 			"/>
			<polygon points="494.024,0.003 456.23,27.003 441.31,51.86 457.31,67.855 482.158,52.94 509.167,15.137 			"/>
			
				<rect x="332.452" y="33.595" transform="matrix(-0.7072 -0.707 0.707 -0.7072 465.0923 527.4313)" width="18.609" height="267.637"/>
			<polygon points="194.899,288.065 207.997,301.168 221.1,314.266 247.301,288.065 221.104,261.873 			"/>
		</g>
	</g>
</g>
<g>
</g>
<g>
</g>
<g>
</g>
<g>
</g>
<g>
</g>
<g>
</g>
<g>
</g>
<g>
</g>
<g>
</g>
<g>
</g>
<g>
</g>
<g>
</g>
<g>
</g>
<g>
</g>
<g>
</g>
</svg>
