<?xml version="1.0" encoding="iso-8859-1"?>
<!-- Generator: Adobe Illustrator 19.0.0, SVG Export Plug-In . SVG Version: 6.00 Build 0)  -->
<svg version="1.1" id="Capa_1" xmlns="http://www.w3.org/2000/svg" xmlns:xlink="http://www.w3.org/1999/xlink" x="0px" y="0px"
	 viewBox="0 0 509.458 509.458" style="enable-background:new 0 0 509.458 509.458;" xml:space="preserve">
<g>
	<g>
		<g>
			<path d="M80.782,63.382l11.917,13.506l26.483-26.395c3.437-3.461,9.03-3.481,12.491-0.044s3.481,9.03,0.044,12.491L104.44,90.13
				l11.917,13.594l28.072-28.072c1.649-1.653,3.888-2.582,6.223-2.582c2.335,0,4.574,0.929,6.223,2.582
				c3.443,3.469,3.443,9.066,0,12.535l-28.778,28.778l11.917,13.506l29.572-29.572c3.469-3.443,9.066-3.443,12.535,0
				c1.653,1.649,2.582,3.888,2.582,6.223c0,2.335-0.929,4.574-2.582,6.223l-30.367,30.367l11.917,13.595l-19.244,19.244
				l12.447,12.447l37.782-37.782l44.226,44.315l12.712-12.8l-44.226-44.138v-0.088l37.782-37.782l-12.535-12.447l-19.244,19.244
				l-93.837-82.803l12.182-12.182L119.182,0L56.153,63.029L68.6,75.564L80.782,63.382z"/>
			<path d="M396.457,239.404l-56.938,56.85c30.158,8.223,62.19,6.237,91.101-5.65c2.633-1.05,4.537-3.388,5.032-6.179
				c0.662-3.007-0.273-6.143-2.472-8.298L396.457,239.404z"/>
			<path d="M144.481,390.763c-0.018-0.018-0.032-0.037-0.05-0.055c-0.08-0.08-0.167-0.149-0.249-0.225
				c-0.128-0.12-0.255-0.241-0.39-0.353c-0.067-0.056-0.138-0.105-0.206-0.158c-0.172-0.135-0.346-0.267-0.526-0.388
				c-0.042-0.028-0.085-0.052-0.127-0.079c-0.212-0.137-0.427-0.267-0.649-0.385c-0.01-0.005-0.021-0.01-0.031-0.015
				c-1.24-0.655-2.625-1.022-4.053-1.042c-2.387-0.033-4.688,0.888-6.393,2.559l-50.67,50.67c-1.653,1.649-2.582,3.888-2.582,6.223
				c0,2.335,0.929,4.574,2.582,6.223l0.177,0.177c1.645,1.685,3.895,2.643,6.249,2.659c2.355,0.017,4.618-0.909,6.286-2.571
				l50.67-50.67c3.443-3.469,3.443-9.066,0-12.535C144.506,390.785,144.492,390.775,144.481,390.763z"/>
			
				<rect x="227.325" y="271.983" transform="matrix(0.7071 0.7071 -0.7071 0.7071 276.8184 -88.5018)" width="35.829" height="35.829"/>
			<path d="M283.022,302.433l-63.294,63.294c-13.856,13.654-36.108,13.654-49.964,0l-0.353-0.441
				c-13.771-13.774-13.771-36.102,0-49.876l63.294-63.294l-17.743-17.743c-3.485-3.528-8.281-5.447-13.238-5.297
				c-4.957,0.151-9.628,2.357-12.892,6.091L29.67,438.466c-5.741,7.125-5.209,17.427,1.236,23.923l41.843,41.843
				c6.458,6.425,16.705,6.995,23.835,1.324l203.741-159.603c3.525-3.225,5.569-7.758,5.65-12.535
				c0.202-4.95-1.688-9.756-5.208-13.241L283.022,302.433z M157.053,415.779l-50.67,50.67c-10.361,10.358-27.156,10.358-37.517,0
				c0,0-0.265-0.177-0.265-0.265c-10.24-10.375-10.24-27.054,0-37.429l50.759-50.67c10.431-10.277,27.199-10.214,37.554,0.14
				C167.267,388.58,167.329,405.348,157.053,415.779z"/>
			<path d="M181.946,327.857c-6.886,6.904-6.886,18.078,0,24.982l0.353,0.353c6.904,6.885,18.078,6.885,24.982,0l25.423-25.423
				l-25.335-25.335L181.946,327.857z"/>
			<path d="M406.167,182.775c0-14.058-5.589-27.539-15.536-37.473l-0.794-0.883c-20.736-20.598-54.21-20.598-74.946,0
				l-60.469,60.557l-9.269,9.269l-12.712,12.623l18.979,18.979l18.891,18.891l37.959,37.87l8.474-8.386v-0.088l73.887-73.887
				C400.577,210.314,406.167,196.833,406.167,182.775z M364.942,207.89c-7.63,7.602-19.08,9.876-29.036,5.766
				c-9.956-4.11-16.468-13.798-16.514-24.569c0.002-7.074,2.793-13.862,7.768-18.891h0.088c10.55-10.063,27.144-10.063,37.694,0
				C375.3,180.626,375.3,197.46,364.942,207.89z"/>
			<path d="M452.335,82.803C421,51.357,373.488,42.559,332.971,60.7c-40.517,18.14-65.599,59.441-63.013,103.758l32.486-32.486
				c27.581-27.542,72.258-27.542,99.84,0l0.883,0.883c25.293,25.323,27.645,65.564,5.473,93.661l23.481,23.481
				c28.158-16.998,46.921-46.015,50.869-78.669C486.938,138.675,475.631,106.022,452.335,82.803z"/>
			<path d="M346.051,180.083c-2.393-0.033-4.694,0.926-6.356,2.648c-1.695,1.681-2.648,3.969-2.648,6.356
				c0,2.387,0.953,4.675,2.648,6.356c3.573,3.354,9.138,3.354,12.712,0c1.695-1.681,2.648-3.969,2.648-6.356
				c0-2.387-0.953-4.675-2.648-6.356C350.745,181.009,348.445,180.05,346.051,180.083z"/>
		</g>
	</g>
</g>
<g>
</g>
<g>
</g>
<g>
</g>
<g>
</g>
<g>
</g>
<g>
</g>
<g>
</g>
<g>
</g>
<g>
</g>
<g>
</g>
<g>
</g>
<g>
</g>
<g>
</g>
<g>
</g>
<g>
</g>
</svg>
