<?xml version="1.0" encoding="iso-8859-1"?>
<!-- Generator: Adobe Illustrator 19.0.0, SVG Export Plug-In . SVG Version: 6.00 Build 0)  -->
<svg version="1.1" id="Capa_1" xmlns="http://www.w3.org/2000/svg" xmlns:xlink="http://www.w3.org/1999/xlink" x="0px" y="0px"
	 viewBox="0 0 511.888 511.888" style="enable-background:new 0 0 511.888 511.888;" xml:space="preserve">
<g>
	<g>
		<g>
			<path d="M243.574,244.391l-71.768,71.777c-0.272,0.273-0.561,0.528-0.866,0.763l-49.25,38.17l37.018,37.022l38.178-49.254
				c0.235-0.303,0.488-0.59,0.759-0.862l71.774-71.773l-12.919-12.921L243.574,244.391z"/>
			<polygon points="271.538,181.896 248.653,223.212 256.507,231.459 264.727,239.679 288.818,263.77 288.836,263.788 
				290.4,265.352 331.927,242.284 322.135,232.483 			"/>
			<path d="M250.039,108.69l77.535-77.535L301.726,5.311c-3.454-4.198-8.959-6.123-14.277-4.991
				c-6.955,2.067-13.195,6.034-18.018,11.455l-38.777,38.768c-19.375,19.384-9.652,29.107-6.455,32.304L250.039,108.69z"/>
			<path d="M107.886,367.16L4.512,470.534c-3.562,3.575-3.562,9.358,0,12.933l25.83,25.83c3.614,3.452,9.303,3.454,12.92,0.004
				l103.384-103.379l-19.379-19.382L107.886,367.16z"/>
			<path d="M502.039,205.619l-19.383-19.38L405.12,263.77l19.384,19.384c10.716,10.682,28.054,10.68,38.768-0.005l38.767-38.767
				C512.718,233.667,512.718,216.334,502.039,205.619z"/>
			<path d="M478.86,160.387c0.009-2.425-0.956-4.753-2.679-6.46L359.887,37.628c-1.714-1.715-4.04-2.679-6.464-2.679
				s-4.75,0.964-6.464,2.679l-90.446,90.446c-3.563,3.575-3.563,9.358,0,12.933l34.88,34.879l36.191,36.188l25.848,25.848
				l0.001,0.002l19.374,19.374c3.573,3.562,9.355,3.562,12.929,0l90.446-90.446C477.904,165.142,478.869,162.813,478.86,160.387z
				 M405.119,121.619L405.119,121.619l-64.617,64.616c-3.577,3.532-9.334,3.513-12.888-0.041c-3.554-3.554-3.572-9.311-0.04-12.888
				l64.616-64.616c3.57-3.57,9.358-3.57,12.929,0C408.689,112.26,408.689,118.049,405.119,121.619z"/>
		</g>
	</g>
</g>
<g>
</g>
<g>
</g>
<g>
</g>
<g>
</g>
<g>
</g>
<g>
</g>
<g>
</g>
<g>
</g>
<g>
</g>
<g>
</g>
<g>
</g>
<g>
</g>
<g>
</g>
<g>
</g>
<g>
</g>
</svg>
