<?xml version="1.0" encoding="iso-8859-1"?>
<!-- Generator: Adobe Illustrator 19.0.0, SVG Export Plug-In . SVG Version: 6.00 Build 0)  -->
<svg version="1.1" id="Capa_1" xmlns="http://www.w3.org/2000/svg" xmlns:xlink="http://www.w3.org/1999/xlink" x="0px" y="0px"
	 viewBox="0 0 512.037 512.037" style="enable-background:new 0 0 512.037 512.037;" xml:space="preserve">
<g>
	<g>
		<g>
			<path d="M203.682,255.721l-2.037-18.344c-0.023-0.204,0.077-0.392,0.068-0.596c-44.132-5.657-101.331,18.988-146.84,64.489
				C31.5,324.163,13.061,351.6,0.694,381.89c-1.411,3.453-0.632,7.415,1.982,10.076c2.138,2.224,5.273,3.187,8.29,2.545
				c3.051-0.626,5.566-2.778,6.656-5.696c11.51-28.004,28.626-53.358,50.295-74.505
				C116.599,265.621,169.459,249.069,203.682,255.721z"/>
			<path d="M346.054,140.837c-4.165,7.213-2.967,16.324,2.922,22.214c7.282,6.955,18.745,6.955,26.027,0
				c3.464-3.443,5.406-8.129,5.393-13.013c-0.001-8.329-5.596-15.619-13.641-17.774
				C358.709,130.108,350.219,133.624,346.054,140.837z"/>
			<path d="M316.545,182.565l0.024-0.037l13.923-13.923c-8.61-14.358-6.346-32.734,5.493-44.572
				c11.838-11.838,30.214-14.103,44.572-5.493l107.49-107.494l-8.321-8.321c-3.219-3.246-8.336-3.626-12-0.893L309.614,124.444
				l-19.071,19.071c-3.594,3.606-3.594,9.439,0,13.045L316.545,182.565z"/>
			<path d="M274.65,310.381l-18.346-2.038c6.647,34.216-9.903,87.082-58.587,135.766c-21.142,21.665-46.49,38.779-74.487,50.29
				c-2.926,1.086-5.086,3.604-5.714,6.661c-0.643,2.986,0.294,6.092,2.482,8.223c2.649,2.655,6.63,3.467,10.107,2.063
				c30.301-12.369,57.749-30.812,80.652-54.192c45.471-45.475,70.117-102.608,64.503-146.737
				C275.056,310.408,274.853,310.406,274.65,310.381z"/>
			<path d="M509.297,32.297l-8.321-8.321L393.485,131.47c8.61,14.358,6.346,32.734-5.493,44.572
				c-11.838,11.838-30.214,14.103-44.572,5.493l-13.923,13.923l-0.037,0.025l15.032,15.034l10.973,10.969
				c3.606,3.594,9.439,3.594,13.045,0l19.071-19.071L510.324,44.136C512.952,40.477,512.516,35.448,509.297,32.297z"/>
			<path d="M284.076,175.951l-63.775,63.775l3.571,32.17c0.919,8.57,7.689,15.34,16.259,16.259l32.17,3.571l63.773-63.773
				l-4.51-4.507L284.076,175.951z"/>
		</g>
	</g>
</g>
<g>
</g>
<g>
</g>
<g>
</g>
<g>
</g>
<g>
</g>
<g>
</g>
<g>
</g>
<g>
</g>
<g>
</g>
<g>
</g>
<g>
</g>
<g>
</g>
<g>
</g>
<g>
</g>
<g>
</g>
</svg>
