<?xml version="1.0" encoding="iso-8859-1"?>
<!-- Generator: Adobe Illustrator 19.0.0, SVG Export Plug-In . SVG Version: 6.00 Build 0)  -->
<svg version="1.1" id="Capa_1" xmlns="http://www.w3.org/2000/svg" xmlns:xlink="http://www.w3.org/1999/xlink" x="0px" y="0px"
	 viewBox="0 0 509.425 509.425" style="enable-background:new 0 0 509.425 509.425;" xml:space="preserve">
<g>
	<g>
		<g>
			<path d="M268.282,344.814l-11.393,11.393c-3.43,3.45-5.361,8.113-5.375,12.978c0.031,11.738-4.632,23.001-12.951,31.281
				l-61.022,61.018c-14.314,14.276-37.487,14.261-51.782-0.034c-14.295-14.295-14.311-37.468-0.034-51.783l123.148-123.151
				c1.724-1.723,2.692-4.061,2.692-6.498c0-2.437-0.968-4.775-2.692-6.498l-12.965-12.965c-3.634-3.473-9.357-3.473-12.991,0
				L99.76,383.702c-14.497,13.848-37.32,13.848-51.817,0c-14.286-14.318-14.286-37.498,0-51.817l61.018-61.018
				c8.279-8.322,19.543-12.987,31.281-12.955c4.865-0.014,9.528-1.945,12.978-5.375l11.393-11.393c7.154-7.175,7.154-18.785,0-25.96
				l-5.463-5.463c-6.081,7.992-13.386,14.973-21.645,20.686c-7.391,4.79-15.046,9.16-22.929,13.089
				c-9.055,4.382-17.713,9.543-25.875,15.424c-16.796,12.888-32.756,26.831-47.782,41.745
				c-16.487,16.371-30.71,31.504-37.813,50.906c-11.263,30.781,10.179,56.281,30.911,80.946c2.018,2.384,16.804,18.987,19.63,21.853
				c0.518,0.417,0.989,0.888,1.406,1.406c2.866,2.826,19.455,17.603,21.455,19.295c25.063,21.071,50.585,42.509,81.344,31.245
				c19.402-7.103,34.536-21.326,50.906-37.812c14.914-15.026,28.857-30.985,41.746-47.781c5.881-8.162,11.042-16.82,15.424-25.875
				c3.929-7.882,8.299-15.537,13.089-22.929c5.713-8.259,12.694-15.564,20.686-21.645l-5.463-5.463
				C287.066,337.662,275.457,337.662,268.282,344.814z"/>
			<path d="M320.166,292.961L209.982,182.778l-3.723-3.723c-3.934-3.931-9.438-5.867-14.966-5.266
				c-5.529,0.601-10.487,3.675-13.485,8.359l-3.035,4.759c-1.619,2.553-3.26,5.105-4.922,7.658l7.69,7.69
				c14.286,14.318,14.286,37.499,0,51.817l-11.393,11.393c-6.856,6.894-16.184,10.758-25.906,10.732
				c-6.887-0.018-13.496,2.719-18.353,7.603l-61.018,61.013c-7.154,7.175-7.154,18.785,0,25.96c7.263,6.938,18.697,6.938,25.96,0
				l123.152-123.148c10.869-10.384,27.983-10.384,38.853,0l12.965,12.965c5.154,5.152,8.049,12.141,8.049,19.429
				c0,7.287-2.895,14.276-8.049,19.429L138.652,422.595c-4.637,4.637-6.448,11.396-4.751,17.731
				c1.697,6.335,6.645,11.283,12.98,12.98c6.335,1.697,13.094-0.114,17.731-4.751l61.018-61.018
				c4.881-4.858,7.616-11.466,7.598-18.353c-0.026-9.722,3.839-19.051,10.732-25.906l11.393-11.393
				c14.318-14.286,37.498-14.286,51.817,0l7.69,7.69c2.557-1.663,5.11-3.304,7.658-4.922l4.759-3.035v0
				c4.684-2.997,7.758-7.956,8.359-13.485s-1.335-11.032-5.266-14.966L320.166,292.961z"/>
			<polygon points="480.907,0.001 425.414,35.312 474.114,84.012 509.425,28.519 			"/>
			<path d="M313.697,234.64l-0.017-0.013l-0.005-0.009l-38.866-38.866l-0.013-0.009l-0.009-0.013l-25.915-25.915
				c-3.594-3.58-9.406-3.58-13,0l-6.496,6.5l97.255,97.255l6.5-6.496v0c3.585-3.592,3.585-9.408,0-13L313.697,234.64z"/>
			<path d="M379.84,103.242c-0.384,0.641-0.846,1.232-1.375,1.759l-84.275,84.275l25.96,25.96l84.275-84.275
				c0.527-0.529,1.118-0.991,1.759-1.375l54.782-32.866l-48.26-48.26L379.84,103.242z"/>
		</g>
	</g>
</g>
<g>
</g>
<g>
</g>
<g>
</g>
<g>
</g>
<g>
</g>
<g>
</g>
<g>
</g>
<g>
</g>
<g>
</g>
<g>
</g>
<g>
</g>
<g>
</g>
<g>
</g>
<g>
</g>
<g>
</g>
</svg>
