<?xml version="1.0" encoding="iso-8859-1"?>
<!-- Generator: Adobe Illustrator 19.0.0, SVG Export Plug-In . SVG Version: 6.00 Build 0)  -->
<svg version="1.1" id="Capa_1" xmlns="http://www.w3.org/2000/svg" xmlns:xlink="http://www.w3.org/1999/xlink" x="0px" y="0px"
	 viewBox="0 0 511.936 511.936" style="enable-background:new 0 0 511.936 511.936;" xml:space="preserve">
<g>
	<g>
		<g>
			<path d="M508.675,3.265c-4.047-4.047-10.502-4.367-14.929-0.741l-49.348,40.375l5.857,5.857l6.513-6.513
				c2.309-2.309,5.676-3.211,8.83-2.366s5.619,3.309,6.464,6.464s-0.057,6.521-2.366,8.83l-6.513,6.513l5.857,5.857l40.375-49.348
				l0,0C513.042,13.766,512.721,7.311,508.675,3.265z"/>
			<path d="M320.523,295.244l-0.009-0.005L210.214,184.939l-0.009-0.013l-3.714-3.714c-3.941-3.936-9.453-5.876-14.991-5.275
				s-10.505,3.678-13.51,8.369l-3.022,4.745c-1.627,2.566-3.276,5.131-4.946,7.696l7.701,7.701
				c14.299,14.329,14.299,37.529,0,51.857l-11.402,11.406c-6.861,6.901-16.198,10.769-25.929,10.741
				c-6.896-0.019-13.512,2.722-18.375,7.612l-61.08,61.08c-7.18,7.18-7.18,18.82,0,26c7.18,7.18,18.82,7.18,26,0l123.277-123.276
				c10.878-10.393,28.006-10.393,38.884,0l12.973,12.978c5.159,5.155,8.058,12.149,8.058,19.442s-2.899,14.287-8.058,19.442
				L138.795,425.001c-7.18,7.18-7.179,18.82,0,26c7.18,7.18,18.82,7.179,26,0l61.085-61.08c4.886-4.864,7.625-11.48,7.607-18.375
				c-0.028-9.731,3.84-19.068,10.741-25.929l11.406-11.402c14.327-14.304,37.531-14.304,51.857,0l7.701,7.701
				c2.57-1.671,5.136-3.32,7.696-4.946l4.745-3.022l0,0.001c4.69-3.004,7.768-7.972,8.369-13.51
				c0.601-5.538-1.338-11.05-5.275-14.99L320.523,295.244z"/>
			<path d="M268.562,347.144l-11.406,11.402c-3.459,3.44-5.398,8.121-5.384,13c0.031,11.746-4.635,23.017-12.96,31.304
				l-61.089,61.081c-14.32,14.32-37.537,14.32-51.857,0s-14.32-37.537,0-51.857l123.277-123.277
				c1.729-1.725,2.701-4.067,2.701-6.509c0-2.442-0.972-4.784-2.701-6.509l-12.978-12.982c-3.641-3.482-9.377-3.482-13.018,0
				L99.866,386.073c-14.32,14.32-37.537,14.32-51.857,0c-14.32-14.32-14.32-37.537,0-51.857l61.081-61.085
				c8.285-8.327,19.557-12.995,31.303-12.964c4.879,0.014,9.56-1.925,13-5.384l11.402-11.406c7.165-7.186,7.165-18.814,0-26
				l-5.473-5.473c-6.088,8.001-13.401,14.99-21.67,20.709c-7.4,4.796-15.064,9.172-22.956,13.107
				c-9.067,4.382-17.734,9.548-25.902,15.438c-16.815,12.9-32.791,26.859-47.83,41.79c-16.504,16.393-30.75,31.54-37.853,50.96
				c-11.277,30.817,10.188,56.348,30.942,81.04c2.018,2.388,16.817,19,19.647,21.866c0.524,0.423,1.001,0.9,1.424,1.424
				c2.866,2.83,19.464,17.616,21.469,19.317c25.094,21.085,50.612,42.54,81.433,31.272c19.424-7.103,34.571-21.348,50.964-37.853
				c14.932-15.04,28.89-31.016,41.79-47.83c5.89-8.168,11.055-16.835,15.437-25.902c3.935-7.891,8.311-15.555,13.107-22.955
				c5.719-8.269,12.708-15.583,20.709-21.67l-5.473-5.473C287.378,339.974,275.746,339.974,268.562,347.144z"/>
			
				<rect x="357.256" y="39.92" transform="matrix(-0.7071 -0.7071 0.7071 -0.7071 544.881 498.2938)" width="36.769" height="192.756"/>
			<path d="M249.143,171.961c-3.641-3.482-9.377-3.482-13.018,0l-6.516,6.511l97.371,97.37l6.511-6.511v0
				c3.59-3.601,3.588-9.428-0.004-13.027L249.143,171.961z"/>
		</g>
	</g>
</g>
<g>
</g>
<g>
</g>
<g>
</g>
<g>
</g>
<g>
</g>
<g>
</g>
<g>
</g>
<g>
</g>
<g>
</g>
<g>
</g>
<g>
</g>
<g>
</g>
<g>
</g>
<g>
</g>
<g>
</g>
</svg>
