<?xml version="1.0" encoding="iso-8859-1"?>
<!-- Generator: Adobe Illustrator 19.0.0, SVG Export Plug-In . SVG Version: 6.00 Build 0)  -->
<svg version="1.1" id="Capa_1" xmlns="http://www.w3.org/2000/svg" xmlns:xlink="http://www.w3.org/1999/xlink" x="0px" y="0px"
	 viewBox="0 0 509.42 509.42" style="enable-background:new 0 0 509.42 509.42;" xml:space="preserve">
<g>
	<g>
		<g>
			<path d="M143.974,365.443c-13.944-13.944-36.547-13.958-50.508-0.031L5.237,453.641c-6.983,7-6.983,18.332,0,25.332
				l25.207,25.207c7,6.983,18.332,6.983,25.332,0l88.229-88.229l0,0C157.931,401.991,157.918,379.387,143.974,365.443z"/>
			<path d="M149.072,346.878c2.649,1.79,5.131,3.816,7.415,6.053c2.237,2.285,4.263,4.766,6.054,7.415
				c5.232-4.17,11.222-7.285,17.64-9.175l-21.932-21.931C156.358,335.657,153.242,341.647,149.072,346.878z"/>
			<path d="M177.554,293.928l-14.826,14.826l37.935,37.935l14.824-14.824C200.197,322.175,187.242,309.219,177.554,293.928z"/>
			<path d="M387.623,159.727l21.131-21.128l-37.935-37.935l-21.127,21.13C364.982,131.481,377.936,144.436,387.623,159.727z"/>
			<polygon points="414.879,69.34 414.884,69.348 440.069,94.533 440.082,94.542 440.091,94.555 446.444,100.909 459.173,88.18 
				421.237,50.245 408.509,62.974 414.866,69.331 			"/>
			<polygon points="413.235,118.113 413.235,118.113 413.235,118.113 			"/>
			<path d="M421.818,101.248l-13.659-13.66c-5.04,3.88-10.754,6.794-16.854,8.594l21.931,21.931
				C415.029,112.009,417.939,106.291,421.818,101.248z"/>
			<path d="M452.806,359.112c-6.777-6.776-16.653-9.422-25.909-6.941c-9.256,2.481-16.486,9.711-18.966,18.968
				c-2.48,9.256,0.167,19.133,6.944,25.909c10.615,10.129,27.316,10.129,37.931,0C463.277,386.57,463.277,369.589,452.806,359.112
				L452.806,359.112z"/>
			<path d="M459.108,37.702c-6.999-6.983-18.329-6.983-25.328,0l-0.06,0.06l37.935,37.935l0.06-0.06
				c6.983-6.999,6.983-18.329,0-25.328L459.108,37.702z"/>
			<path d="M306.616,238.129c-1.273,2.797-3.025,5.35-5.177,7.543h-0.004c-2.19,2.155-4.737,3.913-7.529,5.196l102.772,102.776
				c1.661-2.526,3.576-4.876,5.714-7.014l0,0c2.137-2.138,4.486-4.052,7.011-5.713L306.616,238.129z"/>
			<path d="M263.742,245.672c-1.248-1.248-2.37-2.617-3.35-4.085c-0.459-0.762-0.879-1.546-1.258-2.351
				c-0.394-0.745-0.865-1.453-1.185-2.231c-0.247-0.601-0.363-1.248-0.564-1.866c-0.38-1.038-0.693-2.098-0.939-3.176l-0.009-0.084
				c-0.623-2.983-0.658-6.058-0.102-9.054c0.524-3.851,1.913-7.533,4.064-10.77c4.433-6.643,11.609-10.951,19.556-11.739
				c7.947-0.789,15.83,2.024,21.482,7.667l73.281,73.281c18.538-31.603,19.739-70.463,3.189-103.151
				c-21.093-41.249-66.329-64.245-112.084-56.98c-45.756,7.265-81.644,43.142-88.922,88.896
				c-7.279,45.753,15.704,90.996,56.946,112.101c32.695,16.56,71.565,15.364,103.18-3.175l-73.259-73.262L263.742,245.672z"/>
			<path d="M276.228,220.465c-0.833,0.831-1.494,1.818-1.945,2.905c-0.437,1.056-0.653,2.189-0.637,3.332
				c-0.028,2.155,0.744,4.244,2.167,5.863c0.163,0.192,0.235,0.44,0.415,0.62c3.56,3.393,9.157,3.395,12.72,0.004h0.004
				c3.509-3.516,3.509-9.208,0-12.724C285.381,217.094,279.8,217.094,276.228,220.465z"/>
			
				<rect x="471.207" y="10.659" transform="matrix(0.7071 -0.7071 0.7071 0.7071 129.7192 352.1441)" width="37.456" height="17.655"/>
		</g>
	</g>
</g>
<g>
</g>
<g>
</g>
<g>
</g>
<g>
</g>
<g>
</g>
<g>
</g>
<g>
</g>
<g>
</g>
<g>
</g>
<g>
</g>
<g>
</g>
<g>
</g>
<g>
</g>
<g>
</g>
<g>
</g>
</svg>
