<?xml version="1.0" encoding="iso-8859-1"?>
<!-- Generator: Adobe Illustrator 19.0.0, SVG Export Plug-In . SVG Version: 6.00 Build 0)  -->
<svg version="1.1" id="Capa_1" xmlns="http://www.w3.org/2000/svg" xmlns:xlink="http://www.w3.org/1999/xlink" x="0px" y="0px"
	 viewBox="0 0 512 512" style="enable-background:new 0 0 512 512;" xml:space="preserve">
<g>
	<g>
		<g>
			<rect x="475.429" y="73.143" width="36.571" height="18.286"/>
			<path d="M54.857,512h204.75c1.804,0.002,3.568-0.533,5.067-1.536l14.683-9.786c2.545-1.694,4.073-4.549,4.071-7.607v-8.5h-256
				C27.445,499.713,39.716,511.984,54.857,512z"/>
			<path d="M155.313,196.817c-6.583,12.189-5.969,28.568,1.554,48.693c8.633-10.646,21.583-16.861,35.289-16.938l-0.12-7.009
				c-7.095-14.893-7.729-32.054-1.753-47.431C175.956,176.442,163.263,184.676,155.313,196.817z"/>
			<path d="M258.558,425.255c-10.31-14.4-26.928-22.951-44.638-22.969H31.214l-1.107,1.107c-1.721,1.712-2.685,4.041-2.679,6.469
				v56.424h256v-3.281c0.003-1.907-0.594-3.767-1.705-5.317L258.558,425.255z"/>
			<polygon points="64,54.857 36.571,54.857 36.571,103.525 64,114.496 			"/>
			<path d="M74.482,208.183c-12.021,39.238-18.623,79.934-19.625,120.96v38.138c-0.02,6.068-2.073,11.955-5.833,16.719h73.53
				c-2.395-4.604-3.662-9.712-3.697-14.902c0-3.086,0.428-6.157,1.272-9.125l26.385-92.349
				c-15.845-32.41-18.323-59.223-7.211-79.647c15.312-28.147,50.21-32.33,51.688-32.491c0.335-0.039,0.672-0.059,1.009-0.058h45.714
				c5.047-0.007,9.136-4.096,9.143-9.143V27.429c0.001-1.254,0.131-2.505,0.388-3.733L212.094,2.607
				c-2.841-1.705-6.093-2.606-9.406-2.607h-81.612c-4.853-0.013-9.51,1.916-12.933,5.357l-2.214,2.214
				c-6.843,6.883-16.156,10.741-25.862,10.714H18.286C8.191,18.296,0.01,26.477,0,36.571v91.888
				c0.004,7.226,4.259,13.773,10.862,16.71l43.393,19.29C70.997,171.91,79.643,190.599,74.482,208.183z M118.857,36.571h91.429
				c5.049,0,9.143,4.093,9.143,9.143s-4.093,9.143-9.143,9.143h-91.429c-5.049,0-9.143-4.093-9.143-9.143
				S113.808,36.571,118.857,36.571z M118.857,73.143h91.429c5.049,0,9.143,4.093,9.143,9.143c0,5.049-4.093,9.143-9.143,9.143
				h-91.429c-5.049,0-9.143-4.093-9.143-9.143C109.714,77.236,113.808,73.143,118.857,73.143z M118.857,109.714h91.429
				c5.049,0,9.143,4.093,9.143,9.143c0,5.049-4.093,9.143-9.143,9.143h-91.429c-5.049,0-9.143-4.093-9.143-9.143
				C109.714,113.808,113.808,109.714,118.857,109.714z M18.286,103.522V54.857c0.01-10.095,8.191-18.276,18.286-18.286H64
				c10.095,0.01,18.276,8.191,18.286,18.286v59.638c0.002,6.068-3.007,11.742-8.032,15.145c-5.025,3.403-11.41,4.091-17.044,1.837
				L29.777,120.5C22.819,117.743,18.26,111.006,18.286,103.522z"/>
			<path d="M393.143,57.17v50.219l27.187-6.214c0.134-0.432,0.215-0.879,0.241-1.33V64.728c0.035-0.518-0.135-1.03-0.473-1.424
				L393.143,57.17z"/>
			<path d="M292.572,27.429h-27.429v18.286h9.143c5.049,0,9.143,4.093,9.143,9.143c0,5.049-4.093,9.143-9.143,9.143h-9.143v36.571
				h9.143c5.049,0,9.143,4.093,9.143,9.143s-4.093,9.143-9.143,9.143h-9.143v18.286h27.429c5.047-0.007,9.136-4.096,9.143-9.143
				V36.571C301.708,31.525,297.618,27.435,292.572,27.429z"/>
			<rect x="438.857" y="73.143" width="18.286" height="18.286"/>
			<path d="M365.714,36.571H320v18.286h27.429c5.049,0,9.143,4.093,9.143,9.143s-4.093,9.143-9.143,9.143H320V128h45.714
				c5.047-0.007,9.136-4.096,9.143-9.143V45.714C374.851,40.668,370.761,36.578,365.714,36.571z"/>
		</g>
	</g>
</g>
<g>
</g>
<g>
</g>
<g>
</g>
<g>
</g>
<g>
</g>
<g>
</g>
<g>
</g>
<g>
</g>
<g>
</g>
<g>
</g>
<g>
</g>
<g>
</g>
<g>
</g>
<g>
</g>
<g>
</g>
</svg>
